<?xml version="1.0" encoding="utf-8"?>
<!-- Generator: Adobe Illustrator 19.2.1, SVG Export Plug-In . SVG Version: 6.00 Build 0)  -->
<svg version="1.1" id="Слой_1" xmlns="http://www.w3.org/2000/svg" xmlns:xlink="http://www.w3.org/1999/xlink" x="0px" y="0px"
	 viewBox="0 0 70.2 62.3" enable-background="new 0 0 70.2 62.3" xml:space="preserve">
<title>build</title>
<desc>Created with Sketch.</desc>
<g id="Page-1">
	<g id="_x30_1---DwellingType" transform="translate(-694.000000, -283.000000)">
		<g id="Selection" transform="translate(105.000000, 224.000000)">
			<g id="Apartment" transform="translate(439.000000, 0.000000)">
				<g id="Group-7" transform="translate(38.000000, 59.000000)">
					<g id="Icon-_x2F_-120-PX-_x2F_-Bi-Color-_x2F_-Apartment" transform="translate(112.000000, 0.000000)">
						<g id="build">
							<g id="Group">
								<path id="Fill-57" fill="#FFA27B" d="M34.5,7.7H6.1C5.8,7.7,5.5,8,5.5,8.3v47.9c0,0.3,0.3,0.6,0.6,0.6h9.1
									c0.3,0,0.5-0.2,0.5-0.5V46.3c0-0.3,0.2-0.5,0.5-0.5h8.1c0.3,0,0.5,0.2,0.5,0.5v10.1c0,0.3,0.2,0.5,0.5,0.5h9.1
									c0.3,0,0.6-0.3,0.6-0.6V8.3C35.1,8,34.8,7.7,34.5,7.7z M25.2,15.7h3.8c0.3,0,0.5-0.2,0.5-0.5v-3.7c0-0.3-0.2-0.5-0.5-0.5
									h-3.8c-0.3,0-0.5,0.2-0.5,0.5v3.7C24.7,15.5,24.9,15.7,25.2,15.7z M25.2,22.4h3.8c0.3,0,0.5-0.2,0.5-0.5v-3.7
									c0-0.3-0.2-0.5-0.5-0.5h-3.8c-0.3,0-0.5,0.2-0.5,0.5v3.7C24.7,22.2,24.9,22.4,25.2,22.4z M18.5,15.7h3.8
									c0.3,0,0.5-0.2,0.5-0.5v-3.7c0-0.3-0.2-0.5-0.5-0.5h-3.8c-0.3,0-0.5,0.2-0.5,0.5v3.7C18,15.5,18.2,15.7,18.5,15.7z
									 M18.5,22.4h3.8c0.3,0,0.5-0.2,0.5-0.5v-3.7c0-0.3-0.2-0.5-0.5-0.5h-3.8c-0.3,0-0.5,0.2-0.5,0.5v3.7
									C18,22.2,18.2,22.4,18.5,22.4z M11.8,15.7h3.8c0.3,0,0.5-0.2,0.5-0.5v-3.7c0-0.3-0.2-0.5-0.5-0.5h-3.8
									c-0.3,0-0.5,0.2-0.5,0.5v3.7C11.3,15.5,11.5,15.7,11.8,15.7z M11.8,22.4h3.8c0.3,0,0.5-0.2,0.5-0.5v-3.7
									c0-0.3-0.2-0.5-0.5-0.5h-3.8c-0.3,0-0.5,0.2-0.5,0.5v3.7C11.3,22.2,11.5,22.4,11.8,22.4z M25.2,28.6h3.8
									c0.3,0,0.5-0.2,0.5-0.5v-3.7c0-0.3-0.2-0.5-0.5-0.5h-3.8c-0.3,0-0.5,0.2-0.5,0.5v3.7C24.7,28.4,24.9,28.6,25.2,28.6z
									 M18.5,28.6h3.8c0.3,0,0.5-0.2,0.5-0.5v-3.7c0-0.3-0.2-0.5-0.5-0.5h-3.8c-0.3,0-0.5,0.2-0.5,0.5v3.7
									C18,28.4,18.2,28.6,18.5,28.6z M11.8,28.6h3.8c0.3,0,0.5-0.2,0.5-0.5v-3.7c0-0.3-0.2-0.5-0.5-0.5h-3.8
									c-0.3,0-0.5,0.2-0.5,0.5v3.7C11.3,28.4,11.5,28.6,11.8,28.6z M25.2,34.8h3.8c0.3,0,0.5-0.2,0.5-0.5v-3.7
									c0-0.3-0.2-0.5-0.5-0.5h-3.8c-0.3,0-0.5,0.2-0.5,0.5v3.7C24.7,34.6,24.9,34.8,25.2,34.8z M18.5,34.8h3.8
									c0.3,0,0.5-0.2,0.5-0.5v-3.7c0-0.3-0.2-0.5-0.5-0.5h-3.8c-0.3,0-0.5,0.2-0.5,0.5v3.7C18,34.6,18.2,34.8,18.5,34.8z
									 M11.8,34.8h3.8c0.3,0,0.5-0.2,0.5-0.5v-3.7c0-0.3-0.2-0.5-0.5-0.5h-3.8c-0.3,0-0.5,0.2-0.5,0.5v3.7
									C11.3,34.6,11.5,34.8,11.8,34.8z M25.2,41h3.8c0.3,0,0.5-0.2,0.5-0.5v-3.7c0-0.3-0.2-0.5-0.5-0.5h-3.8
									c-0.3,0-0.5,0.2-0.5,0.5v3.7C24.7,40.8,24.9,41,25.2,41z M18.5,41h3.8c0.3,0,0.5-0.2,0.5-0.5v-3.7c0-0.3-0.2-0.5-0.5-0.5
									h-3.8c-0.3,0-0.5,0.2-0.5,0.5v3.7C18,40.8,18.2,41,18.5,41z M11.8,41h3.8c0.3,0,0.5-0.2,0.5-0.5v-3.7c0-0.3-0.2-0.5-0.5-0.5
									h-3.8c-0.3,0-0.5,0.2-0.5,0.5v3.7C11.3,40.8,11.5,41,11.8,41z"/>
								<path id="Combined-Shape" fill="#FFA27B" d="M65.9,20.5c0.3,0,0.6,0.3,0.6,0.6v35.1c0,0.3-0.3,0.6-0.6,0.6h-8.7
									c-0.3,0-0.5-0.2-0.5-0.5V46.3c0-0.3-0.2-0.5-0.5-0.5h-8.1c-0.3,0-0.5,0.2-0.5,0.5v10.1c0,0.3-0.2,0.5-0.5,0.5h-9.6
									c-0.3,0-0.6-0.3-0.6-0.6V21.1c0-0.3,0.3-0.6,0.6-0.6H65.9z M56.4,29.1h3.8c0.3,0,0.5-0.2,0.5-0.5v-3.7
									c0-0.3-0.2-0.5-0.5-0.5h-3.8c-0.3,0-0.5,0.2-0.5,0.5v3.7C55.9,28.9,56.1,29.1,56.4,29.1z M56.4,35.8h3.8
									c0.3,0,0.5-0.2,0.5-0.5v-3.7c0-0.3-0.2-0.5-0.5-0.5h-3.8c-0.3,0-0.5,0.2-0.5,0.5v3.7C55.9,35.6,56.1,35.8,56.4,35.8z
									 M49.7,29.1h3.8c0.3,0,0.5-0.2,0.5-0.5v-3.7c0-0.3-0.2-0.5-0.5-0.5h-3.8c-0.3,0-0.5,0.2-0.5,0.5v3.7
									C49.2,28.9,49.4,29.1,49.7,29.1z M49.7,35.8h3.8c0.3,0,0.5-0.2,0.5-0.5v-3.7c0-0.3-0.2-0.5-0.5-0.5h-3.8
									c-0.3,0-0.5,0.2-0.5,0.5v3.7C49.2,35.6,49.4,35.8,49.7,35.8z M42.9,29.1h3.8c0.3,0,0.5-0.2,0.5-0.5v-3.7
									c0-0.3-0.2-0.5-0.5-0.5h-3.8c-0.3,0-0.5,0.2-0.5,0.5v3.7C42.5,28.9,42.7,29.1,42.9,29.1z M42.9,35.8h3.8
									c0.3,0,0.5-0.2,0.5-0.5v-3.7c0-0.3-0.2-0.5-0.5-0.5h-3.8c-0.3,0-0.5,0.2-0.5,0.5v3.7C42.5,35.6,42.7,35.8,42.9,35.8z
									 M56.4,42h3.8c0.3,0,0.5-0.2,0.5-0.5v-3.7c0-0.3-0.2-0.5-0.5-0.5h-3.8c-0.3,0-0.5,0.2-0.5,0.5v3.7
									C55.9,41.8,56.1,42,56.4,42z M49.7,42h3.8c0.3,0,0.5-0.2,0.5-0.5v-3.7c0-0.3-0.2-0.5-0.5-0.5h-3.8c-0.3,0-0.5,0.2-0.5,0.5
									v3.7C49.2,41.8,49.4,42,49.7,42z M42.9,42h3.8c0.3,0,0.5-0.2,0.5-0.5v-3.7c0-0.3-0.2-0.5-0.5-0.5h-3.8
									c-0.3,0-0.5,0.2-0.5,0.5v3.7C42.5,41.8,42.7,42,42.9,42z"/>
								<path id="Fill-59" fill="#FFCCA5" d="M10,7h8.9c0.3,0,0.6-0.3,0.6-0.6V0.6c0-0.3-0.3-0.6-0.6-0.6H10C9.6,0,9.4,0.3,9.4,0.6
									v5.8C9.4,6.7,9.6,7,10,7"/>
								<path id="Fill-60" fill="#FFCCA5" d="M40,19.8h8.9c0.3,0,0.6-0.3,0.6-0.6v-5.8c0-0.3-0.3-0.6-0.6-0.6H40
									c-0.3,0-0.6,0.3-0.6,0.6v5.8C39.4,19.5,39.6,19.8,40,19.8"/>
								<path id="Fill-61" fill="#FFCCA5" d="M0.5,62.3h69.2c0.3,0,0.5-0.2,0.5-0.5v-2.6c0-0.3-0.2-0.5-0.5-0.5H0.5
									c-0.3,0-0.5,0.2-0.5,0.5v2.6C0,62.1,0.2,62.3,0.5,62.3z"/>
							</g>
						</g>
					</g>
				</g>
			</g>
		</g>
	</g>
</g>
</svg>
