<?xml version="1.0" encoding="utf-8"?>
<!-- Generator: Adobe Illustrator 19.2.1, SVG Export Plug-In . SVG Version: 6.00 Build 0)  -->
<svg version="1.1" id="Слой_1" xmlns="http://www.w3.org/2000/svg" xmlns:xlink="http://www.w3.org/1999/xlink" x="0px" y="0px"
	 viewBox="0 0 13.5 10.4" enable-background="new 0 0 13.5 10.4" xml:space="preserve">
<g>
	<path id="path-1" fill="#FFFFFF" d="M2.3,4.8c-0.5-0.5-1.4-0.5-1.9,0s-0.5,1.4,0,1.9L3.6,10c0.5,0.5,1.4,0.5,1.9,0l7.6-7.7
		c0.5-0.5,0.5-1.4,0-1.9s-1.4-0.5-1.9,0L4.6,7.1L2.3,4.8z"/>
</g>
<title>Mask</title>
<desc>Created with Sketch.</desc>
<g id="Symbols">
	<g id="Icon-_x2F_-24-PX-_x2F_-Check-Mark" transform="translate(-5.000000, -7.000000)">
		<g id="Check">
			<g id="Mask">
				<path id="path-1_1_" fill="#FFFFFF" d="M7.3,11.8c-0.5-0.5-1.4-0.5-1.9,0s-0.5,1.4,0,1.9L8.6,17c0.5,0.5,1.4,0.5,1.9,0l7.6-7.7
					c0.5-0.5,0.5-1.4,0-1.9s-1.4-0.5-1.9,0l-6.6,6.7L7.3,11.8z"/>
			</g>
		</g>
	</g>
</g>
</svg>
