<?xml version="1.0" encoding="utf-8"?>
<!-- Generator: Adobe Illustrator 19.2.1, SVG Export Plug-In . SVG Version: 6.00 Build 0)  -->
<svg version="1.1" id="Слой_1" xmlns="http://www.w3.org/2000/svg" xmlns:xlink="http://www.w3.org/1999/xlink" x="0px" y="0px"
	 viewBox="0 0 74.6 54.8" enable-background="new 0 0 74.6 54.8" xml:space="preserve">
<title>home</title>
<desc>Created with Sketch.</desc>
<g id="Page-1">
	<g id="_x30_1---DwellingType" transform="translate(-255.000000, -287.000000)">
		<g id="Selection" transform="translate(105.000000, 224.000000)">
			<g id="Home">
				<g id="Standalone-Home">
					<g id="Content" transform="translate(38.000000, 63.000000)">
						<g id="Home-Icon" transform="translate(112.000000, 0.000000)">
							<g id="home">
								<g id="Group-2">
									<path id="Fill-62" fill="#FFCCA5" d="M55.2,19.2H2c-1.7,0-2.6-1.9-1.6-3.2l6.4-8.5c0.4-0.5,1-0.8,1.6-0.8h40.4
										c0.6,0,1.2,0.3,1.6,0.8l6.4,8.5C57.8,17.3,56.8,19.2,55.2,19.2"/>
									<path id="Fill-63" fill="#FFA27B" d="M19.3,5.6h5.3c0.3,0,0.5-0.2,0.5-0.5V0.5c0-0.3-0.2-0.5-0.5-0.5h-5.3
										c-0.3,0-0.5,0.2-0.5,0.5V5C18.8,5.3,19,5.6,19.3,5.6z"/>
									<path id="Fill-65" fill="#FFA27B" d="M4.9,21.3v33c0,0.3,0.2,0.5,0.5,0.5h14c0.3,0,0.5-0.2,0.5-0.5V44
										c0-0.7,0.6-1.3,1.3-1.3h15c0.7,0,1.3,0.6,1.3,1.3v10.3c0,0.3,0.2,0.5,0.5,0.5h14c0.3,0,0.5-0.2,0.5-0.5v-33
										c0-0.6-0.5-1-1-1H5.9C5.4,20.3,4.9,20.7,4.9,21.3z M12.7,34.4h3.9c0.3,0,0.5-0.2,0.5-0.5v-3.9c0-0.3-0.2-0.5-0.5-0.5h-3.9
										c-0.3,0-0.5,0.2-0.5,0.5v3.9C12.2,34.1,12.4,34.4,12.7,34.4z M12.7,28.4h3.9c0.3,0,0.5-0.2,0.5-0.5v-3.9
										c0-0.3-0.2-0.5-0.5-0.5h-3.9c-0.3,0-0.5,0.2-0.5,0.5v3.9C12.2,28.1,12.4,28.4,12.7,28.4z M18.7,34.4h3.9
										c0.3,0,0.5-0.2,0.5-0.5v-3.9c0-0.3-0.2-0.5-0.5-0.5h-3.9c-0.3,0-0.5,0.2-0.5,0.5v3.9C18.2,34.1,18.4,34.4,18.7,34.4z
										 M18.7,28.4h3.9c0.3,0,0.5-0.2,0.5-0.5v-3.9c0-0.3-0.2-0.5-0.5-0.5h-3.9c-0.3,0-0.5,0.2-0.5,0.5v3.9
										C18.2,28.1,18.4,28.4,18.7,28.4z M34.6,34.4h3.9c0.3,0,0.5-0.2,0.5-0.5v-3.9c0-0.3-0.2-0.5-0.5-0.5h-3.9
										c-0.3,0-0.5,0.2-0.5,0.5v3.9C34.1,34.1,34.3,34.4,34.6,34.4z M34.6,28.4h3.9c0.3,0,0.5-0.2,0.5-0.5v-3.9
										c0-0.3-0.2-0.5-0.5-0.5h-3.9c-0.3,0-0.5,0.2-0.5,0.5v3.9C34.1,28.1,34.3,28.4,34.6,28.4z M40.6,34.4h3.9
										c0.3,0,0.5-0.2,0.5-0.5v-3.9c0-0.3-0.2-0.5-0.5-0.5h-3.9c-0.3,0-0.5,0.2-0.5,0.5v3.9C40.1,34.1,40.3,34.4,40.6,34.4z
										 M40.6,28.4h3.9c0.3,0,0.5-0.2,0.5-0.5v-3.9c0-0.3-0.2-0.5-0.5-0.5h-3.9c-0.3,0-0.5,0.2-0.5,0.5v3.9
										C40.1,28.1,40.3,28.4,40.6,28.4z"/>
									<path id="Fill-66" fill="#FFA27B" d="M72.8,33.7l-15-8.1c-1.6-0.9-3-0.2-3,1.5l0,6.7c0,0.5,0.4,0.8,0.8,0.8h18.2
										C73.6,34.3,73.2,33.9,72.8,33.7"/>
									<path id="Fill-67" fill="#FFCCA5" d="M54.8,51.7c0,1.7,1.4,3.1,3,3.1h15c1,0,1.8-1,1.8-2.3V37c-0.2-0.2-0.3-0.3-0.6-0.6
										H56.4c-0.9,0-1.6,0.7-1.6,1.6L54.8,51.7z M66.2,43.3H70c0.3,0,0.5-0.2,0.5-0.5v-3.8c0-0.3-0.2-0.5-0.5-0.5h-3.8
										c-0.3,0-0.5,0.2-0.5,0.5v3.8C65.7,43,65.9,43.3,66.2,43.3z M66.2,50H70c0.3,0,0.5-0.2,0.5-0.5v-3.8c0-0.3-0.2-0.5-0.5-0.5
										h-3.8c-0.3,0-0.5,0.2-0.5,0.5v3.8C65.7,49.7,65.9,50,66.2,50z M59.5,43.3h3.8c0.3,0,0.5-0.2,0.5-0.5v-3.8
										c0-0.3-0.2-0.5-0.5-0.5h-3.8c-0.3,0-0.5,0.2-0.5,0.5v3.8C58.9,43,59.2,43.3,59.5,43.3z M59.5,50h3.8c0.3,0,0.5-0.2,0.5-0.5
										v-3.8c0-0.3-0.2-0.5-0.5-0.5h-3.8c-0.3,0-0.5,0.2-0.5,0.5v3.8C58.9,49.7,59.2,50,59.5,50z"/>
								</g>
							</g>
						</g>
					</g>
				</g>
			</g>
		</g>
	</g>
</g>
</svg>
