<?xml version="1.0" encoding="utf-8"?>
<!-- Generator: Adobe Illustrator 21.1.0, SVG Export Plug-In . SVG Version: 6.00 Build 0)  -->
<svg version="1.1" id="Слой_1" xmlns="http://www.w3.org/2000/svg" xmlns:xlink="http://www.w3.org/1999/xlink" x="0px" y="0px"
	 viewBox="0 0 480 138" enable-background="new 0 0 480 138" xml:space="preserve">
<title>logo</title>
<desc>Created with Sketch.</desc>
<g id="Symbols">
	<g id="Brand-_x2F_-Logo-_x2F_-Green" transform="translate(-19.000000, -19.000000)">
		<g id="logo">
			<g id="Measured-Copy">
				<g id="Math_x2F_Measured">
					<g id="Oval">
						<path fill="#59C78A" d="M88.1,157c-24.1,0-46.8-12.8-59.2-33.5c-6.5-10.7-9.9-23-9.9-35.5c0-24.1,12.8-46.8,33.5-59.2
							c10.7-6.5,23-9.9,35.5-9.9c24.1,0,46.8,12.8,59.2,33.5c1.4,2.4,0.7,5.4-1.7,6.9c-2.4,1.4-5.4,0.7-6.9-1.7
							C127.8,39.7,108.9,29,87.9,29c-10.7,0-21.1,2.9-30.3,8.4C39.7,48.2,29,67.1,29,88.1c0,10.7,2.9,21.1,8.4,30.3
							C48.2,136.3,67.1,147,88.1,147c10.7,0,21.1-2.9,30.3-8.4c5.4-3.2,10.2-7.3,14.3-12c1.8-2.1,5-2.3,7.1-0.5
							c2.1,1.8,2.3,5,0.5,7.1c-4.8,5.5-10.4,10.3-16.7,14.1C112.8,153.6,100.5,157,88.1,157z"/>
					</g>
					<g id="Oval-Copy">
						<path fill="#59C78A" d="M88.4,121.4c-11.5,0-22.4-6.1-28.3-16c-3.1-5.1-4.7-11-4.7-17c0-11.5,6.1-22.4,16-28.3
							c5.1-3.1,11-4.7,17-4.7c11.5,0,22.4,6.1,28.3,16c1.4,2.4,0.7,5.4-1.7,6.9c-2.4,1.4-5.4,0.7-6.9-1.7
							c-4.2-7-11.6-11.2-19.7-11.2c-4.2,0-8.2,1.1-11.8,3.3c-7,4.2-11.2,11.6-11.2,19.7c0,4.2,1.1,8.2,3.3,11.8
							c4.2,7,11.6,11.2,19.7,11.2c4.2,0,8.2-1.1,11.8-3.3c4.3-2.6,7.6-6.4,9.5-11c1-2.6,4-3.8,6.5-2.8c2.6,1,3.8,4,2.8,6.5
							c-2.7,6.7-7.4,12.1-13.6,15.9C100.3,119.8,94.4,121.4,88.4,121.4z"/>
					</g>
					<g id="Oval-Copy-2">
						<path fill="#59C78A" d="M147.3,117.3c-0.8,0-1.7-0.2-2.4-0.6c-2.4-1.3-3.3-4.4-1.9-6.8c1.1-1.9,1.6-4.1,1.6-6.2
							c0-4.7-2.5-9-6.6-11.3c-1.9-1.1-4.1-1.6-6.2-1.6c-4.7,0-9,2.5-11.3,6.6c-0.3,0.6-0.6,1.3-0.9,1.9c-0.9,2.6-3.8,4-6.4,3
							c-2.6-0.9-4-3.8-3-6.4c0.4-1.2,0.9-2.3,1.5-3.4c4-7.3,11.7-11.8,20-11.8c3.9,0,7.7,1,11.1,2.9c7.3,4,11.8,11.7,11.8,20
							c0,3.9-1,7.7-2.9,11.1C150.8,116.4,149.1,117.3,147.3,117.3z"/>
					</g>
					<g id="cyrcle">
						<g>
							<g id="path-1">
								<path fill="#59C78A" d="M243.5,103.5l4,2.8c-3.5,5.1-10,11.8-22.4,11.8c-14.9,0-27.1-13.2-27.1-30s12.2-30,27.1-30
									c12.4,0,19,6,22.4,11l-4,2.8c-2.9-4-8.2-8.8-18.4-8.8C212.8,63,203,74.2,203,88s9.8,25,22.1,25
									C235.2,113,240.5,107.6,243.5,103.5z M280.2,108.5L299,59.6l0.6-1.6h5.4l-1.2,3.4l-21.1,55c-7.5,20.1-13.1,24.9-23.8,24.9
									h-2.5v-5h2.5c9,0,12.9-5.3,18.7-20.7l-21-54.1l-1.2-3.4h5.4l0.6,1.6L280.2,108.5z M324.7,69.3c5-7.5,13.5-11.3,23.5-11.3
									h2.5v5h-2.5c-13.6,0-23.4,8.8-23.5,24.4V118h-5V88c0-0.2,0-0.4,0-0.6V58h5V69.3z M403.2,103.5l4,2.8
									c-3.5,5.1-10,11.8-22.4,11.8c-14.9,0-27.1-13.2-27.1-30s12.2-30,27.1-30c12.4,0,19,6,22.4,11l-4,2.8
									c-2.9-4-8.2-8.8-18.4-8.8c-12.4,0-22.1,11.2-22.1,25s9.8,25,22.1,25C395,113,400.2,107.6,403.2,103.5z M423.6,118V30.5h5
									V118H423.6z M490.8,103l4,3c-3.8,5.2-10.8,12.1-23.8,12c-15.1,0-27.5-13.2-27.5-30s12.4-30,27.5-30c15,0,27.5,13.2,27.5,30
									v2.5h-49.9c1.1,12.6,10.5,22.5,22.4,22.5C481.8,113.1,487.5,107.5,490.8,103z M448.6,85.5h44.9c0-11.2-10-22.5-22.5-22.5
									C459.1,63,449.7,72.9,448.6,85.5z"/>
							</g>
						</g>
						<g>
							<g id="path-1_1_">
								<path d="M243.5,103.5l4,2.8c-3.5,5.1-10,11.8-22.4,11.8c-14.9,0-27.1-13.2-27.1-30s12.2-30,27.1-30c12.4,0,19,6,22.4,11
									l-4,2.8c-2.9-4-8.2-8.8-18.4-8.8C212.8,63,203,74.2,203,88s9.8,25,22.1,25C235.2,113,240.5,107.6,243.5,103.5z M280.2,108.5
									L299,59.6l0.6-1.6h5.4l-1.2,3.4l-21.1,55c-7.5,20.1-13.1,24.9-23.8,24.9h-2.5v-5h2.5c9,0,12.9-5.3,18.7-20.7l-21-54.1
									l-1.2-3.4h5.4l0.6,1.6L280.2,108.5z M324.7,69.3c5-7.5,13.5-11.3,23.5-11.3h2.5v5h-2.5c-13.6,0-23.4,8.8-23.5,24.4V118h-5
									V88c0-0.2,0-0.4,0-0.6V58h5V69.3z M403.2,103.5l4,2.8c-3.5,5.1-10,11.8-22.4,11.8c-14.9,0-27.1-13.2-27.1-30
									s12.2-30,27.1-30c12.4,0,19,6,22.4,11l-4,2.8c-2.9-4-8.2-8.8-18.4-8.8c-12.4,0-22.1,11.2-22.1,25s9.8,25,22.1,25
									C395,113,400.2,107.6,403.2,103.5z M423.6,118V30.5h5V118H423.6z M490.8,103l4,3c-3.8,5.2-10.8,12.1-23.8,12
									c-15.1,0-27.5-13.2-27.5-30s12.4-30,27.5-30c15,0,27.5,13.2,27.5,30v2.5h-49.9c1.1,12.6,10.5,22.5,22.4,22.5
									C481.8,113.1,487.5,107.5,490.8,103z M448.6,85.5h44.9c0-11.2-10-22.5-22.5-22.5C459.1,63,449.7,72.9,448.6,85.5z"/>
							</g>
						</g>
					</g>
				</g>
				<g id="Logo" transform="translate(197.000000, 33.000000)">
					<g id="Group-3">
					</g>
				</g>
				<g id="Group-2-Copy-2">
				</g>
				<g id="Group-4" transform="translate(197.000000, 30.000000)">
				</g>
			</g>
		</g>
	</g>
</g>
</svg>
