<?xml version="1.0" encoding="UTF-8"?>
<svg width="480px" height="138px" viewBox="0 0 480 138" version="1.1" xmlns="http://www.w3.org/2000/svg" xmlns:xlink="http://www.w3.org/1999/xlink">
    <!-- Generator: Sketch 49.1 (51147) - http://www.bohemiancoding.com/sketch -->
    <title>logo</title>
    <desc>Created with Sketch.</desc>
    <defs>
        <path d="M243.5,103.5 L247.5,106.25 C244,111.375 237.5,118 225.125,118 C210.25,118 198,104.75 198,88 C198,71.25 210.25,58 225.125,58 C237.5,58 244.125,64 247.5,69 L243.5,71.75 C240.625,67.75 235.25,63 225.125,63 C212.75,63 203,74.25 203,88 C203,101.75 212.75,113 225.125,113 C235.25,113 240.5,107.625 243.5,103.5 Z M280.164688,108.533718 L298.950082,59.625 L299.575082,58 L304.950082,58 L303.700082,61.375 L282.575082,116.375 C275.075082,136.5 269.450082,141.25 258.825082,141.25 L256.325082,141.25 L256.325082,136.25 L258.825082,136.25 C267.77984,136.25 271.678665,130.953312 277.491428,115.516472 L256.450082,61.375 L255.200082,58 L260.575082,58 L261.200082,59.625 L280.164688,108.533718 Z M324.650165,69.3454514 C329.674638,61.8947754 338.10099,58 348.150165,58 L350.650165,58 L350.650165,63 L348.150165,63 C334.572481,62.9999962 324.773281,71.7758331 324.650165,87.401762 L324.650165,118 L319.650165,118 L319.650165,88 C319.650165,87.8005829 319.648891,87.602108 319.650165,87.4045753 L319.650165,58 L324.650165,58 L324.650165,69.3454514 Z M403.225247,103.5 L407.225247,106.25 C403.725247,111.375 397.225247,118 384.850247,118 C369.975247,118 357.725247,104.75 357.725247,88 C357.725247,71.25 369.975247,58 384.850247,58 C397.225247,58 403.850247,64 407.225247,69 L403.225247,71.75 C400.350247,67.75 394.975247,63 384.850247,63 C372.475247,63 362.725247,74.25 362.725247,88 C362.725247,101.75 372.475247,113 384.850247,113 C394.975247,113 400.225247,107.625 403.225247,103.5 Z M423.55033,118 L423.55033,30.5 L428.55033,30.5 L428.55033,118 L423.55033,118 Z M490.750412,103 L494.750412,106 C491.000412,111.25 484.000412,118.125 471.000412,118 C455.875412,118 443.500412,104.75 443.500412,88 C443.500412,71.25 455.875412,58 471.000412,58 C486.000412,58 498.500412,71.25 498.500412,88 L498.500412,90.5 L448.61023,90.5 C449.722207,103.087803 459.149819,113 471.000412,113 C481.750412,113.125 487.500412,107.5 490.750412,103 Z M448.61023,85.5 L493.500412,85.5 C493.500412,74.25 483.500412,63 471.000412,63 C459.149819,63 449.722207,72.9121971 448.61023,85.5 Z" id="path-1"></path>
    </defs>
    <g id="Symbols" stroke="none" stroke-width="1" fill="none" fill-rule="evenodd">
        <g id="Brand-/-Logo-/-Green" transform="translate(-19.000000, -19.000000)">
            <g id="logo">
                <g id="Measured-Copy">
                    <g id="Math/Measured">
                        <path d="M88,152 C123.346224,152 152,123.346224 152,88 C152,52.653776 123.346224,24 88,24 C52.653776,24 24,52.653776 24,88 C24,123.346224 52.653776,152 88,152 Z" id="Oval" stroke="#59C78A" stroke-width="10" stroke-linecap="round" stroke-linejoin="round" stroke-dasharray="322,10003" transform="translate(88.000000, 88.000000) rotate(-121.000000) translate(-88.000000, -88.000000) "></path>
                        <path d="M88.4217505,116.421751 C103.885724,116.421751 116.421751,103.885724 116.421751,88.4217505 C116.421751,72.9577775 103.885724,60.4217505 88.4217505,60.4217505 C72.9577775,60.4217505 60.4217505,72.9577775 60.4217505,88.4217505 C60.4217505,103.885724 72.9577775,116.421751 88.4217505,116.421751 Z" id="Oval-Copy" stroke="#59C78A" stroke-width="10" stroke-linecap="round" stroke-linejoin="round" stroke-dasharray="150,10003" transform="translate(88.421751, 88.421751) rotate(-121.000000) translate(-88.421751, -88.421751) "></path>
                        <path d="M131.690699,121.542116 C141.549765,121.542116 149.542116,113.549765 149.542116,103.690699 C149.542116,93.8316339 141.549765,85.8392823 131.690699,85.8392823 C121.831634,85.8392823 113.839282,93.8316339 113.839282,103.690699 C113.839282,113.549765 121.831634,121.542116 131.690699,121.542116 Z" id="Oval-Copy-2" stroke="#59C78A" stroke-width="10" stroke-linecap="round" stroke-linejoin="round" stroke-dasharray="59,10003" transform="translate(131.690699, 103.690699) rotate(-61.000000) translate(-131.690699, -103.690699) "></path>
                        <g id="cyrcle">
                            <use fill="#59C78A" fill-rule="evenodd" xlink:href="#path-1"></use>
                            <use fill="black" fill-opacity="1" xlink:href="#path-1"></use>
                        </g>
                    </g>
                    <g id="Logo" transform="translate(197.000000, 33.000000)">
                        <g id="Group-3"></g>
                    </g>
                    <g id="Group-2-Copy-2"></g>
                    <g id="Group-4" transform="translate(197.000000, 30.000000)"></g>
                </g>
            </g>
        </g>
    </g>
</svg>