<?xml version="1.0" encoding="UTF-8"?>
<svg width="33px" height="22px" viewBox="0 0 33 22" version="1.1" xmlns="http://www.w3.org/2000/svg" xmlns:xlink="http://www.w3.org/1999/xlink">
    <!-- Generator: Sketch 49.1 (51147) - http://www.bohemiancoding.com/sketch -->
    <title>amex</title>
    <desc>Created with Sketch.</desc>
    <defs></defs>
    <g id="Page-1" stroke="none" stroke-width="1" fill="none" fill-rule="evenodd">
        <g id="06a---Checkout-Copy" transform="translate(-818.000000, -214.000000)">
            <g id="cards" transform="translate(738.000000, 214.000000)">
                <g id="amex" transform="translate(80.000000, 0.000000)">
                    <g id="credit-cards_amex" transform="translate(0.470588, 0.000000)">
                        <g id="Layer_1" fill-rule="nonzero">
                            <path d="M1.32352941,0 L30.4411765,0 C31.1691176,0 31.7647059,0.560553633 31.7647059,1.24567474 L31.7647059,19.9307958 C31.7647059,20.615917 31.1691176,21.1764706 30.4411765,21.1764706 L1.32352941,21.1764706 C0.595588235,21.1764706 0,20.615917 0,19.9307958 L0,1.24567474 C0,0.560553633 0.595588235,0 1.32352941,0 Z" id="Shape" fill="#2AA0D0"></path>
                            <path d="M21.8382353,8.09688581 L17.8676471,8.09688581 C17.7022059,8.09688581 17.5367647,8.22145329 17.5367647,8.37716263 C17.5367647,8.22145329 17.3713235,8.09688581 17.2058824,8.09688581 L15.2867647,8.09688581 C15.1544118,8.09688581 15.0220588,8.15916955 14.9889706,8.28373702 L13.9301471,10.7750865 L12.6066176,8.25259516 C12.5404412,8.15916955 12.4411765,8.06574394 12.3088235,8.06574394 L10.5882353,8.06574394 C10.3897059,8.06574394 10.2573529,8.19031142 10.2573529,8.37716263 L10.2573529,11.3044983 L8.80147059,8.25259516 C8.73529412,8.12802768 8.63602941,8.06574394 8.50367647,8.06574394 L6.75,8.06574394 C6.61764706,8.06574394 6.51838235,8.12802768 6.45220588,8.25259516 L4.16911765,12.9238754 C4.13602941,13.017301 4.13602941,13.1418685 4.20220588,13.2352941 C4.26838235,13.3287197 4.36764706,13.3910035 4.46691176,13.3910035 L5.88970588,13.3910035 C6.02205882,13.3910035 6.15441176,13.3287197 6.1875,13.2041522 L6.68382353,12.1453287 L8.50367647,12.1453287 L8.96691176,13.2041522 C9.03308824,13.3287197 9.13235294,13.3910035 9.26470588,13.3910035 L11.9117647,13.3910035 C12.1102941,13.3910035 12.2426471,13.266436 12.2426471,13.0795848 L12.2426471,11.3044983 L13.0698529,13.2041522 C13.1360294,13.3287197 13.2352941,13.3910035 13.3676471,13.3910035 L14.3933824,13.3910035 C14.5257353,13.3910035 14.6580882,13.3287197 14.6911765,13.2041522 L15.5514706,11.2733564 L15.5514706,13.0795848 C15.5514706,13.266436 15.6838235,13.3910035 15.8823529,13.3910035 L17.2058824,13.3910035 C17.3713235,13.3910035 17.5367647,13.266436 17.5367647,13.1107266 C17.5367647,13.266436 17.7022059,13.3910035 17.8676471,13.3910035 L21.8382353,13.3910035 C22.0367647,13.3910035 22.1691176,13.266436 22.1691176,13.0795848 L22.1691176,12.1453287 C22.1691176,11.9584775 22.0367647,11.83391 21.8382353,11.83391 L19.5220588,11.83391 L19.5220588,11.5224913 L21.7720588,11.5224913 C21.9705882,11.5224913 22.1029412,11.3979239 22.1029412,11.2110727 L22.1029412,10.2768166 C22.1029412,10.0899654 21.9705882,9.96539792 21.7720588,9.96539792 L19.5220588,9.96539792 L19.5220588,9.65397924 L21.8382353,9.65397924 C22.0367647,9.65397924 22.1691176,9.52941176 22.1691176,9.34256055 L22.1691176,8.4083045 C22.1691176,8.25259516 22.0036765,8.09688581 21.8382353,8.09688581 Z M7.3125,10.5882353 L7.61029412,9.96539792 L7.90808824,10.5882353 L7.3125,10.5882353 Z" id="Shape" fill="#2AA0D0"></path>
                            <path d="M27.3639706,12.1141869 L26.0404412,10.7750865 L27.3639706,9.43598616 C27.4301471,9.37370242 27.4632353,9.31141869 27.4632353,9.21799308 L27.4632353,8.4083045 C27.4632353,8.31487889 27.4301471,8.25259516 27.3639706,8.19031142 C27.2977941,8.12802768 27.2316176,8.09688581 27.1323529,8.09688581 L26.2389706,8.09688581 C26.1397059,8.09688581 26.0404412,8.12802768 25.9742647,8.19031142 L24.8161765,9.4982699 L23.625,8.22145329 C23.5588235,8.12802768 23.4926471,8.09688581 23.3933824,8.09688581 L22.5,8.09688581 C22.3014706,8.09688581 22.1691176,8.22145329 22.1691176,8.4083045 L22.1691176,13.0795848 C22.1691176,13.266436 22.3014706,13.3910035 22.5,13.3910035 L23.2941176,13.3910035 C23.3933824,13.3910035 23.4595588,13.3598616 23.5257353,13.2975779 L24.7830882,12.0519031 L26.0404412,13.2975779 C26.1066176,13.3598616 26.2058824,13.3910035 26.2720588,13.3910035 L27.1323529,13.3910035 C27.2316176,13.3910035 27.2977941,13.3598616 27.3639706,13.2975779 C27.4301471,13.2352941 27.4632353,13.1730104 27.4632353,13.0795848 L27.4632353,12.3321799 C27.4632353,12.2387543 27.4301471,12.1764706 27.3639706,12.1141869 Z M22.8308824,11.5224913 L22.8308824,9.99653979 L23.5919118,10.7439446 L22.8308824,11.5224913 Z" id="Shape" fill="#2AA0D0"></path>
                            <polygon id="Shape" fill="#FFFFFF" points="6.81617647 10.899654 8.40441176 10.899654 7.61029412 9.21799308"></polygon>
                            <polygon id="Shape" fill="#FFFFFF" points="22.5 12.3321799 24.0551471 10.7750865 22.5 9.21799308"></polygon>
                            <path d="M27.6286765,11.8961938 L26.5036765,10.7750865 L27.6286765,9.65397924 C27.7279412,9.52941176 27.7941176,9.37370242 27.7941176,9.21799308 L27.7941176,8.4083045 C27.7941176,8.25259516 27.7279412,8.09688581 27.5955882,7.97231834 C27.4632353,7.84775087 27.2977941,7.78546713 27.1323529,7.78546713 L26.2389706,7.78546713 C26.0404412,7.78546713 25.875,7.84775087 25.7426471,8.00346021 L24.8161765,9 L23.8897059,8.00346021 C23.7573529,7.87889273 23.5919118,7.78546713 23.3933824,7.78546713 L22.5,7.78546713 C22.3676471,7.78546713 22.2683824,7.816609 22.1691176,7.87889273 C22.0698529,7.816609 21.9705882,7.78546713 21.8382353,7.78546713 L17.8676471,7.78546713 C17.7352941,7.78546713 17.6360294,7.816609 17.5367647,7.87889273 C17.4375,7.816609 17.3382353,7.78546713 17.2058824,7.78546713 L15.2867647,7.78546713 C15.0220588,7.78546713 14.7573529,7.94117647 14.6580882,8.19031142 L13.8639706,10.0588235 L12.8713235,8.15916955 C12.7720588,7.94117647 12.5404412,7.816609 12.2757353,7.816609 L10.5882353,7.816609 C10.2242647,7.816609 9.92647059,8.09688581 9.92647059,8.43944637 L9.92647059,9.90311419 L9.09926471,8.19031142 C9,7.97231834 8.76838235,7.816609 8.50367647,7.816609 L6.75,7.816609 C6.48529412,7.816609 6.25367647,7.97231834 6.15441176,8.19031142 L3.87132353,12.8615917 C3.77205882,13.0484429 3.80514706,13.266436 3.90441176,13.4532872 C4.03676471,13.6401384 4.23529412,13.733564 4.46691176,13.733564 L5.88970588,13.733564 C6.15441176,13.733564 6.38602941,13.5778547 6.48529412,13.3598616 L6.88235294,12.4878893 L8.27205882,12.4878893 L8.63602941,13.3598616 C8.73529412,13.6089965 8.96691176,13.7647059 9.26470588,13.7647059 L11.9117647,13.7647059 C12.2757353,13.7647059 12.5735294,13.4844291 12.5735294,13.1418685 L12.5735294,12.9238754 L12.7720588,13.3910035 C12.8713235,13.6089965 13.1029412,13.7647059 13.3676471,13.7647059 L14.3933824,13.7647059 C14.6580882,13.7647059 14.8897059,13.6089965 15.0220588,13.3910035 L15.2205882,12.9238754 L15.2205882,13.0795848 C15.2205882,13.4221453 15.5183824,13.7024221 15.8823529,13.7024221 L17.2058824,13.7024221 C17.3382353,13.7024221 17.4375,13.6712803 17.5367647,13.6089965 C17.6360294,13.6712803 17.7352941,13.7024221 17.8676471,13.7024221 L21.8382353,13.7024221 C21.9705882,13.7024221 22.0698529,13.6712803 22.1691176,13.6089965 C22.2683824,13.6712803 22.3676471,13.7024221 22.5,13.7024221 L23.2941176,13.7024221 C23.4595588,13.7024221 23.6580882,13.6401384 23.7904412,13.5155709 L24.8161765,12.4878893 L25.8419118,13.5155709 C25.9742647,13.6401384 26.1397059,13.7024221 26.3382353,13.7024221 L27.1323529,13.7024221 C27.2977941,13.7024221 27.4632353,13.6401384 27.5955882,13.5155709 C27.7279412,13.3910035 27.7941176,13.2352941 27.7941176,13.0795848 L27.7941176,12.3321799 C27.7941176,12.1764706 27.7279412,12.0207612 27.6286765,11.8961938 Z M17.2058824,13.0795848 L15.8823529,13.0795848 L15.8823529,9.68512111 L14.3933824,13.0795848 L13.3676471,13.0795848 L11.9117647,9.71626298 L11.9117647,13.0795848 L9.26470588,13.0795848 L8.73529412,11.83391 L6.48529412,11.83391 L5.92279412,13.0795848 L4.5,13.0795848 L6.78308824,8.4083045 L8.53676471,8.4083045 L10.6213235,12.7681661 L10.6213235,8.4083045 L12.3088235,8.4083045 L13.9632353,11.5536332 L15.2867647,8.4083045 L17.2058824,8.4083045 L17.2058824,13.0795848 Z M21.8382353,9.34256055 L19.1911765,9.34256055 L19.1911765,10.2768166 L21.7720588,10.2768166 L21.7720588,11.2110727 L19.1911765,11.2110727 L19.1911765,12.1453287 L21.8382353,12.1453287 L21.8382353,13.0795848 L17.8676471,13.0795848 L17.8676471,8.4083045 L21.8382353,8.4083045 L21.8382353,9.34256055 Z M26.3382353,13.0795848 L24.8161765,11.5847751 L23.2941176,13.0795848 L22.5,13.0795848 L22.5,8.4083045 L23.3933824,8.4083045 L24.8161765,9.96539792 L26.2389706,8.4083045 L27.1323529,8.4083045 L27.1323529,9.21799308 L25.5772059,10.7750865 L27.1323529,12.3321799 L27.1323529,13.0795848 L26.3382353,13.0795848 Z" id="Shape" fill="#FFFFFF"></path>
                            <path d="M1.32352941,21.1764706 L1.91911765,21.1764706 L31.7647059,1.80622837 L31.7647059,1.24567474 C31.7647059,0.560553633 31.1691176,0 30.4411765,0 L1.32352941,0 C0.595588235,0 0,0.560553633 0,1.24567474 L0,19.9307958 C0,20.615917 0.595588235,21.1764706 1.32352941,21.1764706 Z" id="Shape" fill="#FFFFFF" opacity="0.05"></path>
                        </g>
                    </g>
                </g>
            </g>
        </g>
    </g>
</svg>