<?xml version="1.0" encoding="UTF-8"?>
<svg width="71px" height="76px" viewBox="0 0 71 76" version="1.1" xmlns="http://www.w3.org/2000/svg" xmlns:xlink="http://www.w3.org/1999/xlink">
    <!-- Generator: Sketch 49.1 (51147) - http://www.bohemiancoding.com/sketch -->
    <title>baskets</title>
    <desc>Created with Sketch.</desc>
    <defs>
        <ellipse id="path-1" cx="28.3875" cy="68.7748509" rx="6.2625" ry="6.22514911"></ellipse>
        <ellipse id="path-2" cx="41.175" cy="16.1779324" rx="3.825" ry="3.80218688"></ellipse>
        <polygon id="path-3" points="0 0 25.5047619 0 21.7904762 24.5882353 3.71428571 24.5882353"></polygon>
    </defs>
    <g id="Page-1" stroke="none" stroke-width="1" fill="none" fill-rule="evenodd">
        <g id="05a---Bin-Type" transform="translate(-696.000000, -250.000000)">
            <g id="Selection-Copy" transform="translate(544.000000, 224.000000)">
                <g id="Home">
                    <g id="Standalone-Home">
                        <g id="Left-Col">
                            <g id="baskets" transform="translate(152.000000, 27.000000)">
                                <g id="Group">
                                    <g id="Cart">
                                        <path d="M1.44427044,12.1509689 L1.03067422,15.50807 C1.02060632,15.5898009 1.07870061,15.6642185 1.16043147,15.6742864 C1.16044992,15.6742886 1.16046837,15.6742909 1.16048681,15.6742932 L39.5625,20.390159 L40.3669237,17.0178234 C40.3955843,16.8976715 40.3214159,16.7770351 40.201264,16.7483745 C40.1931176,16.7464313 40.1848685,16.7449472 40.1765556,16.7439292 L1.61048684,12.0212117 C1.52879,12.0112071 1.45443873,12.0692922 1.44437589,12.1509819 Z" id="Path-7" fill="#FFA27B"></path>
                                        <path d="M4.97441678,6.97136757 L41.6945211,6.97136757 L41.6945211,10.177133 L2.66328358,10.177133 L2.66328358,9.28250077 C2.66328358,8.00609714 3.69801316,6.97136757 4.97441678,6.97136757 Z" id="Rectangle-5" fill="#FFA27B" transform="translate(22.178902, 8.574250) rotate(19.000000) translate(-22.178902, -8.574250) "></path>
                                        <path d="M31.4293839,60.9728705 C30.4641269,60.5951433 29.4126873,60.387674 28.3125,60.387674 C23.6111761,60.387674 19.8,64.1761194 19.8,68.8494036 C19.8,69.0634977 19.8079988,69.2757348 19.8237155,69.4858356 L2.1219419,67.515778 C0.949700319,67.3853174 0.0802440878,66.366961 0.135173247,65.1887619 L2.4375,15.805169 L39.5625,20.27833 L31.4293839,60.9728705 Z" id="Combined-Shape" fill="#FFCCA5"></path>
                                        <g id="Oval-4-Copy">
                                            <use fill="#FFFFFF" fill-rule="evenodd" xlink:href="#path-1"></use>
                                            <ellipse stroke="#FFA27B" stroke-width="2.23658052" cx="28.3875" cy="68.7748509" rx="5.14420974" ry="5.10685885"></ellipse>
                                        </g>
                                        <g id="Oval-5">
                                            <use fill="#FFCCA5" fill-rule="evenodd" xlink:href="#path-2"></use>
                                            <ellipse stroke="#FFA27B" stroke-width="1.49105368" cx="41.175" cy="16.1779324" rx="3.07947316" ry="3.05666004"></ellipse>
                                        </g>
                                        <path d="M16.1625,4.84592445 L17.1850312,2.20319957 C17.66133,0.972208872 19.0241699,0.336417091 20.2734709,0.762381431 L29.8770464,4.03683709 C31.1630984,4.47533214 31.850179,5.87335375 31.411684,7.15940575 C31.406691,7.17404947 31.40156,7.18864577 31.3962917,7.20319269 L30.225,10.4373757" id="Path-9" stroke="#FFA27B" stroke-width="2.23658052" stroke-linecap="square"></path>
                                    </g>
                                    <g id="Group-9" transform="translate(45.000000, 37.000000)">
                                        <path d="M24.1881604,13.6860176 C23.4191518,6.59294997 18.6358959,1.24183007 13.014762,1.24183007 C7.39362815,1.24183007 2.6103723,6.59294997 1.84136366,13.6860176 L24.1881604,13.6860176 Z M25.4329057,13.6860176 C25.4356758,13.713256 25.4383903,13.7405162 25.4410489,13.767798 L24.3278858,14.9278477 L24.2804628,14.9278476 C24.2634073,14.5085888 24.2324377,14.0944158 24.1881604,13.6860176 L25.4329057,13.6860176 Z M0.510000136,14.9278477 C0.826989474,6.61651903 6.30431934,0 13.014762,0 C19.7252047,0 25.2025346,6.61651903 25.5195239,14.9278477 L0.510000136,14.9278477 Z" id="Combined-Shape" fill="#FFA27B" fill-rule="nonzero"></path>
                                        <g id="Rectangle-2-Copy" transform="translate(0.247619, 13.411765)">
                                            <mask id="mask-4" fill="white">
                                                <use xlink:href="#path-3"></use>
                                            </mask>
                                            <use id="Mask" fill="#FFCCA5" xlink:href="#path-3"></use>
                                            <polygon fill="#FFA27B" mask="url(#mask-4)" points="0 0 12.752381 0 12.752381 24.5882353 1.85714286 24.5882353"></polygon>
                                        </g>
                                        <rect id="Rectangle-2" fill="#FFFFFF" x="24.7619048" y="11.6732026" width="1.23809524" height="3.47712418" rx="0.619047619"></rect>
                                        <rect id="Rectangle-2-Copy-2" fill="#FFFFFF" x="0" y="11.6732026" width="1.23809524" height="3.47712418" rx="0.619047619"></rect>
                                    </g>
                                </g>
                            </g>
                        </g>
                    </g>
                </g>
            </g>
        </g>
    </g>
</svg>