<?xml version="1.0" encoding="UTF-8"?>
<svg width="71px" height="63px" viewBox="0 0 71 63" version="1.1" xmlns="http://www.w3.org/2000/svg" xmlns:xlink="http://www.w3.org/1999/xlink">
    <!-- Generator: Sketch 49.1 (51147) - http://www.bohemiancoding.com/sketch -->
    <title>build</title>
    <desc>Created with Sketch.</desc>
    <defs></defs>
    <g id="Symbols" stroke="none" stroke-width="1" fill="none" fill-rule="evenodd">
        <g id="build">
            <g id="Group">
                <g>
                    <path d="M34.8429492,8.03826329 L6.51154237,8.03826329 C6.17338983,8.03826329 5.89661017,8.30893997 5.89661017,8.64668696 L5.89661017,56.5923885 C5.89661017,56.9277401 6.17338983,57.2020099 6.51154237,57.2020099 L15.6557225,57.2020099 C15.9197836,57.2020099 16.1338475,56.987946 16.1338475,56.7238849 L16.1338475,46.6482639 C16.1338475,46.3842028 16.3479113,46.1701389 16.6119725,46.1701389 L24.7425191,46.1701389 C25.0065802,46.1701389 25.2206441,46.3842028 25.2206441,46.6482639 L25.2206441,56.7238849 C25.2206441,56.987946 25.4347079,57.2020099 25.6987691,57.2020099 L34.8429492,57.2020099 C35.1823051,57.2020099 35.4578814,56.9277401 35.4578814,56.5923885 L35.4578814,8.64668696 C35.4578814,8.30893997 35.1823051,8.03826329 34.8429492,8.03826329 Z M25.5639244,16.0669091 L29.3153354,16.0669091 C29.5793965,16.0669091 29.7934604,15.8528452 29.7934604,15.5887841 L29.7934604,11.8572974 C29.7934604,11.5932362 29.5793965,11.3791724 29.3153354,11.3791724 L25.5639244,11.3791724 C25.2998632,11.3791724 25.0857994,11.5932362 25.0857994,11.8572974 L25.0857994,15.5887841 C25.0857994,15.8528452 25.2998632,16.0669091 25.5639244,16.0669091 Z M25.5639244,22.7487273 L29.3153354,22.7487273 C29.5793965,22.7487273 29.7934604,22.5346634 29.7934604,22.2706023 L29.7934604,18.5391156 C29.7934604,18.2750544 29.5793965,18.0609906 29.3153354,18.0609906 L25.5639244,18.0609906 C25.2998632,18.0609906 25.0857994,18.2750544 25.0857994,18.5391156 L25.0857994,22.2706023 C25.0857994,22.5346634 25.2998632,22.7487273 25.5639244,22.7487273 Z M18.8477081,16.0669091 L22.6039327,16.0669091 C22.8679939,16.0669091 23.0820577,15.8528452 23.0820577,15.5887841 L23.0820577,11.8572974 C23.0820577,11.5932362 22.8679939,11.3791724 22.6039327,11.3791724 L18.8477081,11.3791724 C18.583647,11.3791724 18.3695831,11.5932362 18.3695831,11.8572974 L18.3695831,15.5887841 C18.3695831,15.8528452 18.583647,16.0669091 18.8477081,16.0669091 Z M18.8477081,22.7487273 L22.6039327,22.7487273 C22.8679939,22.7487273 23.0820577,22.5346634 23.0820577,22.2706023 L23.0820577,18.5391156 C23.0820577,18.2750544 22.8679939,18.0609906 22.6039327,18.0609906 L18.8477081,18.0609906 C18.583647,18.0609906 18.3695831,18.2750544 18.3695831,18.5391156 L18.3695831,22.2706023 C18.3695831,22.5346634 18.583647,22.7487273 18.8477081,22.7487273 Z M12.1314919,16.0669091 L15.8865131,16.0669091 C16.1505743,16.0669091 16.3646381,15.8528452 16.3646381,15.5887841 L16.3646381,11.8572974 C16.3646381,11.5932362 16.1505743,11.3791724 15.8865131,11.3791724 L12.1314919,11.3791724 C11.8674308,11.3791724 11.6533669,11.5932362 11.6533669,11.8572974 L11.6533669,15.5887841 C11.6533669,15.8528452 11.8674308,16.0669091 12.1314919,16.0669091 Z M12.1314919,22.7487273 L15.8865131,22.7487273 C16.1505743,22.7487273 16.3646381,22.5346634 16.3646381,22.2706023 L16.3646381,18.5391156 C16.3646381,18.2750544 16.1505743,18.0609906 15.8865131,18.0609906 L12.1314919,18.0609906 C11.8674308,18.0609906 11.6533669,18.2750544 11.6533669,18.5391156 L11.6533669,22.2706023 C11.6533669,22.5346634 11.8674308,22.7487273 12.1314919,22.7487273 Z M25.5639244,28.9532727 L29.3153354,28.9532727 C29.5793965,28.9532727 29.7934604,28.7392089 29.7934604,28.4751477 L29.7934604,24.743661 C29.7934604,24.4795999 29.5793965,24.265536 29.3153354,24.265536 L25.5639244,24.265536 C25.2998632,24.265536 25.0857994,24.4795999 25.0857994,24.743661 L25.0857994,28.4751477 C25.0857994,28.7392089 25.2998632,28.9532727 25.5639244,28.9532727 Z M18.8477081,28.9532727 L22.6039327,28.9532727 C22.8679939,28.9532727 23.0820577,28.7392089 23.0820577,28.4751477 L23.0820577,24.743661 C23.0820577,24.4795999 22.8679939,24.265536 22.6039327,24.265536 L18.8477081,24.265536 C18.583647,24.265536 18.3695831,24.4795999 18.3695831,24.743661 L18.3695831,28.4751477 C18.3695831,28.7392089 18.583647,28.9532727 18.8477081,28.9532727 Z M12.1314919,28.9532727 L15.8865131,28.9532727 C16.1505743,28.9532727 16.3646381,28.7392089 16.3646381,28.4751477 L16.3646381,24.743661 C16.3646381,24.4795999 16.1505743,24.265536 15.8865131,24.265536 L12.1314919,24.265536 C11.8674308,24.265536 11.6533669,24.4795999 11.6533669,24.743661 L11.6533669,28.4751477 C11.6533669,28.7392089 11.8674308,28.9532727 12.1314919,28.9532727 Z M25.5639244,35.1578182 L29.3153354,35.1578182 C29.5793965,35.1578182 29.7934604,34.9437543 29.7934604,34.6796932 L29.7934604,30.9482065 C29.7934604,30.6841453 29.5793965,30.4700815 29.3153354,30.4700815 L25.5639244,30.4700815 C25.2998632,30.4700815 25.0857994,30.6841453 25.0857994,30.9482065 L25.0857994,34.6796932 C25.0857994,34.9437543 25.2998632,35.1578182 25.5639244,35.1578182 Z M18.8477081,35.1578182 L22.6039327,35.1578182 C22.8679939,35.1578182 23.0820577,34.9437543 23.0820577,34.6796932 L23.0820577,30.9482065 C23.0820577,30.6841453 22.8679939,30.4700815 22.6039327,30.4700815 L18.8477081,30.4700815 C18.583647,30.4700815 18.3695831,30.6841453 18.3695831,30.9482065 L18.3695831,34.6796932 C18.3695831,34.9437543 18.583647,35.1578182 18.8477081,35.1578182 Z M12.1314919,35.1578182 L15.8865131,35.1578182 C16.1505743,35.1578182 16.3646381,34.9437543 16.3646381,34.6796932 L16.3646381,30.9482065 C16.3646381,30.6841453 16.1505743,30.4700815 15.8865131,30.4700815 L12.1314919,30.4700815 C11.8674308,30.4700815 11.6533669,30.6841453 11.6533669,30.9482065 L11.6533669,34.6796932 C11.6533669,34.9437543 11.8674308,35.1578182 12.1314919,35.1578182 Z M25.5639244,41.3623636 L29.3153354,41.3623636 C29.5793965,41.3623636 29.7934604,41.1482998 29.7934604,40.8842386 L29.7934604,37.1527519 C29.7934604,36.8886908 29.5793965,36.6746269 29.3153354,36.6746269 L25.5639244,36.6746269 C25.2998632,36.6746269 25.0857994,36.8886908 25.0857994,37.1527519 L25.0857994,40.8842386 C25.0857994,41.1482998 25.2998632,41.3623636 25.5639244,41.3623636 Z M18.8477081,41.3623636 L22.6039327,41.3623636 C22.8679939,41.3623636 23.0820577,41.1482998 23.0820577,40.8842386 L23.0820577,37.1527519 C23.0820577,36.8886908 22.8679939,36.6746269 22.6039327,36.6746269 L18.8477081,36.6746269 C18.583647,36.6746269 18.3695831,36.8886908 18.3695831,37.1527519 L18.3695831,40.8842386 C18.3695831,41.1482998 18.583647,41.3623636 18.8477081,41.3623636 Z M12.1314919,41.3623636 L15.8865131,41.3623636 C16.1505743,41.3623636 16.3646381,41.1482998 16.3646381,40.8842386 L16.3646381,37.1527519 C16.3646381,36.8886908 16.1505743,36.6746269 15.8865131,36.6746269 L12.1314919,36.6746269 C11.8674308,36.6746269 11.6533669,36.8886908 11.6533669,37.1527519 L11.6533669,40.8842386 C11.6533669,41.1482998 11.8674308,41.3623636 12.1314919,41.3623636 Z" id="Fill-57" fill="#FFA27B"></path>
                    <path d="M66.2754915,20.835521 C66.6160508,20.835521 66.8892203,21.1085931 66.8892203,21.4451424 L66.8892203,56.5923885 C66.8892203,56.9277401 66.6160508,57.2020099 66.2754915,57.2020099 L57.5753623,57.2020099 C57.3113011,57.2020099 57.0972373,56.987946 57.0972373,56.7238849 L57.0972373,46.6482639 C57.0972373,46.3842028 56.8831734,46.1701389 56.6191123,46.1701389 L48.4885657,46.1701389 C48.2245045,46.1701389 48.0104407,46.3842028 48.0104407,46.6482639 L48.0104407,56.7238849 C48.0104407,56.987946 47.7963768,57.2020099 47.5323157,57.2020099 L37.9452881,57.2020099 C37.6035254,57.2020099 37.3303559,56.9277401 37.3303559,56.5923885 L37.3303559,21.4451424 C37.3303559,21.1085931 37.6035254,20.835521 37.9452881,20.835521 L66.2754915,20.835521 Z M56.7463568,29.4305455 L60.4977678,29.4305455 C60.761829,29.4305455 60.9758928,29.2164816 60.9758928,28.9524205 L60.9758928,25.2209337 C60.9758928,24.9568726 60.761829,24.7428087 60.4977678,24.7428087 L56.7463568,24.7428087 C56.4822956,24.7428087 56.2682318,24.9568726 56.2682318,25.2209337 L56.2682318,28.9524205 C56.2682318,29.2164816 56.4822956,29.4305455 56.7463568,29.4305455 Z M56.7463568,36.1123636 L60.4977678,36.1123636 C60.761829,36.1123636 60.9758928,35.8982998 60.9758928,35.6342386 L60.9758928,31.9027519 C60.9758928,31.6386908 60.761829,31.4246269 60.4977678,31.4246269 L56.7463568,31.4246269 C56.4822956,31.4246269 56.2682318,31.6386908 56.2682318,31.9027519 L56.2682318,35.6342386 C56.2682318,35.8982998 56.4822956,36.1123636 56.7463568,36.1123636 Z M50.0301406,29.4305455 L53.7863652,29.4305455 C54.0504263,29.4305455 54.2644902,29.2164816 54.2644902,28.9524205 L54.2644902,25.2209337 C54.2644902,24.9568726 54.0504263,24.7428087 53.7863652,24.7428087 L50.0301406,24.7428087 C49.7660794,24.7428087 49.5520156,24.9568726 49.5520156,25.2209337 L49.5520156,28.9524205 C49.5520156,29.2164816 49.7660794,29.4305455 50.0301406,29.4305455 Z M50.0301406,36.1123636 L53.7863652,36.1123636 C54.0504263,36.1123636 54.2644902,35.8982998 54.2644902,35.6342386 L54.2644902,31.9027519 C54.2644902,31.6386908 54.0504263,31.4246269 53.7863652,31.4246269 L50.0301406,31.4246269 C49.7660794,31.4246269 49.5520156,31.6386908 49.5520156,31.9027519 L49.5520156,35.6342386 C49.5520156,35.8982998 49.7660794,36.1123636 50.0301406,36.1123636 Z M43.3139244,29.4305455 L47.0689455,29.4305455 C47.3330067,29.4305455 47.5470705,29.2164816 47.5470705,28.9524205 L47.5470705,25.2209337 C47.5470705,24.9568726 47.3330067,24.7428087 47.0689455,24.7428087 L43.3139244,24.7428087 C43.0498632,24.7428087 42.8357994,24.9568726 42.8357994,25.2209337 L42.8357994,28.9524205 C42.8357994,29.2164816 43.0498632,29.4305455 43.3139244,29.4305455 Z M43.3139244,36.1123636 L47.0689455,36.1123636 C47.3330067,36.1123636 47.5470705,35.8982998 47.5470705,35.6342386 L47.5470705,31.9027519 C47.5470705,31.6386908 47.3330067,31.4246269 47.0689455,31.4246269 L43.3139244,31.4246269 C43.0498632,31.4246269 42.8357994,31.6386908 42.8357994,31.9027519 L42.8357994,35.6342386 C42.8357994,35.8982998 43.0498632,36.1123636 43.3139244,36.1123636 Z M56.7463568,42.3169091 L60.4977678,42.3169091 C60.761829,42.3169091 60.9758928,42.1028452 60.9758928,41.8387841 L60.9758928,38.1072974 C60.9758928,37.8432362 60.761829,37.6291724 60.4977678,37.6291724 L56.7463568,37.6291724 C56.4822956,37.6291724 56.2682318,37.8432362 56.2682318,38.1072974 L56.2682318,41.8387841 C56.2682318,42.1028452 56.4822956,42.3169091 56.7463568,42.3169091 Z M50.0301406,42.3169091 L53.7863652,42.3169091 C54.0504263,42.3169091 54.2644902,42.1028452 54.2644902,41.8387841 L54.2644902,38.1072974 C54.2644902,37.8432362 54.0504263,37.6291724 53.7863652,37.6291724 L50.0301406,37.6291724 C49.7660794,37.6291724 49.5520156,37.8432362 49.5520156,38.1072974 L49.5520156,41.8387841 C49.5520156,42.1028452 49.7660794,42.3169091 50.0301406,42.3169091 Z M43.3139244,42.3169091 L47.0689455,42.3169091 C47.3330067,42.3169091 47.5470705,42.1028452 47.5470705,41.8387841 L47.5470705,38.1072974 C47.5470705,37.8432362 47.3330067,37.6291724 47.0689455,37.6291724 L43.3139244,37.6291724 C43.0498632,37.6291724 42.8357994,37.8432362 42.8357994,38.1072974 L42.8357994,41.8387841 C42.8357994,42.1028452 43.0498632,42.3169091 43.3139244,42.3169091 Z" id="Combined-Shape" fill="#FFA27B"></path>
                    <path d="M10.3395254,7.36396698 L19.2855254,7.36396698 C19.6212712,7.36396698 19.8992542,7.09089494 19.8992542,6.75314794 L19.8992542,0.956355489 C19.8992542,0.618608491 19.6212712,0.345536449 19.2855254,0.345536449 L10.3395254,0.345536449 C9.9989661,0.345536449 9.72820339,0.618608491 9.72820339,0.956355489 L9.72820339,6.75314794 C9.72820339,7.09089494 9.9989661,7.36396698 10.3395254,7.36396698" id="Fill-59" fill="#FFCCA5"></path>
                    <path d="M40.3448475,20.1612247 L49.2872373,20.1612247 C49.6253898,20.1612247 49.8997627,19.886955 49.8997627,19.5516033 L49.8997627,13.7536132 C49.8997627,13.4182616 49.6253898,13.1439919 49.2872373,13.1439919 L40.3448475,13.1439919 C40.0054915,13.1439919 39.7299153,13.4182616 39.7299153,13.7536132 L39.7299153,19.5516033 C39.7299153,19.886955 40.0054915,20.1612247 40.3448475,20.1612247" id="Fill-60" fill="#FFCCA5"></path>
                    <path d="M0.846362288,62.6550669 L70.0850445,62.6550669 C70.3491056,62.6550669 70.5631695,62.441003 70.5631695,62.1769419 L70.5631695,59.5461271 C70.5631695,59.282066 70.3491056,59.0680021 70.0850445,59.0680021 L0.846362288,59.0680021 C0.582301142,59.0680021 0.368237288,59.282066 0.368237288,59.5461271 L0.368237288,62.1769419 C0.368237288,62.441003 0.582301142,62.6550669 0.846362288,62.6550669 Z" id="Fill-61" fill="#FFCCA5"></path>
                </g>
            </g>
        </g>
    </g>
</svg>