<?xml version="1.0" encoding="UTF-8"?>
<svg width="49px" height="53px" viewBox="0 0 49 53" version="1.1" xmlns="http://www.w3.org/2000/svg" xmlns:xlink="http://www.w3.org/1999/xlink">
    <!-- Generator: Sketch 49.1 (51147) - http://www.bohemiancoding.com/sketch -->
    <title>calendar-number</title>
    <desc>Created with Sketch.</desc>
    <defs></defs>
    <g id="Page-1" stroke="none" stroke-width="1" fill="none" fill-rule="evenodd">
        <g id="03---Dashboard" transform="translate(-847.000000, -638.000000)">
            <g id="Group-11" transform="translate(89.000000, 602.000000)">
                <g id="calendar-number" transform="translate(758.000000, 36.000000)">
                    <g id="Icon">
                        <path d="M48.9672093,14.4220478 L0.0113953488,14.4220478 L0.0113953488,5.07887391 C0.0113953488,3.60326522 1.19627907,2.40704783 2.65790698,2.40704783 L46.3206977,2.40704783 C47.7823256,2.40704783 48.9672093,3.60326522 48.9672093,5.07887391 L48.9672093,14.4220478 Z" id="Fill-25" fill="#FFA27B"></path>
                        <path d="M11.2597674,7.75105217 C11.2597674,8.85805217 10.3713953,9.75492174 9.27488372,9.75492174 C8.17837209,9.75492174 7.29,8.85805217 7.29,7.75105217 C7.29,6.64405217 8.17837209,5.74718261 9.27488372,5.74718261 C10.3713953,5.74718261 11.2597674,6.64405217 11.2597674,7.75105217" id="Fill-27" fill="#FFCCA5"></path>
                        <path d="M9.27488372,9.03132174 C8.7272093,9.03132174 8.28302326,8.58288696 8.28302326,8.02997391 L8.28302326,1.04284348 C8.28302326,0.488756522 8.7272093,0.0403217391 9.27488372,0.0403217391 C9.82255814,0.0403217391 10.2667442,0.488756522 10.2667442,1.04284348 L10.2667442,8.02997391 C10.2667442,8.58288696 9.82255814,9.03132174 9.27488372,9.03132174" id="Fill-29" fill="#F6F6F6"></path>
                        <path d="M41.6965116,7.75105217 C41.6965116,8.85805217 40.8081395,9.75492174 39.7116279,9.75492174 C38.6151163,9.75492174 37.7267442,8.85805217 37.7267442,7.75105217 C37.7267442,6.64405217 38.6151163,5.74718261 39.7116279,5.74718261 C40.8081395,5.74718261 41.6965116,6.64405217 41.6965116,7.75105217" id="Fill-31" fill="#FFCCA5"></path>
                        <path d="M46.3205814,52.4882913 L2.6577907,52.4882913 C1.19616279,52.4882913 0.0112790698,51.2920739 0.0112790698,49.8164652 L0.0112790698,14.421813 L48.967093,14.421813 L48.967093,49.8164652 C48.967093,51.2920739 47.7822093,52.4882913 46.3205814,52.4882913" id="Fill-33" fill="#FFA27B"></path>
                        <path d="M46.6405814,47.8388913 L2.33825581,47.8388913 C1.6394186,47.8388913 1.07313953,47.2671957 1.07313953,46.5616739 L1.07313953,14.4222826 L47.9056977,14.4222826 L47.9056977,46.5616739 C47.9056977,47.2671957 47.3394186,47.8388913 46.6405814,47.8388913" id="Fill-35" fill="#FFFFFF"></path>
                        <path d="M39.7116279,9.03132174 C39.1639535,9.03132174 38.7197674,8.58288696 38.7197674,8.02997391 L38.7197674,1.04284348 C38.7197674,0.488756522 39.1639535,0.0403217391 39.7116279,0.0403217391 C40.2593023,0.0403217391 40.7034884,0.488756522 40.7034884,1.04284348 L40.7034884,8.02997391 C40.7034884,8.58288696 40.2593023,9.03132174 39.7116279,9.03132174" id="Fill-37" fill="#F6F6F6"></path>
                        <polygon id="Fill-39" fill="#545ABF" points="16.6060465 26.9141261 13.7002326 27.6360826 12.9386047 24.606213 17.7246512 23.1634739 20.225814 23.1634739 20.225814 40.1136043 16.6060465 40.1136043"></polygon>
                        <polygon id="Fill-41" fill="#545ABF" points="31.8719767 26.4816565 24.037093 26.4816565 24.037093 23.2839174 36.0394186 23.2839174 36.0394186 26.0731348 28.5615116 40.1131348 24.4184884 40.1131348"></polygon>
                    </g>
                </g>
            </g>
        </g>
    </g>
</svg>