<?xml version="1.0" encoding="UTF-8"?>
<svg width="26px" height="32px" viewBox="0 0 26 32" version="1.1" xmlns="http://www.w3.org/2000/svg" xmlns:xlink="http://www.w3.org/1999/xlink">
    <!-- Generator: Sketch 49.1 (51147) - http://www.bohemiancoding.com/sketch -->
    <title>clipboard</title>
    <desc>Created with Sketch.</desc>
    <defs></defs>
    <g id="Page-1" stroke="none" stroke-width="1" fill="none" fill-rule="evenodd">
        <g id="07---Success-Page" transform="translate(-320.000000, -510.000000)" fill-rule="nonzero">
            <g id="Group-6" transform="translate(308.000000, 503.000000)">
                <g id="Group-40">
                    <g id="Group-10">
                        <g id="Clipboard">
                            <g id="clipboard" transform="translate(12.000000, 7.000000)">
                                <path d="M0,6.49978045 C0,5.6714746 0.6688281,5 1.50074095,5 L24.499259,5 C25.3280954,5 26,5.66741945 26,6.49978045 L26,30.5002195 C26,31.3285254 25.3311719,32 24.499259,32 L1.50074095,32 C0.6719046,32 0,31.3325806 0,30.5002195 L0,6.49978045 Z M9,13 C9,13.5561352 9.44852,14 10.0017975,14 L20.4982026,14 C21.0551184,14 21.5,13.5522847 21.5,13 C21.5,12.4438648 21.05148,12 20.4982026,12 L10.0017975,12 C9.4448816,12 9,12.4477153 9,13 Z M9,19 C9,19.5561352 9.44852,20 10.0017975,20 L20.4982026,20 C21.0551184,20 21.5,19.5522847 21.5,19 C21.5,18.4438648 21.05148,18 20.4982026,18 L10.0017975,18 C9.4448816,18 9,18.4477153 9,19 Z M9,25 C9,25.5561352 9.44852,26 10.0017975,26 L20.4982026,26 C21.0551184,26 21.5,25.5522847 21.5,25 C21.5,24.4438648 21.05148,24 20.4982026,24 L10.0017975,24 C9.4448816,24 9,24.4477153 9,25 Z M6,15 C7.1045695,15 8,14.1045695 8,13 C8,11.8954305 7.1045695,11 6,11 C4.8954305,11 4,11.8954305 4,13 C4,14.1045695 4.8954305,15 6,15 Z M6,21 C7.1045695,21 8,20.1045695 8,19 C8,17.8954305 7.1045695,17 6,17 C4.8954305,17 4,17.8954305 4,19 C4,20.1045695 4.8954305,21 6,21 Z M6,27 C7.1045695,27 8,26.1045695 8,25 C8,23.8954305 7.1045695,23 6,23 C4.8954305,23 4,23.8954305 4,25 C4,26.1045695 4.8954305,27 6,27 Z" id="Shape" fill="#FFCCA5"></path>
                                <path d="M9.5414792,2.5 L6.9996374,2.5 C5.89339735,2.5 5,3.39596095 5,4.50118475 L5,7.50221125 C5,7.7775815 5.2234443,8 5.49907685,8 L19.5009231,8 C19.7763174,8 20,7.7771324 20,7.50221125 L20,4.50118475 C20,3.3959109 19.1047319,2.5 18.0003626,2.5 L15.4585208,2.5 C15.2204818,1.08114335 13.9864981,0 12.5,0 C11.0135019,0 9.77951825,1.08114335 9.5414792,2.5 Z" id="Shape" fill="#FFA27B"></path>
                            </g>
                        </g>
                    </g>
                </g>
            </g>
        </g>
    </g>
</svg>