<?xml version="1.0" encoding="UTF-8"?>
<svg width="75px" height="55px" viewBox="0 0 75 55" version="1.1" xmlns="http://www.w3.org/2000/svg" xmlns:xlink="http://www.w3.org/1999/xlink">
    <!-- Generator: Sketch 49.1 (51147) - http://www.bohemiancoding.com/sketch -->
    <title>home</title>
    <desc>Created with Sketch.</desc>
    <defs></defs>
    <g id="Symbols" stroke="none" stroke-width="1" fill="none" fill-rule="evenodd">
        <g id="home">
            <g id="Group-2">
                <g>
                    <path d="M55.3816688,19.1621528 L2.2220659,19.1621528 C0.561701685,19.1621528 -0.384718623,17.2600694 0.613786561,15.9296296 L6.97322288,7.46956019 C7.35433173,6.96284722 7.94886153,6.66493056 8.58150222,6.66493056 L49.0222325,6.66493056 C49.6548732,6.66493056 50.2506734,6.96284722 50.6305118,7.46956019 L56.9899482,15.9296296 C57.9884534,17.2600694 57.042033,19.1621528 55.3816688,19.1621528" id="Fill-62" fill="#FFCCA5"></path>
                    <path d="M19.531405,5.55474537 L24.8046603,5.55474537 C25.0842545,5.55474537 25.3109103,5.32808952 25.3109103,5.04849537 L25.3109103,0.50625 C25.3109103,0.226655845 25.0842545,5.56320678e-16 24.8046603,1.11022302e-16 L19.531405,0 C19.2518109,5.1360613e-17 19.025155,0.226655845 19.025155,0.50625 L19.025155,5.04849537 C19.025155,5.32808952 19.2518109,5.55474537 19.531405,5.55474537 Z" id="Fill-63" fill="#FFA27B"></path>
                    <path d="M5.10960061,21.2835648 L5.10960061,54.2798611 C5.10960061,54.5594553 5.33625646,54.7861111 5.61585061,54.7861111 L19.5669544,54.7861111 C19.8465485,54.7861111 20.0732044,54.5594553 20.0732044,54.2798611 L20.0732044,44.0190972 C20.0732044,43.3265046 20.6334344,42.7637731 21.3257821,42.7637731 L36.2779526,42.7637731 C36.9677596,42.7637731 37.5305304,43.3265046 37.5305304,44.0190972 L37.5305304,54.2798611 C37.5305304,54.5594553 37.7571862,54.7861111 38.0367804,54.7861111 L51.9878841,54.7861111 C52.2674783,54.7861111 52.4941341,54.5594553 52.4941341,54.2798611 L52.4941341,21.2835648 C52.4941341,20.7243765 52.0408224,20.2710648 51.4816341,20.2710648 L6.12210061,20.2710648 C5.5629123,20.2710648 5.10960061,20.7243765 5.10960061,21.2835648 Z M12.9039222,34.3559028 L16.8128078,34.3559028 C17.0924019,34.3559028 17.3190578,34.1292469 17.3190578,33.8496528 L17.3190578,29.9274306 C17.3190578,29.6478364 17.0924019,29.4211806 16.8128078,29.4211806 L12.9039222,29.4211806 C12.624328,29.4211806 12.3976722,29.6478364 12.3976722,29.9274306 L12.3976722,33.8496528 C12.3976722,34.1292469 12.624328,34.3559028 12.9039222,34.3559028 Z M12.9039222,28.3708333 L16.8128078,28.3708333 C17.0924019,28.3708333 17.3190578,28.1441775 17.3190578,27.8645833 L17.3190578,23.9449074 C17.3190578,23.6653133 17.0924019,23.4386574 16.8128078,23.4386574 L12.9039222,23.4386574 C12.624328,23.4386574 12.3976722,23.6653133 12.3976722,23.9449074 L12.3976722,27.8645833 C12.3976722,28.1441775 12.624328,28.3708333 12.9039222,28.3708333 Z M18.8746275,34.3559028 L22.7822427,34.3559028 C23.0618368,34.3559028 23.2884927,34.1292469 23.2884927,33.8496528 L23.2884927,29.9274306 C23.2884927,29.6478364 23.0618368,29.4211806 22.7822427,29.4211806 L18.8746275,29.4211806 C18.5950333,29.4211806 18.3683775,29.6478364 18.3683775,29.9274306 L18.3683775,33.8496528 C18.3683775,34.1292469 18.5950333,34.3559028 18.8746275,34.3559028 Z M18.8746275,28.3708333 L22.7822427,28.3708333 C23.0618368,28.3708333 23.2884927,28.1441775 23.2884927,27.8645833 L23.2884927,23.9449074 C23.2884927,23.6653133 23.0618368,23.4386574 22.7822427,23.4386574 L18.8746275,23.4386574 C18.5950333,23.4386574 18.3683775,23.6653133 18.3683775,23.9449074 L18.3683775,27.8645833 C18.3683775,28.1441775 18.5950333,28.3708333 18.8746275,28.3708333 Z M34.8202217,34.3559028 L38.7303776,34.3559028 C39.0099718,34.3559028 39.2366276,34.1292469 39.2366276,33.8496528 L39.2366276,29.9274306 C39.2366276,29.6478364 39.0099718,29.4211806 38.7303776,29.4211806 L34.8202217,29.4211806 C34.5406275,29.4211806 34.3139717,29.6478364 34.3139717,29.9274306 L34.3139717,33.8496528 C34.3139717,34.1292469 34.5406275,34.3559028 34.8202217,34.3559028 Z M34.8202217,28.3708333 L38.7303776,28.3708333 C39.0099718,28.3708333 39.2366276,28.1441775 39.2366276,27.8645833 L39.2366276,23.9449074 C39.2366276,23.6653133 39.0099718,23.4386574 38.7303776,23.4386574 L34.8202217,23.4386574 C34.5406275,23.4386574 34.3139717,23.6653133 34.3139717,23.9449074 L34.3139717,27.8645833 C34.3139717,28.1441775 34.5406275,28.3708333 34.8202217,28.3708333 Z M40.7883862,34.3559028 L44.7023533,34.3559028 C44.9819474,34.3559028 45.2086033,34.1292469 45.2086033,33.8496528 L45.2086033,29.9274306 C45.2086033,29.6478364 44.9819474,29.4211806 44.7023533,29.4211806 L40.7883862,29.4211806 C40.5087921,29.4211806 40.2821362,29.6478364 40.2821362,29.9274306 L40.2821362,33.8496528 C40.2821362,34.1292469 40.5087921,34.3559028 40.7883862,34.3559028 Z M40.7883862,28.3708333 L44.7023533,28.3708333 C44.9819474,28.3708333 45.2086033,28.1441775 45.2086033,27.8645833 L45.2086033,23.9449074 C45.2086033,23.6653133 44.9819474,23.4386574 44.7023533,23.4386574 L40.7883862,23.4386574 C40.5087921,23.4386574 40.2821362,23.6653133 40.2821362,23.9449074 L40.2821362,27.8645833 C40.2821362,28.1441775 40.5087921,28.3708333 40.7883862,28.3708333 Z" id="Fill-65" fill="#FFA27B"></path>
                    <path d="M73.0308196,33.7027778 L57.9909941,25.6221065 C56.3636593,24.7487269 54.9954785,25.4094907 54.9967489,27.1346065 L55.0056414,33.8644676 C55.0056414,34.3342593 55.3854799,34.7136574 55.8542438,34.7136574 L74.0877615,34.7136574 C73.7917669,34.2782407 73.4297135,33.9153935 73.0308196,33.7027778" id="Fill-66" fill="#FFA27B"></path>
                    <path d="M55.028508,51.674537 C55.0310487,53.393287 56.3979591,54.7861111 58.0227531,54.7861111 L73.0346307,54.7861111 C74.0407581,54.7861111 74.8334645,53.7421296 74.8334645,52.4537037 L74.8334645,37.0078704 C74.611151,36.7850694 74.485385,36.6590278 74.2643419,36.4375 L56.593595,36.4375 C55.7195853,36.4375 55.0094525,37.1491898 55.0107229,38.0263889 L55.028508,51.674537 Z M66.3620603,43.2552083 L70.173128,43.2552083 C70.4527222,43.2552083 70.679378,43.0285525 70.679378,42.7489583 L70.679378,38.928588 C70.679378,38.6489938 70.4527222,38.422338 70.173128,38.422338 L66.3620603,38.422338 C66.0824662,38.422338 65.8558103,38.6489938 65.8558103,38.928588 L65.8558103,42.7489583 C65.8558103,43.0285525 66.0824662,43.2552083 66.3620603,43.2552083 Z M66.3620603,49.9748843 L70.173128,49.9748843 C70.4527222,49.9748843 70.679378,49.7482284 70.679378,49.4686343 L70.679378,45.6482639 C70.679378,45.3686697 70.4527222,45.1420139 70.173128,45.1420139 L66.3620603,45.1420139 C66.0824662,45.1420139 65.8558103,45.3686697 65.8558103,45.6482639 L65.8558103,49.4686343 C65.8558103,49.7482284 66.0824662,49.9748843 66.3620603,49.9748843 Z M59.6570853,43.2552083 L63.468153,43.2552083 C63.7477472,43.2552083 63.974403,43.0285525 63.974403,42.7489583 L63.974403,38.928588 C63.974403,38.6489938 63.7477472,38.422338 63.468153,38.422338 L59.6570853,38.422338 C59.3774912,38.422338 59.1508353,38.6489938 59.1508353,38.928588 L59.1508353,42.7489583 C59.1508353,43.0285525 59.3774912,43.2552083 59.6570853,43.2552083 Z M59.6570853,49.9748843 L63.468153,49.9748843 C63.7477472,49.9748843 63.974403,49.7482284 63.974403,49.4686343 L63.974403,45.6482639 C63.974403,45.3686697 63.7477472,45.1420139 63.468153,45.1420139 L59.6570853,45.1420139 C59.3774912,45.1420139 59.1508353,45.3686697 59.1508353,45.6482639 L59.1508353,49.4686343 C59.1508353,49.7482284 59.3774912,49.9748843 59.6570853,49.9748843 Z" id="Fill-67" fill="#FFCCA5"></path>
                </g>
            </g>
        </g>
    </g>
</svg>