<?xml version="1.0" encoding="UTF-8"?>
<svg width="33px" height="31px" viewBox="0 0 33 31" version="1.1" xmlns="http://www.w3.org/2000/svg" xmlns:xlink="http://www.w3.org/1999/xlink">
    <!-- Generator: Sketch 49.1 (51147) - http://www.bohemiancoding.com/sketch -->
    <title>home-simple</title>
    <desc>Created with Sketch.</desc>
    <defs></defs>
    <g id="Page-1" stroke="none" stroke-width="1" fill="none" fill-rule="evenodd">
        <g id="03b---Delivery-Address" transform="translate(-325.000000, -365.000000)">
            <g id="Group-3" transform="translate(172.000000, 318.000000)">
                <g id="map">
                    <g id="Home" transform="translate(143.000000, 38.000000)">
                        <g id="home-simple" transform="translate(10.000000, 9.000000)">
                            <g id="Home-Icon" transform="translate(0.014728, 0.000000)">
                                <g id="Group-2">
                                    <path d="M30.9346736,10.6703598 L1.24118476,10.6703598 C0.313751077,10.6703598 -0.214893218,9.61119311 0.342844253,8.8703436 L3.89505008,4.15939145 C4.10792697,3.87723059 4.44001493,3.71133701 4.79339058,3.71133701 L27.3824677,3.71133701 C27.7358434,3.71133701 28.0686409,3.87723059 28.2808082,4.15939145 L31.8330141,8.8703436 C32.3907515,9.61119311 31.8621072,10.6703598 30.9346736,10.6703598" id="Fill-62" fill="#FFCCA5"></path>
                                    <path d="M10.9116928,3.09313532 L13.8532112,3.09313532 C14.0104829,3.09313532 14.1379768,2.96564141 14.1379768,2.80836969 L14.1379768,0.284765625 C14.1379768,0.127493913 14.0104829,8.21319577e-17 13.8532112,1.11022302e-16 L10.9116928,0 C10.7544211,2.88903448e-17 10.6269272,0.127493913 10.6269272,0.284765625 L10.6269272,2.80836969 C10.6269272,2.96564141 10.7544211,3.09313532 10.9116928,3.09313532 Z" id="Fill-63" fill="#FFA27B"></path>
                                    <path d="M2.85408205,11.8573838 L2.85408205,30.2226373 C2.85408205,30.379909 2.98157596,30.5074029 3.13884768,30.5074029 L10.927573,30.5074029 C11.0848447,30.5074029 11.2123386,30.379909 11.2123386,30.2226373 L11.2123386,24.511839 C11.2123386,24.1261719 11.5252677,23.8128174 11.911994,23.8128174 L20.2638643,23.8128174 C20.6491715,23.8128174 20.9635197,24.1261719 20.9635197,24.511839 L20.9635197,30.2226373 C20.9635197,30.379909 21.0910136,30.5074029 21.2482853,30.5074029 L29.0370106,30.5074029 C29.1942824,30.5074029 29.3217763,30.379909 29.3217763,30.2226373 L29.3217763,11.8573838 C29.3217763,11.5428403 29.0667884,11.2878525 28.752245,11.2878525 L3.4236133,11.2878525 C3.10906988,11.2878525 2.85408205,11.5428403 2.85408205,11.8573838 Z M7.20976354,19.1309321 L9.38918262,19.1309321 C9.54645433,19.1309321 9.67394825,19.0034381 9.67394825,18.8461664 L9.67394825,16.6678195 C9.67394825,16.5105478 9.54645433,16.3830539 9.38918262,16.3830539 L7.20976354,16.3830539 C7.05249183,16.3830539 6.92499791,16.5105478 6.92499791,16.6678195 L6.92499791,18.8461664 C6.92499791,19.0034381 7.05249183,19.1309321 7.20976354,19.1309321 Z M7.20976354,15.7981727 L9.38918262,15.7981727 C9.54645433,15.7981727 9.67394825,15.6706788 9.67394825,15.5134071 L9.67394825,13.336478 C9.67394825,13.1792063 9.54645433,13.0517124 9.38918262,13.0517124 L7.20976354,13.0517124 C7.05249183,13.0517124 6.92499791,13.1792063 6.92499791,13.336478 L6.92499791,15.5134071 C6.92499791,15.6706788 7.05249183,15.7981727 7.20976354,15.7981727 Z M10.5448349,19.1309321 L12.7235444,19.1309321 C12.8808161,19.1309321 13.00831,19.0034381 13.00831,18.8461664 L13.00831,16.6678195 C13.00831,16.5105478 12.8808161,16.3830539 12.7235444,16.3830539 L10.5448349,16.3830539 C10.3875632,16.3830539 10.2600693,16.5105478 10.2600693,16.6678195 L10.2600693,18.8461664 C10.2600693,19.0034381 10.3875632,19.1309321 10.5448349,19.1309321 Z M10.5448349,15.7981727 L12.7235444,15.7981727 C12.8808161,15.7981727 13.00831,15.6706788 13.00831,15.5134071 L13.00831,13.336478 C13.00831,13.1792063 12.8808161,13.0517124 12.7235444,13.0517124 L10.5448349,13.0517124 C10.3875632,13.0517124 10.2600693,13.1792063 10.2600693,13.336478 L10.2600693,15.5134071 C10.2600693,15.6706788 10.3875632,15.7981727 10.5448349,15.7981727 Z M19.4516043,19.1309321 L21.631733,19.1309321 C21.7890047,19.1309321 21.9164986,19.0034381 21.9164986,18.8461664 L21.9164986,16.6678195 C21.9164986,16.5105478 21.7890047,16.3830539 21.631733,16.3830539 L19.4516043,16.3830539 C19.2943326,16.3830539 19.1668387,16.5105478 19.1668387,16.6678195 L19.1668387,18.8461664 C19.1668387,19.0034381 19.2943326,19.1309321 19.4516043,19.1309321 Z M19.4516043,15.7981727 L21.631733,15.7981727 C21.7890047,15.7981727 21.9164986,15.6706788 21.9164986,15.5134071 L21.9164986,13.336478 C21.9164986,13.1792063 21.7890047,13.0517124 21.631733,13.0517124 L19.4516043,13.0517124 C19.2943326,13.0517124 19.1668387,13.1792063 19.1668387,13.336478 L19.1668387,15.5134071 C19.1668387,15.6706788 19.2943326,15.7981727 19.4516043,15.7981727 Z M22.7852565,19.1309321 L24.967514,19.1309321 C25.1247857,19.1309321 25.2522796,19.0034381 25.2522796,18.8461664 L25.2522796,16.6678195 C25.2522796,16.5105478 25.1247857,16.3830539 24.967514,16.3830539 L22.7852565,16.3830539 C22.6279848,16.3830539 22.5004909,16.5105478 22.5004909,16.6678195 L22.5004909,18.8461664 C22.5004909,19.0034381 22.6279848,19.1309321 22.7852565,19.1309321 Z M22.7852565,15.7981727 L24.967514,15.7981727 C25.1247857,15.7981727 25.2522796,15.6706788 25.2522796,15.5134071 L25.2522796,13.336478 C25.2522796,13.1792063 25.1247857,13.0517124 24.967514,13.0517124 L22.7852565,13.0517124 C22.6279848,13.0517124 22.5004909,13.1792063 22.5004909,13.336478 L22.5004909,15.5134071 C22.5004909,15.6706788 22.6279848,15.7981727 22.7852565,15.7981727 Z" id="Fill-65" fill="#FFA27B"></path>
                                </g>
                            </g>
                        </g>
                    </g>
                </g>
            </g>
        </g>
    </g>
</svg>