<?xml version="1.0" encoding="UTF-8"?>
<svg width="53px" height="57px" viewBox="0 0 53 57" version="1.1" xmlns="http://www.w3.org/2000/svg" xmlns:xlink="http://www.w3.org/1999/xlink">
    <!-- Generator: Sketch 49.1 (51147) - http://www.bohemiancoding.com/sketch -->
    <title>icecream</title>
    <desc>Created with Sketch.</desc>
    <defs>
        <linearGradient x1="0.668965517%" y1="49.9874552%" x2="100.081034%" y2="49.9874552%" id="linearGradient-1">
            <stop stop-color="#FFEDD2" offset="0%"></stop>
            <stop stop-color="#FFE4C3" offset="45.37%"></stop>
            <stop stop-color="#FFD6AC" offset="100%"></stop>
        </linearGradient>
        <linearGradient x1="0.0641880872%" y1="50.1031674%" x2="100.55566%" y2="50.1031674%" id="linearGradient-2">
            <stop stop-color="#C06053" offset="0%"></stop>
            <stop stop-color="#C06653" offset="0%"></stop>
            <stop stop-color="#B34747" offset="100%"></stop>
        </linearGradient>
        <linearGradient x1="0%" y1="50.0256831%" x2="100.085519%" y2="50.0256831%" id="linearGradient-3">
            <stop stop-color="#FFBF65" offset="0%"></stop>
            <stop stop-color="#F9A06A" offset="100%"></stop>
        </linearGradient>
        <linearGradient x1="2.14445342%" y1="50.6590552%" x2="100.957116%" y2="50.6590552%" id="linearGradient-4">
            <stop stop-color="#8DBF95" offset="0%"></stop>
            <stop stop-color="#A3D395" offset="100%"></stop>
        </linearGradient>
        <linearGradient x1="0.659647559%" y1="51.2601775%" x2="97.6911491%" y2="51.2601775%" id="linearGradient-5">
            <stop stop-color="#8DBF95" offset="0%"></stop>
            <stop stop-color="#A3D395" offset="100%"></stop>
        </linearGradient>
        <linearGradient x1="2.04472635%" y1="50.1125807%" x2="99.1483306%" y2="50.1125807%" id="linearGradient-6">
            <stop stop-color="#8DBF95" offset="0%"></stop>
            <stop stop-color="#A3D395" offset="100%"></stop>
        </linearGradient>
        <linearGradient x1="0.559721391%" y1="51.8028063%" x2="98.0563326%" y2="51.8028063%" id="linearGradient-7">
            <stop stop-color="#8DBF95" offset="0%"></stop>
            <stop stop-color="#A3D395" offset="100%"></stop>
        </linearGradient>
        <linearGradient x1="-4.33203684%" y1="48.6737053%" x2="99.4319022%" y2="48.6737053%" id="linearGradient-8">
            <stop stop-color="#8DBF95" offset="0%"></stop>
            <stop stop-color="#A3D395" offset="100%"></stop>
        </linearGradient>
        <linearGradient x1="-0.369612573%" y1="49.7080603%" x2="97.840129%" y2="49.7080603%" id="linearGradient-9">
            <stop stop-color="#8DBF95" offset="0%"></stop>
            <stop stop-color="#A3D395" offset="100%"></stop>
        </linearGradient>
        <linearGradient x1="-1.41156215%" y1="47.3055796%" x2="99.8303044%" y2="47.3055796%" id="linearGradient-10">
            <stop stop-color="#8DBF95" offset="0%"></stop>
            <stop stop-color="#A3D395" offset="100%"></stop>
        </linearGradient>
        <linearGradient x1="1.71063854%" y1="51.1609213%" x2="99.3775316%" y2="51.1609213%" id="linearGradient-11">
            <stop stop-color="#8DBF95" offset="0%"></stop>
            <stop stop-color="#A3D395" offset="100%"></stop>
        </linearGradient>
        <linearGradient x1="-0.133941606%" y1="49.4938596%" x2="100.087226%" y2="49.4938596%" id="linearGradient-12">
            <stop stop-color="#FFEDD2" offset="0%"></stop>
            <stop stop-color="#FFE4C3" offset="45.37%"></stop>
            <stop stop-color="#FFD6AC" offset="100%"></stop>
        </linearGradient>
    </defs>
    <g id="Page-1" stroke="none" stroke-width="1" fill="none" fill-rule="evenodd">
        <g id="03---Dashboard" transform="translate(-303.000000, -865.000000)">
            <g id="Group-11" transform="translate(89.000000, 602.000000)">
                <g id="Group-32" transform="translate(84.000000, 221.000000)">
                    <g id="Group-10">
                        <g id="Group-9" transform="translate(25.000000, 24.000000)">
                            <g id="Group-8">
                                <g id="icecream" transform="translate(105.000000, 18.000000)">
                                    <g id="Cooking_Donut-IceCream" transform="translate(0.702247, 0.241935)">
                                        <g id="Group" transform="translate(30.775281, 0.000000)" fill-rule="nonzero">
                                            <path d="M10.8646067,55.7484964 C9.37247191,55.7484964 8.16011236,54.5117551 8.16011236,52.9896118 L8.16011236,31.9650082 C8.16011236,30.442865 9.37247191,29.2061236 10.8646067,29.2061236 C12.3567416,29.2061236 13.5691011,30.442865 13.5691011,31.9650082 L13.5691011,52.9896118 C13.5691011,54.5117551 12.3567416,55.7484964 10.8646067,55.7484964 Z" id="Shape" fill="url(#linearGradient-1)"></path>
                                            <path d="M10.8646067,0 C4.89606742,0 0.13988764,4.94696555 0.13988764,10.9404046 L0.13988764,37.5779114 C0.13988764,40.0513942 2.09831461,42.0492072 4.52303371,42.0492072 L17.1129213,42.0492072 C19.5376404,42.0492072 21.4960674,40.0513942 21.4960674,37.5779114 L21.4960674,10.9404046 C21.5893258,4.94696555 16.8331461,0 10.8646067,0 Z" id="Shape" fill="url(#linearGradient-2)"></path>
                                            <g transform="translate(4.896067, 10.215008)" fill="#FFFFFF" id="Shape" opacity="0.32">
                                                <path d="M2.33146067,21.654866 C1.21235955,21.654866 0.373033708,20.7035265 0.373033708,19.657053 L0.373033708,2.15240569 C0.373033708,1.01079825 1.30561798,0.154592674 2.33146067,0.154592674 C3.4505618,0.154592674 4.28988764,1.1059322 4.28988764,2.15240569 L4.28988764,19.657053 C4.28988764,20.7035265 3.4505618,21.654866 2.33146067,21.654866 Z"></path>
                                                <path d="M9.6988764,21.654866 C8.57977528,21.654866 7.74044944,20.7035265 7.74044944,19.657053 L7.74044944,2.15240569 C7.74044944,1.01079825 8.67303371,0.154592674 9.6988764,0.154592674 C10.8179775,0.154592674 11.6573034,1.1059322 11.6573034,2.15240569 L11.6573034,19.657053 C11.6573034,20.7035265 10.8179775,21.654866 9.6988764,21.654866 Z"></path>
                                            </g>
                                        </g>
                                        <g id="Group" transform="translate(0.000000, 21.048387)" fill-rule="nonzero">
                                            <path d="M17.2969177,0.189625109 C7.75053143,0.189625109 0,7.96425458 0,17.5403226 C0,27.1163906 7.75053143,34.8910201 17.2969177,34.8910201 C26.843304,34.8910201 34.5938354,27.1163906 34.5938354,17.5403226 C34.5938354,7.96425458 26.843304,0.189625109 17.2969177,0.189625109 Z M17.2969177,23.9875763 C13.7997267,23.9875763 10.9641664,21.1431997 10.9641664,17.6351351 C10.9641664,14.1270706 13.7997267,11.282694 17.2969177,11.282694 C20.7941087,11.282694 23.629669,14.1270706 23.629669,17.6351351 C23.7241877,21.0483871 20.7941087,23.9875763 17.2969177,23.9875763 Z" id="Shape" fill="url(#linearGradient-3)"></path>
                                            <path d="M29.7733829,16.2129468 C29.6788643,16.2129468 29.5843456,16.2129468 29.4898269,16.1181343 L27.5994534,15.0751962 C27.3158974,14.9803836 27.2213787,14.6011334 27.410416,14.4115083 C27.5049347,14.1270706 27.8830094,14.0322581 28.0720468,14.2218832 L29.9624203,15.2648213 C30.2459763,15.3596338 30.340495,15.738884 30.1514576,15.9285092 C30.1514576,16.1181343 29.9624203,16.2129468 29.7733829,16.2129468 Z" id="Shape" fill="url(#linearGradient-4)"></path>
                                            <path d="M26.0871546,23.5135135 C25.8981172,23.5135135 25.8035985,23.418701 25.6145612,23.3238884 C25.3310052,23.0394507 25.2364865,22.6602005 25.5200425,22.2809503 L27.3158974,20.005449 C27.5994534,19.7210113 27.9775281,19.6261988 28.3556028,19.9106364 C28.6391588,20.1950741 28.7336775,20.5743243 28.4501215,20.9535745 L26.6542666,23.2290759 C26.4652293,23.418701 26.2761919,23.5135135 26.0871546,23.5135135 Z" id="Shape" fill="url(#linearGradient-5)"></path>
                                            <path d="M28.6391588,10.9034438 C28.4501215,10.9034438 28.2610841,10.8086312 28.0720468,10.6190061 L26.1816732,8.43831735 C25.8981172,8.15387969 25.9926359,7.67981691 26.2761919,7.39537925 C26.559748,7.11094159 27.0323413,7.20575414 27.3158974,7.4901918 L29.2062709,9.67088056 C29.4898269,9.95531822 29.3953082,10.429381 29.1117522,10.7138187 C28.9227148,10.8086312 28.8281962,10.9034438 28.6391588,10.9034438 Z" id="Shape" fill="url(#linearGradient-6)"></path>
                                            <path d="M20.6050714,8.24869224 C20.416034,8.24869224 20.3215153,8.15387969 20.132478,8.05906713 C19.848922,7.77462947 19.7544033,7.39537925 20.0379593,7.01612903 L21.9283328,4.83544028 C22.2118889,4.55100262 22.5899636,4.45619006 22.9680383,4.74062772 C23.2515943,5.02506539 23.346113,5.40431561 23.0625569,5.78356582 L21.1721834,7.96425458 C20.9831461,8.15387969 20.7941087,8.24869224 20.6050714,8.24869224 Z" id="Shape" fill="url(#linearGradient-7)"></path>
                                            <path d="M14.2723201,6.16281604 C13.988764,6.16281604 13.705208,5.97319093 13.6106893,5.59394071 L13.138096,3.69768963 C13.0435773,3.31843941 13.2326146,2.93918919 13.6106893,2.84437663 C13.988764,2.74956408 14.3668387,2.93918919 14.4613574,3.31843941 L14.9339508,5.2146905 C15.0284695,5.59394071 14.8394321,5.97319093 14.4613574,6.06800349 C14.3668387,6.06800349 14.2723201,6.16281604 14.2723201,6.16281604 Z" id="Shape" fill="url(#linearGradient-8)"></path>
                                            <path d="M6.42726997,11.9463819 C6.23823261,11.9463819 6.14371394,11.8515693 5.95467659,11.7567568 C5.67112056,11.4723191 5.67112056,10.9982563 5.86015791,10.7138187 L7.75053143,8.5331299 C8.03408746,8.24869224 8.41216216,8.15387969 8.79023687,8.43831735 C9.07379289,8.72275501 9.16831157,9.10200523 8.88475554,9.48125545 L6.99438202,11.6619442 C6.80534467,11.8515693 6.61630732,11.9463819 6.42726997,11.9463819 Z" id="Shape" fill="url(#linearGradient-9)"></path>
                                            <path d="M7.0889007,16.9714473 C6.99438202,16.9714473 6.99438202,16.9714473 6.89986335,16.9714473 L4.15882174,16.1181343 C3.78074704,16.0233217 3.59170969,15.6440715 3.68622836,15.2648213 C3.78074704,14.8855711 4.15882174,14.6959459 4.53689645,14.7907585 L7.27793805,15.6440715 C7.65601275,15.738884 7.84505011,16.1181343 7.75053143,16.4973845 C7.65601275,16.7818221 7.37245673,16.9714473 7.0889007,16.9714473 Z" id="Shape" fill="url(#linearGradient-10)"></path>
                                            <path d="M5.1040085,24.8408893 C5.00948983,24.8408893 4.91497115,24.8408893 4.82045247,24.7460767 C4.44237777,24.5564516 4.25334042,24.1772014 4.44237777,23.7979512 L5.57660188,21.1431997 C5.76563923,20.7639494 6.14371394,20.5743243 6.52178864,20.7639494 C6.89986335,20.9535745 7.0889007,21.3328248 6.89986335,21.712075 L5.76563923,24.3668265 C5.67112056,24.6512642 5.38756453,24.8408893 5.1040085,24.8408893 Z" id="Shape" fill="url(#linearGradient-11)"></path>
                                            <path d="M4.3478591,29.0126417 L5.48208321,29.0126417 C7.0889007,29.0126417 8.31764349,27.7800785 8.31764349,26.168265 C8.31764349,25.0305144 9.26283025,24.1772014 10.3025357,24.1772014 C11.4367598,24.1772014 12.2874279,25.1253269 12.2874279,26.168265 L12.2874279,29.0126417 C12.2874279,30.43483 13.421652,31.4777681 14.7449135,31.4777681 C16.1626936,31.4777681 17.202399,30.3400174 17.202399,29.0126417 L17.202399,27.1163906 C17.202399,26.168265 17.9585484,25.314952 18.9982539,25.314952 C19.9434406,25.314952 20.7941087,26.0734525 20.7941087,27.1163906 L20.7941087,28.6333915 C20.7941087,29.6763296 21.6447768,30.5296425 22.6844822,30.5296425 C23.7241877,30.5296425 24.5748558,29.6763296 24.5748558,28.6333915 L24.5748558,27.6852659 C24.5748558,26.8319529 25.2364865,26.0734525 26.1816732,26.0734525 C27.0323413,26.0734525 27.7884907,26.7371404 27.7884907,27.6852659 C27.7884907,28.4437663 28.3556028,29.0126417 29.1117522,29.0126417 L30.2459763,29.1074542 C30.2459763,29.1074542 26.1816732,34.9858326 17.2969177,34.9858326 C8.41216216,34.9858326 4.3478591,29.0126417 4.3478591,29.0126417 Z" id="Shape" fill="url(#linearGradient-12)"></path>
                                        </g>
                                    </g>
                                </g>
                            </g>
                        </g>
                    </g>
                </g>
            </g>
        </g>
    </g>
</svg>