<?xml version="1.0" encoding="UTF-8"?>
<svg width="46px" height="43px" viewBox="0 0 46 43" version="1.1" xmlns="http://www.w3.org/2000/svg" xmlns:xlink="http://www.w3.org/1999/xlink">
    <!-- Generator: Sketch 49.1 (51147) - http://www.bohemiancoding.com/sketch -->
    <title>lemon</title>
    <desc>Created with Sketch.</desc>
    <defs>
        <linearGradient x1="0.787976347%" y1="50.1488889%" x2="100.251323%" y2="50.1488889%" id="linearGradient-1">
            <stop stop-color="#A3D395" offset="0%"></stop>
            <stop stop-color="#71A595" offset="95.87%"></stop>
            <stop stop-color="#6FBE95" offset="100%"></stop>
        </linearGradient>
        <linearGradient x1="8.11121844e-15%" y1="49.5873271%" x2="99.8018265%" y2="49.5873271%" id="linearGradient-2">
            <stop stop-color="#A3D395" offset="0%"></stop>
            <stop stop-color="#71A595" offset="95.87%"></stop>
            <stop stop-color="#6FBE95" offset="100%"></stop>
        </linearGradient>
        <linearGradient x1="0.0613043478%" y1="50.0908696%" x2="99.8208696%" y2="50.0908696%" id="linearGradient-3">
            <stop stop-color="#FF9C65" offset="0%"></stop>
            <stop stop-color="#F97F5E" offset="100%"></stop>
        </linearGradient>
        <linearGradient x1="0.182815686%" y1="50.079771%" x2="100.472295%" y2="50.079771%" id="linearGradient-4">
            <stop stop-color="#FFBF65" offset="0%"></stop>
            <stop stop-color="#F9A06A" offset="100%"></stop>
        </linearGradient>
    </defs>
    <g id="Page-1" stroke="none" stroke-width="1" fill="none" fill-rule="evenodd">
        <g id="03---Dashboard" transform="translate(-187.000000, -838.000000)">
            <g id="Group-11" transform="translate(89.000000, 602.000000)">
                <g id="Group-32" transform="translate(84.000000, 221.000000)">
                    <g id="Group-10">
                        <g id="Group-7">
                            <g id="Group-4">
                                <g id="lemon" transform="translate(14.000000, 15.000000)">
                                    <g id="Cooking_Lemon-Tea" transform="translate(0.448718, 0.695499)">
                                        <path d="M25.7899259,22.7270832 C25.7899259,22.7270832 17.0974159,21.3458792 12.7511609,15.0676795 C8.40490595,8.7894798 10.1434079,0.125564191 10.1434079,0.125564191 C10.1434079,0.125564191 18.8359179,1.50676813 23.1821729,7.78496785 C27.5284279,14.0631676 25.7899259,22.7270832 25.7899259,22.7270832 Z" id="Shape" fill="url(#linearGradient-1)" fill-rule="nonzero"></path>
                                        <path d="M27.389744,27.9925788 C27.389744,27.9925788 20.7611758,33.851305 13.132069,33.2280363 C5.62802959,32.6047675 0,25.7488112 0,25.7488112 C0,25.7488112 6.62856818,19.890085 14.257675,20.5133537 C21.7617144,21.1366225 27.389744,27.9925788 27.389744,27.9925788 Z" id="Shape" fill="url(#linearGradient-2)" fill-rule="nonzero"></path>
                                        <ellipse id="Oval" fill="url(#linearGradient-3)" fill-rule="nonzero" cx="28.8974363" cy="25.866183" rx="14.3230771" ry="14.4398594"></ellipse>
                                        <path d="M29.0213314,9.41729978 C19.9199852,9.41729978 12.5641028,16.8255754 12.5641028,25.866183 C12.5641028,34.9067906 19.9199852,42.3150663 28.8966554,42.3150663 C37.8733256,42.3150663 45.229208,34.9067906 45.229208,25.866183 C45.353884,16.8255754 37.9980015,9.41729978 29.0213314,9.41729978 Z M41.2395769,25.1127991 L31.5148509,25.1127991 L38.4967054,18.0812154 C39.9928171,19.9646753 40.9902249,22.3503912 41.2395769,25.1127991 Z M29.8940632,13.5609116 C32.7616106,13.8120396 35.3798061,14.9421155 37.3746217,16.8255754 L29.8940632,24.3594151 L29.8940632,13.5609116 Z M28.1485996,38.1714545 C25.5304041,38.0458905 23.1615606,37.0413785 21.166745,35.4090466 L28.1485996,28.3774629 L28.1485996,38.1714545 Z M21.166745,16.4488835 C23.0368846,14.8165515 25.5304041,13.8120396 28.1485996,13.6864756 L28.1485996,23.4804671 L21.166745,16.4488835 Z M29.8940632,27.498515 L37.3746217,35.0323546 C35.3798061,36.9158145 32.7616106,38.0458905 29.8940632,38.2970185 L29.8940632,27.498515 Z M20.0446612,17.5789594 L27.5252197,25.1127991 L16.9277619,25.1127991 C17.0524378,22.2248272 18.1745216,19.5879833 20.0446612,17.5789594 Z M16.8030859,26.745131 L27.4005437,26.745131 L19.9199852,34.2789707 C18.1745216,32.2699468 17.0524378,29.6331029 16.8030859,26.745131 Z M38.3720295,33.7767147 L31.3901749,26.745131 L41.2395769,26.745131 C40.9902249,29.3819749 39.9928171,31.7676908 38.3720295,33.7767147 Z" id="Shape" fill="url(#linearGradient-4)" fill-rule="nonzero"></path>
                                    </g>
                                </g>
                            </g>
                        </g>
                    </g>
                </g>
            </g>
        </g>
    </g>
</svg>