<?xml version="1.0" encoding="UTF-8"?>
<svg width="32px" height="23px" viewBox="0 0 32 23" version="1.1" xmlns="http://www.w3.org/2000/svg" xmlns:xlink="http://www.w3.org/1999/xlink">
    <!-- Generator: Sketch 49.1 (51147) - http://www.bohemiancoding.com/sketch -->
    <title>master-card</title>
    <desc>Created with Sketch.</desc>
    <defs></defs>
    <g id="Page-1" stroke="none" stroke-width="1" fill="none" fill-rule="evenodd">
        <g id="06a---Checkout-Copy" transform="translate(-738.000000, -214.000000)">
            <g id="cards" transform="translate(738.000000, 214.000000)">
                <g id="master-card">
                    <g id="credit-cards_mastercard">
                        <g id="Layer_1" fill-rule="nonzero">
                            <path d="M1.32352941,0 L30.4411765,0 C31.1691176,0 31.7647059,0.560553633 31.7647059,1.24567474 L31.7647059,19.9307958 C31.7647059,20.615917 31.1691176,21.1764706 30.4411765,21.1764706 L1.32352941,21.1764706 C0.595588235,21.1764706 0,20.615917 0,19.9307958 L0,1.24567474 C0,0.560553633 0.595588235,0 1.32352941,0 Z" id="Shape" fill="#4361C3"></path>
                            <path d="M19.6875,6.61764706 C22.3345588,6.61764706 24.4852941,8.76838235 24.4852941,11.4154412 C24.4852941,14.0625 22.3345588,16.2132353 19.6875,16.2132353 C17.0404412,16.2132353 14.8897059,14.0625 14.8897059,11.4154412 C14.8897059,8.76838235 17.0404412,6.61764706 19.6875,6.61764706 Z" id="Shape" fill="#FFAF38"></path>
                            <rect id="Rectangle-path" fill="#FFAF38" x="15.5514706" y="8.93382353" width="3.30882353" height="1"></rect>
                            <path d="M12.0772059,16.2132353 C9.43014706,16.2132353 7.27941176,14.0625 7.27941176,11.4154412 C7.27941176,8.76838235 9.43014706,6.61764706 12.0772059,6.61764706 C14.7242647,6.61764706 16.875,8.76838235 16.875,11.4154412 C16.875,14.0625 14.7242647,16.2132353 12.0772059,16.2132353 Z" id="Shape" fill="#EB3636"></path>
                            <path d="M15.5514706,13.5661765 L15.5514706,12.9044118 L19.8529412,12.9044118 L19.8529412,13.5661765 L15.5514706,13.5661765 Z M15.5514706,8.93382353 L19.8529412,8.93382353 L19.8529412,9.59558824 L15.5514706,9.59558824 L15.5514706,8.93382353 Z M19.5220588,10.9191176 L15.2205882,10.9191176 L15.2205882,10.2573529 L19.5220588,10.2573529 L19.5220588,10.9191176 Z M19.5220588,12.2426471 L15.2205882,12.2426471 L15.2205882,11.5808824 L19.5220588,11.5808824 L19.5220588,12.2426471 Z" id="Shape" fill="#FFAF38"></path>
                            <path d="M1.32352941,22.5 L1.91911765,22.5 L31.7647059,1.91911765 L31.7647059,1.32352941 C31.7647059,0.595588235 31.1691176,0 30.4411765,0 L1.32352941,0 C0.595588235,0 0,0.595588235 0,1.32352941 L0,21.1764706 C0,21.9044118 0.595588235,22.5 1.32352941,22.5 Z" id="Shape" fill="#FFFFFF" opacity="0.05"></path>
                        </g>
                    </g>
                </g>
            </g>
        </g>
    </g>
</svg>