<?xml version="1.0" encoding="UTF-8"?>
<svg width="50px" height="50px" viewBox="0 0 50 50" version="1.1" xmlns="http://www.w3.org/2000/svg" xmlns:xlink="http://www.w3.org/1999/xlink">
    <!-- Generator: Sketch 49.1 (51147) - http://www.bohemiancoding.com/sketch -->
    <title>package</title>
    <desc>Created with Sketch.</desc>
    <defs></defs>
    <g id="Page-1" stroke="none" stroke-width="1" fill="none" fill-rule="evenodd">
        <g id="07---Success-Page" transform="translate(-878.000000, -503.000000)">
            <g id="Group-6" transform="translate(308.000000, 503.000000)">
                <g id="Group-40">
                    <g id="package" transform="translate(570.000000, 0.000000)">
                        <g id="Package">
                            <circle id="Oval" fill="#434770" fill-rule="nonzero" cx="25" cy="25" r="25"></circle>
                            <g id="package" transform="translate(10.000000, 10.000000)" fill-rule="nonzero">
                                <path d="M20.3233959,2.72064165 L15.9569931,0.913854288 C15.4261047,0.694176336 14.5715396,0.695151098 14.0430069,0.913854288 L1.45699306,6.12185999 C0.926104716,6.34153794 0.5,6.98251194 0.5,7.55569265 L0.5,22.4800216 C0.5,23.0543316 0.928460396,23.6951511 1.45699306,23.9138543 L14.0430069,29.12186 C14.5738953,29.3415379 15.4284604,29.3405632 15.9569931,29.12186 L28.5430069,23.9138543 C29.0738953,23.6941763 29.5,23.0532023 29.5,22.4800216 L29.5,7.55569265 C29.5,6.98138271 29.0715396,6.34056318 28.5430069,6.12185999 L24.0142252,4.24788134 L9.29035965,10.1374276 L9.26867568,10.1461012 C9.00265806,10.2525082 8.78571429,10.5711383 8.78571429,10.8571429 L8.78571429,16.0357143 L5.16071429,14.4821429 L5.16071429,9.30357143 C5.16071429,9.02039989 5.37767747,8.69892899 5.64531511,8.59187394 L5.67934386,8.57826248 L20.3233959,2.72064165 Z" id="Shape" fill="#FFCCA5"></path>
                                <path d="M28.5430069,6.91385429 C29.0715396,6.6951511 29.5,6.98138271 29.5,7.55569265 L29.5,22.4800216 C29.5,23.0532023 29.0738953,23.6941763 28.5430069,23.9138543 L15.9569931,29.12186 C15.4284604,29.3405632 15,29.0543316 15,28.4800216 L15,13.5556926 C15,12.9825119 15.4261047,12.3415379 15.9569931,12.12186 L28.5430069,6.91385429 Z" id="Shape" fill="#FFA27B"></path>
                            </g>
                        </g>
                    </g>
                </g>
            </g>
        </g>
    </g>
</svg>