<?xml version="1.0" encoding="UTF-8"?>
<svg width="26px" height="21px" viewBox="0 0 26 21" version="1.1" xmlns="http://www.w3.org/2000/svg" xmlns:xlink="http://www.w3.org/1999/xlink">
    <!-- Generator: Sketch 49.1 (51147) - http://www.bohemiancoding.com/sketch -->
    <title>speed-simple</title>
    <desc>Created with Sketch.</desc>
    <defs></defs>
    <g id="Page-1" stroke="none" stroke-width="1" fill="none" fill-rule="evenodd">
        <g id="03---Dashboard" transform="translate(-568.000000, -163.000000)">
            <g id="Group-12" transform="translate(541.000000, 134.000000)">
                <g id="Miles-Driven-Copy">
                    <g id="speed-simple" transform="translate(27.000000, 29.000000)">
                        <g id="Speed">
                            <path d="M0.84418496,17.8205664 C0.42621032,16.5561759 0.2,14.8045051 0.2,13.4 C0.2,6.3307552 5.9307552,0.6 13,0.6 C20.0692448,0.6 25.8,6.3307552 25.8,13.4 C25.8,14.7995274 25.5753902,16.5465943 25.1602519,17.8071197 C25.0399212,18.1724914 25.1602519,17.8071197 25.1602519,17.8071197 C24.9348176,18.399982 24.2289571,18.7690196 23.576024,18.6461195 C23.576024,18.6461195 20.2401022,17.8 13,17.8 C5.75989784,17.8 2.423976,18.6461195 2.423976,18.6461195 C1.77446532,18.775615 1.05374664,18.3776147 0.84418496,17.8205664 C0.84418496,17.8205664 0.88856924,17.9548307 0.84418496,17.8205664 Z" id="Shape" fill="#FFCCA5" fill-rule="nonzero"></path>
                            <path d="M15.6466946,16.0008315 C15.9958813,16.5135127 16.2,17.1329191 16.2,17.8 C16.2,19.5673112 14.7673112,21 13,21 C11.2326888,21 9.8,19.5673112 9.8,17.8 C9.8,16.0700249 11.1727944,14.6606832 12.88845,14.6019079 L18.041293,5.42741052 C18.3652721,4.85057456 19.1099108,4.6285488 19.6946578,4.92649224 L19.4712719,4.81267148 C20.060421,5.11285792 20.3145352,5.84256168 20.037844,6.44470404 L15.6466946,16.0008315 L15.6466946,16.0008315 Z M13,5.8 C12.1163444,5.8 11.4,5.0836556 11.4,4.2 C11.4,3.3163444 12.1163444,2.6 13,2.6 C13.8836556,2.6 14.6,3.3163444 14.6,4.2 C14.6,5.0836556 13.8836556,5.8 13,5.8 Z M7,8.6 C6.1163444,8.6 5.4,7.8836556 5.4,7 C5.4,6.1163444 6.1163444,5.4 7,5.4 C7.8836556,5.4 8.6,6.1163444 8.6,7 C8.6,7.8836556 7.8836556,8.6 7,8.6 Z M3.8,14.6 C2.9163444,14.6 2.2,13.8836556 2.2,13 C2.2,12.1163444 2.9163444,11.4 3.8,11.4 C4.6836556,11.4 5.4,12.1163444 5.4,13 C5.4,13.8836556 4.6836556,14.6 3.8,14.6 Z M22.2,14.6 C21.3163444,14.6 20.6,13.8836556 20.6,13 C20.6,12.1163444 21.3163444,11.4 22.2,11.4 C23.0836556,11.4 23.8,12.1163444 23.8,13 C23.8,13.8836556 23.0836556,14.6 22.2,14.6 Z" id="Shape" fill="#FFA27B" fill-rule="nonzero"></path>
                        </g>
                    </g>
                </g>
            </g>
        </g>
    </g>
</svg>