<?xml version="1.0" encoding="UTF-8"?>
<svg width="32px" height="26px" viewBox="0 0 32 26" version="1.1" xmlns="http://www.w3.org/2000/svg" xmlns:xlink="http://www.w3.org/1999/xlink">
    <!-- Generator: Sketch 49.1 (51147) - http://www.bohemiancoding.com/sketch -->
    <title>speed</title>
    <desc>Created with Sketch.</desc>
    <defs></defs>
    <g id="Page-1" stroke="none" stroke-width="1" fill="none" fill-rule="evenodd">
        <g id="07---Success-Page" transform="translate(-602.000000, -515.000000)" fill-rule="nonzero">
            <g id="Group-6" transform="translate(308.000000, 503.000000)">
                <g id="Group-40">
                    <g id="Speed" transform="translate(285.000000, 0.000000)">
                        <g id="speed" transform="translate(9.000000, 12.000000)">
                            <path d="M0.8052312,21.525708 C0.2827629,19.9452199 0,17.7556313 0,16 C0,7.163444 7.163444,0 16,0 C24.836556,0 32,7.163444 32,16 C32,17.7494092 31.7192378,19.9332429 31.2003148,21.5088996 C31.0499016,21.9656142 31.2003148,21.5088996 31.2003148,21.5088996 C30.918522,22.2499775 30.0361963,22.7112744 29.22003,22.5576494 C29.22003,22.5576494 25.0501277,21.5 16,21.5 C6.9498723,21.5 2.77997,22.5576494 2.77997,22.5576494 C1.96808165,22.7195187 1.0671833,22.2220184 0.8052312,21.525708 C0.8052312,21.525708 0.86071155,21.6935384 0.8052312,21.525708 Z" id="Shape" fill="#FFCCA5"></path>
                            <path d="M19.3083683,19.2510394 C19.7448517,19.8918909 20,20.6661489 20,21.5 C20,23.709139 18.209139,25.5 16,25.5 C13.790861,25.5 12,23.709139 12,21.5 C12,19.3375312 13.715993,17.575854 15.8605625,17.5023848 L22.3016163,6.03426315 C22.7065901,5.3132182 23.6373886,5.035686 24.3683222,5.4081153 L24.0890899,5.26583935 C24.8255263,5.6410724 25.143169,6.5532021 24.797305,7.30588005 L19.3083683,19.2510394 L19.3083683,19.2510394 Z M16,6.5 C14.8954305,6.5 14,5.6045695 14,4.5 C14,3.3954305 14.8954305,2.5 16,2.5 C17.1045695,2.5 18,3.3954305 18,4.5 C18,5.6045695 17.1045695,6.5 16,6.5 Z M8.5,10 C7.3954305,10 6.5,9.1045695 6.5,8 C6.5,6.8954305 7.3954305,6 8.5,6 C9.6045695,6 10.5,6.8954305 10.5,8 C10.5,9.1045695 9.6045695,10 8.5,10 Z M4.5,17.5 C3.3954305,17.5 2.5,16.6045695 2.5,15.5 C2.5,14.3954305 3.3954305,13.5 4.5,13.5 C5.6045695,13.5 6.5,14.3954305 6.5,15.5 C6.5,16.6045695 5.6045695,17.5 4.5,17.5 Z M27.5,17.5 C26.3954305,17.5 25.5,16.6045695 25.5,15.5 C25.5,14.3954305 26.3954305,13.5 27.5,13.5 C28.6045695,13.5 29.5,14.3954305 29.5,15.5 C29.5,16.6045695 28.6045695,17.5 27.5,17.5 Z" id="Shape" fill="#FFA27B"></path>
                        </g>
                    </g>
                </g>
            </g>
        </g>
    </g>
</svg>