<?xml version="1.0" encoding="UTF-8"?>
<svg width="25px" height="25px" viewBox="0 0 25 25" version="1.1" xmlns="http://www.w3.org/2000/svg" xmlns:xlink="http://www.w3.org/1999/xlink">
    <!-- Generator: Sketch 49.1 (51147) - http://www.bohemiancoding.com/sketch -->
    <title>tomato</title>
    <desc>Created with Sketch.</desc>
    <defs></defs>
    <g id="Page-1" stroke="none" stroke-width="1" fill="none" fill-rule="evenodd">
        <g id="03---Dashboard" transform="translate(-569.000000, -306.000000)">
            <g id="Group-12" transform="translate(541.000000, 134.000000)">
                <g id="Miles-Driven" transform="translate(0.000000, 144.000000)">
                    <g id="tomato" transform="translate(28.000000, 28.000000)">
                        <g id="tomato-1">
                            <path d="M12.2943908,4.37844639 C12.0748667,4.37844639 11.8553426,4.20339168 11.8553426,3.9845733 C11.8553426,3.89704595 11.7236282,1.75262582 13.7871544,0.0896061269 C13.9627737,-0.0416849015 14.2701074,-0.0416849015 14.4018219,0.177133479 C14.5335363,0.352188184 14.5335363,0.658533917 14.3140122,0.789824945 C12.6017245,2.14649891 12.7334389,3.89704595 12.7334389,3.89704595 C12.7334389,4.15962801 12.5578196,4.37844639 12.2943908,4.37844639 Z" id="Shape" fill="#D17D5A" fill-rule="nonzero"></path>
                            <path d="M24.5877388,12.6935449 C24.5877388,19.4769147 19.099637,24.9473742 12.2943908,24.9473742 C5.48914453,24.9473742 0.00104273934,19.4769147 0.00104273934,12.6935449 C0.00104273934,7.6607221 3.07437974,5.25371991 7.46486118,4.37844639 L8.78200561,5.69135667 L7.02581304,7.44190372 L10.9772463,6.12899344 L12.2943908,7.44190372 L13.6115352,6.12899344 L17.5629685,7.44190372 L15.8067759,5.69135667 L17.1239203,4.37844639 C21.5144018,5.25371991 24.5877388,7.6607221 24.5877388,12.6935449 Z" id="Shape" fill="#FFCCA5" fill-rule="nonzero"></path>
                            <polygon id="Shape" fill="#FFA27B" fill-rule="nonzero" points="17.5629685 7.44190372 13.6115352 6.12899344 12.2943908 7.44190372 10.9772463 6.12899344 7.02581304 7.44190372 10.5381982 3.94080963 8.78200561 2.19026258 12.2943908 3.94080963 15.8067759 2.19026258 14.0505833 3.94080963"></polygon>
                            <polygon id="Shape" fill="#D17D5A" fill-rule="nonzero" points="10.5381982 3.94080963 8.78200561 5.69135667 7.02581304 3.94080963"></polygon>
                            <polygon id="Shape" fill="#D17D5A" fill-rule="nonzero" points="17.5629685 3.94080963 15.8067759 5.69135667 14.0505833 3.94080963"></polygon>
                        </g>
                    </g>
                </g>
            </g>
        </g>
    </g>
</svg>