<?xml version="1.0" encoding="UTF-8"?>
<svg width="25px" height="33px" viewBox="0 0 25 33" version="1.1" xmlns="http://www.w3.org/2000/svg" xmlns:xlink="http://www.w3.org/1999/xlink">
    <!-- Generator: Sketch 49.1 (51147) - http://www.bohemiancoding.com/sketch -->
    <title>tree</title>
    <desc>Created with Sketch.</desc>
    <defs></defs>
    <g id="Page-1" stroke="none" stroke-width="1" fill="none" fill-rule="evenodd">
        <g id="03---Dashboard" transform="translate(-568.000000, -443.000000)">
            <g id="Group-12" transform="translate(541.000000, 134.000000)">
                <g id="Miles-Driven-Copy-2" transform="translate(0.000000, 288.000000)">
                    <g id="tree" transform="translate(27.000000, 21.000000)">
                        <g id="Tree">
                            <path d="M12.5,33 C19.4035594,33 25,27.1115712 25,19.8478261 C25,12.584081 12.5,0 12.5,0 C12.5,0 0,12.584081 0,19.8478261 C0,27.1115712 5.59644065,33 12.5,33 Z" id="Shape" fill="#FFCCA5" fill-rule="nonzero"></path>
                            <path d="M11.1111111,24.0850123 L11.1111111,13.7522535 C11.1111111,12.9916174 11.7344987,12.375 12.5,12.375 C13.2670621,12.375 13.8888889,12.9922653 13.8888889,13.7522535 L13.8888889,20.1802175 L16.4062246,17.7735642 C16.9570172,17.2469891 17.8365641,17.2640587 18.368326,17.8092077 C18.9011722,18.3554683 18.8867947,19.2250101 18.3358312,19.7517487 L13.8888889,24.0031674 L13.8888889,31.6227465 C13.8888889,32.3833826 13.2655013,33 12.5,33 C11.7329379,33 11.1111111,32.3827347 11.1111111,31.6227465 L11.1111111,27.9079622 L6.69421551,23.6852692 C6.14325204,23.1585305 6.12887458,22.2889887 6.66172069,21.7427281 C7.19348264,21.1975791 8.07302958,21.1805095 8.62382208,21.7070847 L11.1111111,24.0850123 Z" id="Shape" fill="#FFA27B" fill-rule="nonzero"></path>
                        </g>
                    </g>
                </g>
            </g>
        </g>
    </g>
</svg>