<?xml version="1.0" encoding="UTF-8"?>
<svg width="32px" height="22px" viewBox="0 0 32 22" version="1.1" xmlns="http://www.w3.org/2000/svg" xmlns:xlink="http://www.w3.org/1999/xlink">
    <!-- Generator: Sketch 49.1 (51147) - http://www.bohemiancoding.com/sketch -->
    <title>visa</title>
    <desc>Created with Sketch.</desc>
    <defs></defs>
    <g id="Page-1" stroke="none" stroke-width="1" fill="none" fill-rule="evenodd">
        <g id="06a---Checkout-Copy" transform="translate(-778.000000, -214.000000)">
            <g id="cards" transform="translate(738.000000, 214.000000)">
                <g id="visa" transform="translate(40.000000, 0.000000)">
                    <g id="credit-cards_visa" transform="translate(0.235294, 0.000000)">
                        <g id="Layer_1" fill-rule="nonzero">
                            <g id="Group">
                                <rect id="Rectangle-path" fill="#F9F9F9" x="0" y="5.60553633" width="31.7647059" height="9.96539792"></rect>
                                <path d="M1.32352941,0 L30.4411765,0 C31.1691176,0 31.7647059,0.560553633 31.7647059,1.24567474 L31.7647059,5.60553633 L0,5.60553633 L0,1.24567474 C0,0.560553633 0.595588235,0 1.32352941,0 Z" id="Shape" fill="#09599E"></path>
                                <path d="M0,15.5709343 L31.7647059,15.5709343 L31.7647059,19.9307958 C31.7647059,20.615917 31.1691176,21.1764706 30.4411765,21.1764706 L1.32352941,21.1764706 C0.595588235,21.1764706 0,20.615917 0,19.9307958 L0,15.5709343 Z" id="Shape" fill="#E59703"></path>
                                <path d="M1.32352941,21.1453287 C0.595588235,21.1453287 0,20.5847751 0,19.899654 L0,1.24567474 C0,0.560553633 0.595588235,0 1.32352941,0 L30.4411765,0 C31.1691176,0 31.7647059,0.560553633 31.7647059,1.24567474" id="Shape" fill="#FFFFFF" opacity="0.05"></path>
                                <g transform="translate(5.625000, 7.785467)" id="Shape">
                                    <polygon fill="#00589F" points="6.65073529 5.41868512 7.61029412 0.155709343 9.13235294 0.155709343 8.17279412 5.41868512"></polygon>
                                    <path d="M13.6985294,0.311418685 C13.4007353,0.21799308 12.9375,0.0934256055 12.3419118,0.0934256055 C10.8198529,0.0934256055 9.76102941,0.809688581 9.76102941,1.83737024 C9.76102941,2.58477509 10.5220588,3.02076125 11.0845588,3.26989619 C11.6801471,3.51903114 11.8786765,3.70588235 11.8786765,3.92387543 C11.8786765,4.26643599 11.4154412,4.4532872 10.9522059,4.4532872 C10.3566176,4.4532872 10.0257353,4.35986159 9.52941176,4.17301038 L9.33088235,4.04844291 L9.13235294,5.23183391 C9.49632353,5.38754325 10.1580882,5.51211073 10.8198529,5.51211073 C12.4080882,5.51211073 13.4669118,4.79584775 13.4669118,3.70588235 C13.4669118,3.11418685 13.0698529,2.64705882 12.1764706,2.2733564 C11.6470588,2.02422145 11.3161765,1.86851211 11.3161765,1.61937716 C11.3161765,1.40138408 11.5808824,1.15224913 12.1764706,1.15224913 C12.6727941,1.15224913 13.0367647,1.24567474 13.3014706,1.33910035 L13.4338235,1.40138408 L13.6985294,0.311418685" fill="#00589F"></path>
                                    <path d="M17.6029412,0.186851211 L16.4117647,0.186851211 C16.0477941,0.186851211 15.7830882,0.280276817 15.6176471,0.62283737 L13.3676471,5.44982699 L14.9558824,5.44982699 C14.9558824,5.44982699 15.2205882,4.79584775 15.2867647,4.67128028 L17.2389706,4.67128028 C17.2720588,4.85813149 17.4375,5.44982699 17.4375,5.44982699 L18.8602941,5.44982699 L17.6029412,0.186851211 L17.6029412,0.186851211 Z M15.7169118,3.55017301 C15.8492647,3.23875433 16.3125,2.08650519 16.3125,2.08650519 C16.3125,2.08650519 16.4448529,1.77508651 16.5110294,1.58823529 L16.6102941,2.05536332 C16.6102941,2.05536332 16.9080882,3.30103806 16.9742647,3.58131488 L15.7169118,3.58131488 L15.7169118,3.55017301 Z" fill="#00589F"></path>
                                    <path d="M5.36029412,0.186851211 L3.87132353,3.76816609 L3.70588235,3.05190311 C3.44117647,2.21107266 2.54779412,1.30795848 1.58823529,0.84083045 L2.97794118,5.41868512 L4.59926471,5.41868512 L7.01470588,0.155709343 L5.36029412,0.155709343" fill="#00589F"></path>
                                    <path d="M2.48161765,0.155709343 L0.0330882353,0.155709343 L0,0.280276817 C1.91911765,0.716262976 3.17647059,1.77508651 3.70588235,3.02076125 L3.17647059,0.62283737 C3.11029412,0.280276817 2.8125,0.186851211 2.48161765,0.155709343" fill="#F9A51A"></path>
                                </g>
                            </g>
                        </g>
                    </g>
                </g>
            </g>
        </g>
    </g>
</svg>