<svg width="33" height="22" viewBox="0 0 33 22" xmlns="http://www.w3.org/2000/svg">
    <title>
        amex
    </title>
    <g fill-rule="nonzero" fill="none">
        <path d="M1.794 0h29.118c.728 0 1.323.56 1.323 1.246V19.93c0 .685-.595 1.245-1.323 1.245H1.794c-.728 0-1.323-.56-1.323-1.245V1.246C.47.56 1.066 0 1.794 0z" fill="#2AA0D0"/>
        <path d="M22.309 8.097h-3.97c-.166 0-.332.124-.332.28 0-.156-.165-.28-.33-.28h-1.92c-.132 0-.264.062-.297.187l-1.06 2.491-1.323-2.522c-.066-.094-.165-.187-.298-.187h-1.72c-.199 0-.331.124-.331.311v2.927L9.272 8.253c-.066-.125-.165-.187-.298-.187H7.221c-.133 0-.232.062-.298.187l-2.283 4.67a.35.35 0 0 0 .033.312c.066.094.165.156.264.156H6.36c.133 0 .265-.062.298-.187l.496-1.059h1.82l.463 1.06c.067.124.166.186.298.186h2.647c.199 0 .331-.125.331-.311v-1.776l.827 1.9c.067.125.166.187.298.187h1.026c.132 0 .265-.062.298-.187l.86-1.93v1.806c0 .186.132.311.33.311h1.324c.166 0 .331-.125.331-.28 0 .155.166.28.331.28h3.97c.2 0 .332-.125.332-.311v-.935c0-.187-.133-.311-.331-.311h-2.316v-.312h2.25c.198 0 .33-.124.33-.31v-.935c0-.187-.132-.312-.33-.312h-2.25v-.311h2.316c.198 0 .33-.125.33-.311v-.935c0-.155-.165-.311-.33-.311zM7.783 10.588l.298-.623.298.623h-.596z" fill="#2AA0D0"/>
        <path d="M27.835 12.114l-1.324-1.339 1.324-1.339a.275.275 0 0 0 .099-.218v-.81a.275.275 0 0 0-.1-.218.31.31 0 0 0-.231-.093h-.893a.39.39 0 0 0-.265.093l-1.158 1.308-1.191-1.277c-.067-.093-.133-.124-.232-.124h-.893c-.199 0-.331.124-.331.311v4.672c0 .186.132.311.33.311h.795a.31.31 0 0 0 .231-.093l1.258-1.246 1.257 1.246a.37.37 0 0 0 .232.093h.86a.31.31 0 0 0 .232-.093.275.275 0 0 0 .099-.218v-.748a.275.275 0 0 0-.1-.218zm-4.534-.592V9.997l.761.747-.76.778z" fill="#2AA0D0"/>
        <path fill="#FFF" d="M7.287 10.9h1.588l-.794-1.682z"/>
        <path fill="#FFF" d="M22.97 12.332l1.556-1.557-1.555-1.557z"/>
        <path d="M28.1 11.896l-1.126-1.12L28.1 9.653c.1-.125.166-.28.166-.436v-.81a.598.598 0 0 0-.199-.436.674.674 0 0 0-.463-.187h-.893a.61.61 0 0 0-.497.218L25.287 9l-.927-.997a.723.723 0 0 0-.496-.218h-.893a.584.584 0 0 0-.331.094.584.584 0 0 0-.331-.094h-3.97a.584.584 0 0 0-.332.094.584.584 0 0 0-.33-.094h-1.92c-.264 0-.53.156-.628.405l-.794 1.869-.993-1.9c-.1-.218-.331-.342-.596-.342H11.06c-.364 0-.662.28-.662.622v1.464L9.57 8.19a.655.655 0 0 0-.596-.373H7.221a.655.655 0 0 0-.596.373l-2.283 4.672c-.1.186-.066.404.033.591.132.187.33.28.562.28H6.36a.655.655 0 0 0 .596-.373l.397-.872h1.39l.364.872c.099.249.33.405.628.405h2.647c.364 0 .662-.28.662-.623v-.218l.199.467c.099.218.33.374.595.374h1.026a.747.747 0 0 0 .629-.374l.198-.467v.156c0 .342.298.622.662.622h1.323a.584.584 0 0 0 .331-.093c.1.062.199.093.331.093h3.97a.584.584 0 0 0 .332-.093c.099.062.198.093.33.093h.795a.755.755 0 0 0 .496-.186l1.026-1.028 1.025 1.028a.696.696 0 0 0 .497.186h.794c.165 0 .33-.062.463-.186a.598.598 0 0 0 .199-.436v-.748a.717.717 0 0 0-.166-.436zM17.675 13.08h-1.323V9.685l-1.489 3.395h-1.026l-1.456-3.364v3.364H9.735l-.53-1.246h-2.25l-.562 1.246H4.971l2.283-4.672h1.753l2.085 4.36v-4.36h1.687l1.655 3.146 1.323-3.146h1.92v4.672zm4.633-3.737h-2.647v.934h2.58v.934h-2.58v.934h2.647v.935h-3.97V8.408h3.97v.935zm4.5 3.737l-1.522-1.495-1.522 1.495h-.794V8.408h.893l1.423 1.557 1.423-1.557h.893v.81l-1.555 1.557 1.555 1.557v.748h-.794z" fill="#FFF"/>
        <path d="M1.794 21.176h.596l29.845-19.37v-.56C32.235.56 31.64 0 30.912 0H1.794C1.066 0 .471.56.471 1.246V19.93c0 .685.595 1.245 1.323 1.245z" fill="#FFF" opacity=".05"/>
    </g>
</svg>
