<svg width="71" height="76" viewBox="0 0 71 76" xmlns="http://www.w3.org/2000/svg" xmlns:xlink="http://www.w3.org/1999/xlink">
    <title>
        baskets
    </title>
    <defs>
        <ellipse id="a" cx="28.387" cy="68.775" rx="6.263" ry="6.225"/>
        <ellipse id="b" cx="41.175" cy="16.178" rx="3.825" ry="3.802"/>
        <path id="c" d="M0 0h25.505L21.79 24.588H3.714z"/>
    </defs>
    <g fill="none" fill-rule="evenodd">
        <path d="M1.444 13.151l-.413 3.357a.15.15 0 0 0 .13.166l38.401 4.716.805-3.372a.224.224 0 0 0-.19-.274L1.61 13.02a.15.15 0 0 0-.166.13z" fill="#FFA27B"/>
        <path d="M6.434 2.457l34.72 11.955-1.045 3.031L3.205 4.736l.29-.846a2.311 2.311 0 0 1 2.939-1.433z" fill="#FFA27B"/>
        <path d="M31.43 61.973a8.535 8.535 0 0 0-3.117-.585c-4.702 0-8.513 3.788-8.513 8.461 0 .214.008.427.024.637l-17.702-1.97a2.237 2.237 0 0 1-1.987-2.327l2.303-49.384 37.124 4.473-8.133 40.695z" fill="#FFCCA5"/>
        <g transform="translate(0 1)">
            <use fill="#FFF" xlink:href="#a"/>
            <ellipse stroke="#FFA27B" stroke-width="2.237" cx="28.387" cy="68.775" rx="5.144" ry="5.107"/>
        </g>
        <g transform="translate(0 1)">
            <use fill="#FFCCA5" xlink:href="#b"/>
            <ellipse stroke="#FFA27B" stroke-width="1.491" cx="41.175" cy="16.178" rx="3.079" ry="3.057"/>
        </g>
        <path d="M16.163 5.846l1.022-2.643a2.46 2.46 0 0 1 3.088-1.44l9.604 3.274a2.46 2.46 0 0 1 1.52 3.166l-1.172 3.234" stroke="#FFA27B" stroke-width="2.237" stroke-linecap="square"/>
        <g transform="translate(45 38)">
            <path d="M24.188 13.686C23.42 6.593 18.636 1.242 13.015 1.242S2.61 6.592 1.84 13.686h22.347zm1.245 0l.008.082-1.113 1.16h-.048c-.017-.42-.048-.834-.092-1.242h1.245zM.51 14.928C.827 6.617 6.304 0 13.015 0c6.71 0 12.188 6.617 12.505 14.928H.51z" fill="#FFA27B" fill-rule="nonzero"/>
            <g transform="translate(.248 13.412)">
                <mask id="d" fill="#fff">
                    <use xlink:href="#c"/>
                </mask>
                <use fill="#FFCCA5" xlink:href="#c"/>
                <path fill="#FFA27B" mask="url(#d)" d="M0 0h12.752v24.588H1.857z"/>
            </g>
            <rect fill="#FFF" x="24.762" y="11.673" width="1.238" height="3.477" rx=".619"/>
            <rect fill="#FFF" y="11.673" width="1.238" height="3.477" rx=".619"/>
        </g>
    </g>
</svg>
