<svg width="71" height="63" viewBox="0 0 71 63" xmlns="http://www.w3.org/2000/svg">
    <title>
        build
    </title>
    <g fill="none" fill-rule="evenodd">
        <path d="M34.843 8.038H6.512a.612.612 0 0 0-.615.609v47.945c0 .336.276.61.615.61h9.144a.478.478 0 0 0 .478-.478V46.648c0-.264.214-.478.478-.478h8.13c.265 0 .479.214.479.478v10.076c0 .264.214.478.478.478h9.144c.34 0 .615-.274.615-.61V8.647a.61.61 0 0 0-.615-.609zm-9.28 8.029h3.752a.478.478 0 0 0 .478-.478v-3.732a.478.478 0 0 0-.478-.478h-3.751a.478.478 0 0 0-.478.478v3.732c0 .264.214.478.478.478zm0 6.682h3.752a.478.478 0 0 0 .478-.478v-3.732a.478.478 0 0 0-.478-.478h-3.751a.478.478 0 0 0-.478.478v3.732c0 .264.214.478.478.478zm-6.715-6.682h3.756a.478.478 0 0 0 .478-.478v-3.732a.478.478 0 0 0-.478-.478h-3.756a.478.478 0 0 0-.478.478v3.732c0 .264.214.478.478.478zm0 6.682h3.756a.478.478 0 0 0 .478-.478v-3.732a.478.478 0 0 0-.478-.478h-3.756a.478.478 0 0 0-.478.478v3.732c0 .264.214.478.478.478zm-6.717-6.682h3.756a.478.478 0 0 0 .478-.478v-3.732a.478.478 0 0 0-.478-.478H12.13a.478.478 0 0 0-.478.478v3.732c0 .264.214.478.478.478zm0 6.682h3.756a.478.478 0 0 0 .478-.478v-3.732a.478.478 0 0 0-.478-.478H12.13a.478.478 0 0 0-.478.478v3.732c0 .264.214.478.478.478zm13.433 6.204h3.751a.478.478 0 0 0 .478-.478v-3.731a.478.478 0 0 0-.478-.478h-3.751a.478.478 0 0 0-.478.478v3.731c0 .264.214.478.478.478zm-6.716 0h3.756a.478.478 0 0 0 .478-.478v-3.731a.478.478 0 0 0-.478-.478h-3.756a.478.478 0 0 0-.478.478v3.731c0 .264.214.478.478.478zm-6.717 0h3.756a.478.478 0 0 0 .478-.478v-3.731a.478.478 0 0 0-.478-.478H12.13a.478.478 0 0 0-.478.478v3.731c0 .264.214.478.478.478zm13.433 6.205h3.751a.478.478 0 0 0 .478-.478v-3.732a.478.478 0 0 0-.478-.478h-3.751a.478.478 0 0 0-.478.478v3.732c0 .264.214.478.478.478zm-6.716 0h3.756a.478.478 0 0 0 .478-.478v-3.732a.478.478 0 0 0-.478-.478h-3.756a.478.478 0 0 0-.478.478v3.732c0 .264.214.478.478.478zm-6.717 0h3.756a.478.478 0 0 0 .478-.478v-3.732a.478.478 0 0 0-.478-.478H12.13a.478.478 0 0 0-.478.478v3.732c0 .264.214.478.478.478zm13.433 6.204h3.751a.478.478 0 0 0 .478-.478v-3.731a.478.478 0 0 0-.478-.478h-3.751a.478.478 0 0 0-.478.478v3.731c0 .264.214.478.478.478zm-6.716 0h3.756a.478.478 0 0 0 .478-.478v-3.731a.478.478 0 0 0-.478-.478h-3.756a.478.478 0 0 0-.478.478v3.731c0 .264.214.478.478.478zm-6.717 0h3.756a.478.478 0 0 0 .478-.478v-3.731a.478.478 0 0 0-.478-.478H12.13a.478.478 0 0 0-.478.478v3.731c0 .264.214.478.478.478z" fill="#FFA27B"/>
        <path d="M66.275 20.836a.61.61 0 0 1 .614.61v35.146c0 .336-.273.61-.614.61h-8.7a.478.478 0 0 1-.478-.478V46.648a.478.478 0 0 0-.478-.478h-8.13a.478.478 0 0 0-.479.478v10.076a.478.478 0 0 1-.478.478h-9.587a.612.612 0 0 1-.615-.61V21.445c0-.336.274-.61.615-.61h28.33zm-9.529 8.595h3.752a.478.478 0 0 0 .478-.479v-3.731a.478.478 0 0 0-.478-.478h-3.752a.478.478 0 0 0-.478.478v3.731c0 .264.214.479.478.479zm0 6.681h3.752a.478.478 0 0 0 .478-.478v-3.731a.478.478 0 0 0-.478-.478h-3.752a.478.478 0 0 0-.478.478v3.731c0 .264.214.478.478.478zm-6.716-6.681h3.756a.478.478 0 0 0 .478-.479v-3.731a.478.478 0 0 0-.478-.478H50.03a.478.478 0 0 0-.478.478v3.731c0 .264.214.479.478.479zm0 6.681h3.756a.478.478 0 0 0 .478-.478v-3.731a.478.478 0 0 0-.478-.478H50.03a.478.478 0 0 0-.478.478v3.731c0 .264.214.478.478.478zm-6.716-6.681h3.755a.478.478 0 0 0 .478-.479v-3.731a.478.478 0 0 0-.478-.478h-3.755a.478.478 0 0 0-.478.478v3.731c0 .264.214.479.478.479zm0 6.681h3.755a.478.478 0 0 0 .478-.478v-3.731a.478.478 0 0 0-.478-.478h-3.755a.478.478 0 0 0-.478.478v3.731c0 .264.214.478.478.478zm13.432 6.205h3.752a.478.478 0 0 0 .478-.478v-3.732a.478.478 0 0 0-.478-.478h-3.752a.478.478 0 0 0-.478.478v3.732c0 .264.214.478.478.478zm-6.716 0h3.756a.478.478 0 0 0 .478-.478v-3.732a.478.478 0 0 0-.478-.478H50.03a.478.478 0 0 0-.478.478v3.732c0 .264.214.478.478.478zm-6.716 0h3.755a.478.478 0 0 0 .478-.478v-3.732a.478.478 0 0 0-.478-.478h-3.755a.478.478 0 0 0-.478.478v3.732c0 .264.214.478.478.478z" fill="#FFA27B"/>
        <path d="M10.34 7.364h8.946a.614.614 0 0 0 .613-.61V.955a.614.614 0 0 0-.613-.61H10.34a.609.609 0 0 0-.612.61v5.797c0 .338.271.611.612.611" fill="#FFCCA5"/>
        <path d="M40.345 20.161h8.942a.612.612 0 0 0 .613-.61v-5.797a.612.612 0 0 0-.613-.61h-8.942a.613.613 0 0 0-.615.61v5.798c0 .335.275.61.615.61" fill="#FFCCA5"/>
        <path d="M.846 62.655h69.239a.478.478 0 0 0 .478-.478v-2.63a.478.478 0 0 0-.478-.479H.846a.478.478 0 0 0-.478.478v2.63c0 .265.214.48.478.48z" fill="#FFCCA5"/>
    </g>
</svg>
