<svg width="22" height="23" viewBox="0 0 22 23" xmlns="http://www.w3.org/2000/svg">
    <title>
        calendar-simple
    </title>
    <g fill-rule="nonzero" fill="none">
        <path d="M21.4 4.404c0-.889-.715-1.604-1.598-1.604H2.198C1.316 2.8.6 3.518.6 4.404v16.392c0 .889.715 1.604 1.598 1.604h17.604c.882 0 1.598-.718 1.598-1.604V4.404z" fill="#FFCCA5"/>
        <path d="M21.4 8.8V4.4a1.6 1.6 0 0 0-1.598-1.6H2.198A1.6 1.6 0 0 0 .6 4.4v4.4h20.8z" fill="#FFA27B"/>
        <path d="M5 1.203C5 .76 5.36.4 5.8.4h.8c.442 0 .8.36.8.803v3.194c0 .443-.36.803-.8.803h-.8c-.442 0-.8-.36-.8-.803V1.203zm9.6 0c0-.443.36-.803.8-.803h.8c.442 0 .8.36.8.803v3.194c0 .443-.36.803-.8.803h-.8c-.442 0-.8-.36-.8-.803V1.203z" fill="#FFCCA5"/>
    </g>
</svg>
