<svg width="49" height="53" viewBox="0 0 49 53" xmlns="http://www.w3.org/2000/svg">
    <title>
        calendar-number
    </title>
    <g fill="none" fill-rule="evenodd">
        <path d="M48.967 14.422H.011V5.079c0-1.476 1.185-2.672 2.647-2.672H46.32c1.461 0 2.646 1.196 2.646 2.672v9.343z" fill="#FFA27B"/>
        <path d="M11.26 7.751a1.994 1.994 0 0 1-1.985 2.004A1.994 1.994 0 0 1 7.29 7.75c0-1.107.888-2.004 1.985-2.004 1.096 0 1.985.897 1.985 2.004" fill="#FFCCA5"/>
        <path d="M9.275 9.031a.997.997 0 0 1-.992-1.001V1.043A.997.997 0 0 1 9.275.04c.548 0 .992.449.992 1.003V8.03a.997.997 0 0 1-.992 1.001" fill="#F6F6F6"/>
        <path d="M41.697 7.751a1.994 1.994 0 0 1-1.985 2.004 1.994 1.994 0 0 1-1.985-2.004c0-1.107.888-2.004 1.985-2.004 1.096 0 1.985.897 1.985 2.004" fill="#FFCCA5"/>
        <path d="M46.32 52.488H2.659c-1.462 0-2.647-1.196-2.647-2.672V14.422h48.956v35.394c0 1.476-1.185 2.672-2.646 2.672" fill="#FFA27B"/>
        <path d="M46.64 47.839H2.339a1.271 1.271 0 0 1-1.265-1.277v-32.14h46.833v32.14c0 .705-.567 1.277-1.265 1.277" fill="#FFF"/>
        <path d="M39.712 9.031a.997.997 0 0 1-.992-1.001V1.043A.997.997 0 0 1 39.712.04c.547 0 .991.449.991 1.003V8.03a.997.997 0 0 1-.991 1.001" fill="#F6F6F6"/>
        <path fill="#545ABF" d="M16.606 26.914l-2.906.722-.761-3.03 4.786-1.443h2.5v16.95h-3.619z"/>
        <path fill="#545ABF" d="M31.872 26.482h-7.835v-3.198H36.04v2.79l-7.477 14.04h-4.144z"/>
    </g>
</svg>
