<?xml version="1.0" encoding="utf-8"?>
<!-- Generator: Adobe Illustrator 21.1.0, SVG Export Plug-In . SVG Version: 6.00 Build 0)  -->
<svg version="1.1" id="Слой_1" xmlns="http://www.w3.org/2000/svg" xmlns:xlink="http://www.w3.org/1999/xlink" x="0px" y="0px"
	 viewBox="0 0 31.8 19.1" style="enable-background:new 0 0 31.8 19.1;" xml:space="preserve">
<style type="text/css">
	.st0{fill:#86E8AB;}
	.st1{fill:#59C78A;}
	.st2{fill:#2F8E59;}
</style>
<title>card</title>
<desc>Created with Sketch.</desc>
<g id="Page-1">
	<g id="_x30_6a---Checkout-Copy" transform="translate(-811.000000, -358.000000)">
		<g id="Group-2" transform="translate(171.000000, 348.000000)">
			<g id="card" transform="translate(640.000000, 10.000000)">
				<g id="card_icon">
					<g id="Rectangle-4">
						<g>
							<g id="path-1">
								<path class="st0" d="M2.1,0h27.5c1.2,0,2.1,0.9,2.1,2.1v14.8c0,1.2-0.9,2.1-2.1,2.1H2.1c-1.2,0-2.1-0.9-2.1-2.1V2.1
									C0,0.9,0.9,0,2.1,0z"/>
							</g>
						</g>
						<g>
							<path class="st1" d="M29.1,19.1H2.6c-1.5,0-2.6-1.2-2.6-2.6V2.6C0,1.2,1.2,0,2.6,0h26.5c1.5,0,2.6,1.2,2.6,2.6v13.8
								C31.8,17.9,30.6,19.1,29.1,19.1z M2.6,1.1c-0.9,0-1.6,0.7-1.6,1.6v13.8c0,0.9,0.7,1.6,1.6,1.6h26.5c0.9,0,1.6-0.7,1.6-1.6
								V2.6c0-0.9-0.7-1.6-1.6-1.6H2.6z"/>
						</g>
					</g>
					<g id="Rectangle-5">
						<path class="st2" d="M7.4,5.3h3.2c0.6,0,1.1,0.5,1.1,1.1v1.1c0,0.6-0.5,1.1-1.1,1.1H7.4C6.8,8.5,6.4,8,6.4,7.4V6.4
							C6.4,5.8,6.8,5.3,7.4,5.3z"/>
					</g>
					<g id="Line">
						<rect x="5.8" y="12.7" class="st2" width="20.1" height="1.1"/>
					</g>
				</g>
			</g>
		</g>
	</g>
</g>
</svg>
