<svg width="50" height="50" viewBox="0 0 50 50" xmlns="http://www.w3.org/2000/svg">
    <title>
        clipboard
    </title>
    <g fill-rule="nonzero" fill="none">
        <circle fill="#434770" cx="25" cy="25" r="25"/>
        <path d="M12 13.5c0-.829.669-1.5 1.5-1.5h23c.828 0 1.5.667 1.5 1.5v24c0 .829-.669 1.5-1.5 1.5h-23c-.828 0-1.5-.667-1.5-1.5v-24zm9 6.5c0 .556.449 1 1.002 1h10.496a.999.999 0 0 0 1.002-1c0-.556-.449-1-1.002-1H22.002A.999.999 0 0 0 21 20zm0 6c0 .556.449 1 1.002 1h10.496a.999.999 0 0 0 1.002-1c0-.556-.449-1-1.002-1H22.002A.999.999 0 0 0 21 26zm0 6c0 .556.449 1 1.002 1h10.496a.999.999 0 0 0 1.002-1c0-.556-.449-1-1.002-1H22.002A.999.999 0 0 0 21 32zm-3-10a2 2 0 1 0 0-4 2 2 0 0 0 0 4zm0 6a2 2 0 1 0 0-4 2 2 0 0 0 0 4zm0 6a2 2 0 1 0 0-4 2 2 0 0 0 0 4z" fill="#FFCCA5"/>
        <path d="M21.541 9.5H19a2 2 0 0 0-2 2.001v3.001c0 .276.223.498.5.498h14c.276 0 .5-.223.5-.498v-3A2 2 0 0 0 30 9.5H27.46a3 3 0 0 0-5.918 0z" fill="#FFA27B"/>
    </g>
</svg>
