<svg width="56" height="56" viewBox="0 0 56 56" xmlns="http://www.w3.org/2000/svg">
    <title>
        CFD16CF1-220D-4AD2-8BCC-6412DB77F50B
    </title>
    <g fill-rule="nonzero" fill="none">
        <circle fill="#B7F5BA" cx="28" cy="28" r="28"/>
        <path d="M13.4 32.582c1.095-4.255 3.81-11.73 9.88-15.234 8.754-5.054 21.172.065 21.172.065s-1.776 13.313-10.53 18.368c-5.832 3.367-13.29 2.22-17.62 1.078l-2.993 3.128a1.29 1.29 0 0 1-1.665.132l-.197-.149c-.492-.37-.53-1.01-.082-1.427 0 0 .756-.695 1.428-1.342l.002.002s5.353-5.257 8.313-7.557c2.959-2.3 11.068-7.51 11.068-7.51s-4.905 1.574-10.258 4.822c-3.065 1.86-6.307 4.072-8.518 5.624z" fill="#00BA76"/>
    </g>
</svg>
