<svg width="33" height="31" viewBox="0 0 33 31" xmlns="http://www.w3.org/2000/svg">
    <title>
        home-simple
    </title>
    <g fill="none" fill-rule="evenodd">
        <path d="M30.95 10.67H1.255a1.124 1.124 0 0 1-.898-1.8L3.91 4.16c.213-.283.545-.449.898-.449h22.59c.353 0 .685.166.898.448l3.552 4.711c.557.741.029 1.8-.899 1.8" fill="#FFCCA5"/>
        <path d="M10.926 3.093h2.942a.285.285 0 0 0 .285-.285V.285A.285.285 0 0 0 13.868 0h-2.942a.285.285 0 0 0-.284.285v2.523c0 .158.127.285.284.285z" fill="#FFA27B"/>
        <path d="M2.869 11.857v18.366c0 .157.127.284.285.284h7.788a.285.285 0 0 0 .285-.284v-5.711a.7.7 0 0 1 .7-.7h8.352a.7.7 0 0 1 .7.7v5.71c0 .158.127.285.284.285h7.789a.285.285 0 0 0 .285-.284V11.857a.57.57 0 0 0-.57-.57H3.438a.57.57 0 0 0-.57.57zm4.355 7.274h2.18a.285.285 0 0 0 .285-.285v-2.178a.285.285 0 0 0-.285-.285h-2.18a.285.285 0 0 0-.284.285v2.178c0 .157.127.285.284.285zm0-3.333h2.18a.285.285 0 0 0 .285-.285v-2.177a.285.285 0 0 0-.285-.284h-2.18a.285.285 0 0 0-.284.284v2.177c0 .158.127.285.284.285zm3.336 3.333h2.178a.285.285 0 0 0 .285-.285v-2.178a.285.285 0 0 0-.285-.285H10.56a.285.285 0 0 0-.285.285v2.178c0 .157.127.285.285.285zm0-3.333h2.178a.285.285 0 0 0 .285-.285v-2.177a.285.285 0 0 0-.285-.284H10.56a.285.285 0 0 0-.285.284v2.177c0 .158.127.285.285.285zm8.906 3.333h2.18a.285.285 0 0 0 .285-.285v-2.178a.285.285 0 0 0-.285-.285h-2.18a.285.285 0 0 0-.284.285v2.178c0 .157.127.285.284.285zm0-3.333h2.18a.285.285 0 0 0 .285-.285v-2.177a.285.285 0 0 0-.285-.284h-2.18a.285.285 0 0 0-.284.284v2.177c0 .158.127.285.284.285zm3.334 3.333h2.182a.285.285 0 0 0 .285-.285v-2.178a.285.285 0 0 0-.285-.285H22.8a.285.285 0 0 0-.285.285v2.178c0 .157.128.285.285.285zm0-3.333h2.182a.285.285 0 0 0 .285-.285v-2.177a.285.285 0 0 0-.285-.284H22.8a.285.285 0 0 0-.285.284v2.177c0 .158.128.285.285.285z" fill="#FFA27B"/>
    </g>
</svg>
