<svg width="53" height="57" viewBox="0 0 53 57" xmlns="http://www.w3.org/2000/svg">
    <title>
        icecream
    </title>
    <defs>
        <linearGradient x1=".669%" y1="49.987%" x2="100.081%" y2="49.987%" id="a">
            <stop stop-color="#FFEDD2" offset="0%"/>
            <stop stop-color="#FFE4C3" offset="45.37%"/>
            <stop stop-color="#FFD6AC" offset="100%"/>
        </linearGradient>
        <linearGradient x1=".064%" y1="50.103%" x2="100.556%" y2="50.103%" id="b">
            <stop stop-color="#C06053" offset="0%"/>
            <stop stop-color="#C06653" offset="0%"/>
            <stop stop-color="#B34747" offset="100%"/>
        </linearGradient>
        <linearGradient x1="0%" y1="50.026%" x2="100.086%" y2="50.026%" id="c">
            <stop stop-color="#FFBF65" offset="0%"/>
            <stop stop-color="#F9A06A" offset="100%"/>
        </linearGradient>
        <linearGradient x1="2.144%" y1="50.659%" x2="100.957%" y2="50.659%" id="d">
            <stop stop-color="#8DBF95" offset="0%"/>
            <stop stop-color="#A3D395" offset="100%"/>
        </linearGradient>
        <linearGradient x1=".66%" y1="51.26%" x2="97.691%" y2="51.26%" id="e">
            <stop stop-color="#8DBF95" offset="0%"/>
            <stop stop-color="#A3D395" offset="100%"/>
        </linearGradient>
        <linearGradient x1="2.045%" y1="50.113%" x2="99.148%" y2="50.113%" id="f">
            <stop stop-color="#8DBF95" offset="0%"/>
            <stop stop-color="#A3D395" offset="100%"/>
        </linearGradient>
        <linearGradient x1=".56%" y1="51.803%" x2="98.056%" y2="51.803%" id="g">
            <stop stop-color="#8DBF95" offset="0%"/>
            <stop stop-color="#A3D395" offset="100%"/>
        </linearGradient>
        <linearGradient x1="-4.332%" y1="48.674%" x2="99.432%" y2="48.674%" id="h">
            <stop stop-color="#8DBF95" offset="0%"/>
            <stop stop-color="#A3D395" offset="100%"/>
        </linearGradient>
        <linearGradient x1="-.37%" y1="49.708%" x2="97.84%" y2="49.708%" id="i">
            <stop stop-color="#8DBF95" offset="0%"/>
            <stop stop-color="#A3D395" offset="100%"/>
        </linearGradient>
        <linearGradient x1="-1.412%" y1="47.306%" x2="99.83%" y2="47.306%" id="j">
            <stop stop-color="#8DBF95" offset="0%"/>
            <stop stop-color="#A3D395" offset="100%"/>
        </linearGradient>
        <linearGradient x1="1.711%" y1="51.161%" x2="99.378%" y2="51.161%" id="k">
            <stop stop-color="#8DBF95" offset="0%"/>
            <stop stop-color="#A3D395" offset="100%"/>
        </linearGradient>
        <linearGradient x1="-.134%" y1="49.494%" x2="100.087%" y2="49.494%" id="l">
            <stop stop-color="#FFEDD2" offset="0%"/>
            <stop stop-color="#FFE4C3" offset="45.37%"/>
            <stop stop-color="#FFD6AC" offset="100%"/>
        </linearGradient>
    </defs>
    <g fill-rule="nonzero" fill="none">
        <path d="M10.865 55.748c-1.493 0-2.705-1.236-2.705-2.758V31.965c0-1.522 1.212-2.759 2.705-2.759 1.492 0 2.704 1.237 2.704 2.759V52.99c0 1.522-1.212 2.758-2.704 2.758z" fill="url(#a)" transform="translate(31.478 .242)"/>
        <path d="M10.865 0C4.896 0 .14 4.947.14 10.94v26.638c0 2.473 1.958 4.471 4.383 4.471h12.59c2.425 0 4.383-1.998 4.383-4.471V10.94C21.59 4.947 16.833 0 10.865 0z" fill="url(#b)" transform="translate(31.478 .242)"/>
        <g fill="#FFF" opacity=".32">
            <path d="M38.705 32.112c-1.119 0-1.958-.952-1.958-1.998V12.609c0-1.141.932-1.997 1.958-1.997 1.12 0 1.958.95 1.958 1.997v17.505c0 1.046-.839 1.998-1.958 1.998z"/>
            <path d="M46.072 32.112c-1.119 0-1.958-.952-1.958-1.998V12.609c0-1.141.933-1.997 1.958-1.997 1.12 0 1.959.95 1.959 1.997v17.505c0 1.046-.84 1.998-1.959 1.998z"/>
        </g>
        <g>
            <path d="M17.297.19C7.75.19 0 7.964 0 17.54s7.75 17.351 17.297 17.351c9.546 0 17.297-7.775 17.297-17.35C34.594 7.963 26.844.19 17.297.19zm0 23.798c-3.497 0-6.333-2.845-6.333-6.353 0-3.508 2.836-6.352 6.333-6.352 3.497 0 6.333 2.844 6.333 6.352.094 3.413-2.836 6.353-6.333 6.353z" fill="url(#c)" transform="translate(.702 21.29)"/>
            <path d="M29.773 16.213c-.094 0-.189 0-.283-.095l-1.89-1.043c-.284-.095-.379-.474-.19-.663.095-.285.473-.38.662-.19l1.89 1.043c.284.095.378.474.19.664 0 .19-.19.284-.379.284z" fill="url(#d)" transform="translate(.702 21.29)"/>
            <path d="M26.087 23.514c-.189 0-.283-.095-.472-.19-.284-.285-.379-.664-.095-1.043l1.796-2.276c.283-.284.662-.379 1.04-.094.283.284.378.663.094 1.043l-1.796 2.275c-.189.19-.378.285-.567.285z" fill="url(#e)" transform="translate(.702 21.29)"/>
            <path d="M28.64 10.903c-.19 0-.379-.094-.568-.284l-1.89-2.18c-.284-.285-.19-.76.094-1.044.284-.284.756-.19 1.04.095l1.89 2.18c.284.285.19.76-.094 1.044-.19.095-.284.19-.473.19z" fill="url(#f)" transform="translate(.702 21.29)"/>
            <path d="M20.605 8.249c-.189 0-.283-.095-.473-.19-.283-.284-.378-.664-.094-1.043l1.89-2.18c.284-.285.662-.38 1.04-.095.284.284.378.663.095 1.043l-1.89 2.18c-.19.19-.379.285-.568.285z" fill="url(#g)" transform="translate(.702 21.29)"/>
            <path d="M14.272 6.163c-.283 0-.567-.19-.661-.57l-.473-1.895c-.094-.38.095-.759.473-.854.378-.094.756.095.85.474l.473 1.897c.094.379-.095.758-.473.853-.094 0-.189.095-.189.095z" fill="url(#h)" transform="translate(.702 21.29)"/>
            <path d="M6.427 11.946c-.189 0-.283-.094-.472-.19-.284-.284-.284-.758-.095-1.042l1.89-2.18c.284-.285.662-.38 1.04-.096.284.285.378.664.095 1.043l-1.89 2.18c-.19.19-.379.285-.568.285z" fill="url(#i)" transform="translate(.702 21.29)"/>
            <path d="M7.089 16.971h-.19l-2.74-.853c-.378-.095-.567-.474-.473-.853.095-.38.473-.57.85-.474l2.742.853c.378.095.567.474.473.853a.71.71 0 0 1-.662.474z" fill="url(#j)" transform="translate(.702 21.29)"/>
            <path d="M5.104 24.84c-.095 0-.189 0-.284-.094-.378-.19-.567-.569-.378-.948l1.135-2.655c.189-.38.567-.569.945-.38.378.19.567.57.378.95l-1.134 2.654a.71.71 0 0 1-.662.474z" fill="url(#k)" transform="translate(.702 21.29)"/>
            <path d="M4.348 29.013h1.134c1.607 0 2.836-1.233 2.836-2.845 0-1.137.945-1.99 1.985-1.99 1.134 0 1.984.947 1.984 1.99v2.845a2.444 2.444 0 0 0 2.458 2.465c1.418 0 2.457-1.138 2.457-2.465v-1.897c0-.948.757-1.801 1.796-1.801.945 0 1.796.758 1.796 1.801v1.517c0 1.043.85 1.897 1.89 1.897s1.89-.854 1.89-1.897v-.948c0-.853.662-1.612 1.608-1.612.85 0 1.606.664 1.606 1.612 0 .759.568 1.328 1.324 1.328l1.134.094s-4.064 5.879-12.95 5.879c-8.884 0-12.948-5.973-12.948-5.973z" fill="url(#l)" transform="translate(.702 21.29)"/>
        </g>
    </g>
</svg>
