<svg width="46" height="43" viewBox="0 0 46 43" xmlns="http://www.w3.org/2000/svg">
    <title>
        lemon
    </title>
    <defs>
        <linearGradient x1=".788%" y1="50.149%" x2="100.251%" y2="50.149%" id="a">
            <stop stop-color="#A3D395" offset="0%"/>
            <stop stop-color="#71A595" offset="95.87%"/>
            <stop stop-color="#6FBE95" offset="100%"/>
        </linearGradient>
        <linearGradient x1="0%" y1="49.587%" x2="99.802%" y2="49.587%" id="b">
            <stop stop-color="#A3D395" offset="0%"/>
            <stop stop-color="#71A595" offset="95.87%"/>
            <stop stop-color="#6FBE95" offset="100%"/>
        </linearGradient>
        <linearGradient x1=".061%" y1="50.091%" x2="99.821%" y2="50.091%" id="c">
            <stop stop-color="#FF9C65" offset="0%"/>
            <stop stop-color="#F97F5E" offset="100%"/>
        </linearGradient>
        <linearGradient x1=".183%" y1="50.08%" x2="100.472%" y2="50.08%" id="d">
            <stop stop-color="#FFBF65" offset="0%"/>
            <stop stop-color="#F9A06A" offset="100%"/>
        </linearGradient>
    </defs>
    <g transform="translate(.449 .695)" fill-rule="nonzero" fill="none">
        <path d="M25.79 22.727s-8.693-1.381-13.039-7.66C8.405 8.79 10.143.127 10.143.127s8.693 1.38 13.04 7.659c4.345 6.278 2.607 14.942 2.607 14.942z" fill="url(#a)"/>
        <path d="M27.39 27.993s-6.629 5.858-14.258 5.235C5.628 32.605 0 25.748 0 25.748s6.629-5.858 14.258-5.235c7.504.624 13.132 7.48 13.132 7.48z" fill="url(#b)"/>
        <ellipse fill="url(#c)" cx="28.897" cy="25.866" rx="14.323" ry="14.44"/>
        <path d="M29.021 9.417c-9.101 0-16.457 7.409-16.457 16.45 0 9.04 7.356 16.448 16.333 16.448 8.976 0 16.332-7.408 16.332-16.449.125-9.04-7.231-16.449-16.208-16.449zM41.24 25.113h-9.725l6.982-7.032c1.496 1.884 2.493 4.27 2.743 7.032zM29.894 13.56c2.868.251 5.486 1.381 7.48 3.265l-7.48 7.533V13.561zM28.15 38.17c-2.619-.125-4.987-1.13-6.982-2.762l6.982-7.032v9.794zM21.167 16.45c1.87-1.632 4.363-2.637 6.982-2.763v9.794l-6.982-7.031zm8.727 11.05l7.48 7.533c-1.994 1.884-4.612 3.014-7.48 3.265V27.499zm-9.85-9.92l7.481 7.534H16.928c.124-2.888 1.247-5.525 3.117-7.534zm-3.24 9.166H27.4L19.92 34.28c-1.745-2.01-2.868-4.646-3.117-7.534zm21.568 7.032l-6.982-7.032h9.85a13.037 13.037 0 0 1-2.868 7.032z" fill="url(#d)"/>
    </g>
</svg>
