<svg width="32" height="23" viewBox="0 0 32 23" xmlns="http://www.w3.org/2000/svg">
    <title>
        master-card
    </title>
    <g fill-rule="nonzero" fill="none">
        <path d="M1.324 0H30.44c.728 0 1.324.56 1.324 1.246V19.93c0 .685-.596 1.245-1.324 1.245H1.324c-.728 0-1.324-.56-1.324-1.245V1.246C0 .56.596 0 1.324 0z" fill="#4361C3"/>
        <path d="M19.688 6.618a4.801 4.801 0 0 1 4.797 4.797 4.801 4.801 0 0 1-4.797 4.798 4.801 4.801 0 0 1-4.798-4.798 4.801 4.801 0 0 1 4.797-4.797z" fill="#FFAF38"/>
        <path fill="#FFAF38" d="M15.551 8.934h3.309v1h-3.309z"/>
        <path d="M12.077 16.213a4.801 4.801 0 0 1-4.798-4.798 4.801 4.801 0 0 1 4.798-4.797 4.801 4.801 0 0 1 4.798 4.797 4.801 4.801 0 0 1-4.798 4.798z" fill="#EB3636"/>
        <path d="M15.551 13.566v-.662h4.302v.662H15.55zm0-4.632h4.302v.662H15.55v-.662zm3.971 1.985h-4.301v-.662h4.301v.662zm0 1.324h-4.301v-.662h4.301v.662z" fill="#FFAF38"/>
        <path d="M1.324 22.5h.595L31.765 1.92v-.596C31.765.596 31.169 0 30.44 0H1.324C.596 0 0 .596 0 1.324v19.852c0 .728.596 1.324 1.324 1.324z" fill="#FFF" opacity=".05"/>
    </g>
</svg>
