<svg width="30" height="30" viewBox="0 0 30 30" xmlns="http://www.w3.org/2000/svg">
    <title>
        package
    </title>
    <g fill-rule="nonzero" fill="none">
        <path d="M20.323 2.72L15.957.915c-.53-.22-1.385-.219-1.914 0L1.457 6.122c-.53.22-.957.86-.957 1.434V22.48c0 .574.428 1.215.957 1.434l12.586 5.208c.53.22 1.385.219 1.914 0l12.586-5.208c.53-.22.957-.86.957-1.434V7.556c0-.575-.428-1.215-.957-1.434l-4.529-1.874-14.724 5.89-.021.008a.827.827 0 0 0-.483.711v5.179L5.16 14.482V9.304c0-.284.217-.605.484-.712l.034-.014 14.644-5.857z" fill="#FFCCA5"/>
        <path d="M28.543 6.914c.529-.219.957.067.957.642V22.48c0 .573-.426 1.214-.957 1.434l-12.586 5.208c-.529.219-.957-.068-.957-.642V13.556c0-.573.426-1.214.957-1.434l12.586-5.208z" fill="#FFA27B"/>
    </g>
</svg>
