<svg width="50" height="50" viewBox="0 0 50 50" xmlns="http://www.w3.org/2000/svg">
    <title>
        package
    </title>
    <g fill-rule="nonzero" fill="none">
        <circle fill="#434770" cx="25" cy="25" r="25"/>
        <path d="M30.323 12.72l-4.366-1.806c-.53-.22-1.385-.219-1.914 0l-12.586 5.208c-.53.22-.957.86-.957 1.434V32.48c0 .574.428 1.215.957 1.434l12.586 5.208c.53.22 1.385.219 1.914 0l12.586-5.208c.53-.22.957-.86.957-1.434V17.556c0-.575-.428-1.215-.957-1.434l-4.529-1.874-14.724 5.89-.021.008a.827.827 0 0 0-.483.711v5.179l-3.625-1.554v-5.178c0-.284.217-.605.484-.712l.034-.014 14.644-5.857z" fill="#FFCCA5"/>
        <path d="M38.543 16.914c.529-.219.957.067.957.642V32.48c0 .573-.426 1.214-.957 1.434l-12.586 5.208c-.529.219-.957-.068-.957-.642V23.556c0-.573.426-1.214.957-1.434l12.586-5.208z" fill="#FFA27B"/>
    </g>
</svg>
