<svg width="26" height="21" viewBox="0 0 26 21" xmlns="http://www.w3.org/2000/svg">
    <title>
        speed-simple
    </title>
    <g fill-rule="nonzero" fill="none">
        <path d="M.844 17.82C.426 16.557.2 14.806.2 13.4.2 6.33 5.93.6 13 .6s12.8 5.73 12.8 12.8c0 1.4-.225 3.147-.64 4.407-.12.365 0 0 0 0-.225.593-.931.962-1.584.84 0 0-3.336-.847-10.576-.847s-10.576.846-10.576.846c-.65.13-1.37-.268-1.58-.825 0 0 .045.134 0 0z" fill="#FFCCA5"/>
        <path d="M15.647 16a3.2 3.2 0 1 1-2.758-1.399l5.152-9.174a1.261 1.261 0 0 1 1.654-.5l-.224-.114c.59.3.844 1.03.567 1.632L15.647 16zM13 5.8a1.6 1.6 0 1 1 0-3.2 1.6 1.6 0 0 1 0 3.2zM7 8.6a1.6 1.6 0 1 1 0-3.2 1.6 1.6 0 0 1 0 3.2zm-3.2 6a1.6 1.6 0 1 1 0-3.2 1.6 1.6 0 0 1 0 3.2zm18.4 0a1.6 1.6 0 1 1 0-3.2 1.6 1.6 0 0 1 0 3.2z" fill="#FFA27B"/>
    </g>
</svg>
