<svg width="50" height="50" viewBox="0 0 50 50" xmlns="http://www.w3.org/2000/svg">
    <title>
        speed
    </title>
    <g fill-rule="nonzero" fill="none">
        <circle fill="#434770" cx="25" cy="25" r="25"/>
        <path d="M9.805 33.526C9.283 31.946 9 29.756 9 28c0-8.837 7.163-16 16-16s16 7.163 16 16c0 1.75-.28 3.933-.8 5.509-.15.457 0 0 0 0-.281.741-1.164 1.202-1.98 1.049 0 0-4.17-1.058-13.22-1.058s-13.22 1.058-13.22 1.058c-.812.162-1.713-.336-1.975-1.032 0 0 .056.168 0 0z" fill="#FFCCA5"/>
        <path d="M28.308 31.251a4 4 0 1 1-3.448-1.749l6.442-11.468a1.576 1.576 0 0 1 2.066-.626l-.279-.142a1.571 1.571 0 0 1 .708 2.04L28.308 31.25zM25 18.5a2 2 0 1 1 0-4 2 2 0 0 1 0 4zM17.5 22a2 2 0 1 1 0-4 2 2 0 0 1 0 4zm-4 7.5a2 2 0 1 1 0-4 2 2 0 0 1 0 4zm23 0a2 2 0 1 1 0-4 2 2 0 0 1 0 4z" fill="#FFA27B"/>
    </g>
</svg>
