<svg width="32" height="26" viewBox="0 0 32 26" xmlns="http://www.w3.org/2000/svg">
    <title>
        speed
    </title>
    <g fill-rule="nonzero" fill="none">
        <path d="M.805 21.526C.283 19.946 0 17.756 0 16 0 7.163 7.163 0 16 0s16 7.163 16 16c0 1.75-.28 3.933-.8 5.509-.15.457 0 0 0 0-.281.741-1.164 1.202-1.98 1.049 0 0-4.17-1.058-13.22-1.058S2.78 22.558 2.78 22.558c-.812.162-1.713-.336-1.975-1.032 0 0 .056.168 0 0z" fill="#FFCCA5"/>
        <path d="M19.308 19.251a4 4 0 1 1-3.448-1.749l6.442-11.468a1.576 1.576 0 0 1 2.066-.626l-.279-.142a1.571 1.571 0 0 1 .708 2.04L19.308 19.25zM16 6.5a2 2 0 1 1 0-4 2 2 0 0 1 0 4zM8.5 10a2 2 0 1 1 0-4 2 2 0 0 1 0 4zm-4 7.5a2 2 0 1 1 0-4 2 2 0 0 1 0 4zm23 0a2 2 0 1 1 0-4 2 2 0 0 1 0 4z" fill="#FFA27B"/>
    </g>
</svg>
