<?xml version="1.0" encoding="UTF-8"?><!DOCTYPE svg PUBLIC "-//W3C//DTD SVG 1.1//EN" "http://www.w3.org/Graphics/SVG/1.1/DTD/svg11.dtd"><svg xmlns="http://www.w3.org/2000/svg" xmlns:xlink="http://www.w3.org/1999/xlink"><defs>
        <style>
            .cls-1{stroke:#000;stroke-miterlimit:10}
        </style>
    
        <path d="M243.5 103.5l4 2.75c-3.5 5.125-10 11.75-22.375 11.75C210.25 118 198 104.75 198 88s12.25-30 27.125-30c12.375 0 19 6 22.375 11l-4 2.75c-2.875-4-8.25-8.75-18.375-8.75C212.75 63 203 74.25 203 88s9.75 25 22.125 25c10.125 0 15.375-5.375 18.375-9.5zm36.665 5.034l18.785-48.909.625-1.625h5.375l-1.25 3.375-21.125 55c-7.5 20.125-13.125 24.875-23.75 24.875h-2.5v-5h2.5c8.955 0 12.854-5.297 18.666-20.734l-21.04-54.141L255.2 58h5.374l.625 1.625 18.965 48.909zm44.485-39.189C329.675 61.895 338.101 58 348.15 58h2.5v5h-2.5c-13.578 0-23.377 8.776-23.5 24.402V118h-5V88 58h5v11.345zm78.575 34.155l4 2.75c-3.5 5.125-10 11.75-22.375 11.75-14.875 0-27.125-13.25-27.125-30s12.25-30 27.125-30c12.375 0 19 6 22.375 11l-4 2.75c-2.875-4-8.25-8.75-18.375-8.75-12.375 0-22.125 11.25-22.125 25s9.75 25 22.125 25c10.125 0 15.375-5.375 18.375-9.5zM423.55 118V30.5h5V118h-5zm67.2-15l4 3C491 111.25 484 118.125 471 118c-15.125 0-27.5-13.25-27.5-30s12.375-30 27.5-30c15 0 27.5 13.25 27.5 30v2.5h-49.89c1.112 12.588 10.54 22.5 22.39 22.5 10.75.125 16.5-5.5 19.75-10zm-42.14-17.5h44.89c0-11.25-10-22.5-22.5-22.5-11.85 0-21.278 9.912-22.39 22.5z" id="a"/>
    </defs><symbol id="icon-arrow-down" viewBox="0 0 567.17 355.09">
    
    <title>
        arrow-down
    </title>
    <path class="cls-1" transform="rotate(45 800.05 -396.078)" d="M565.49 399.8h400v100h-400z"/>
    <path class="cls-1" transform="rotate(-45 355.113 1023.368)" d="M777.69 399.68h400v100h-400z"/>
</symbol><symbol id="icon-check" viewBox="0 0 13.5 10.4">
    <path d="M2.3 4.8c-.5-.5-1.4-.5-1.9 0s-.5 1.4 0 1.9L3.6 10c.5.5 1.4.5 1.9 0l7.6-7.7c.5-.5.5-1.4 0-1.9s-1.4-.5-1.9 0L4.6 7.1 2.3 4.8z"/>
    <title>
        Mask
    </title>
    <path d="M2.3 4.8c-.5-.5-1.4-.5-1.9 0s-.5 1.4 0 1.9L3.6 10c.5.5 1.4.5 1.9 0l7.6-7.7c.5-.5.5-1.4 0-1.9s-1.4-.5-1.9 0L4.6 7.1 2.3 4.8z"/>
</symbol><symbol id="icon-logo" viewBox="0 0 480 138">
    <title>
        logo
    </title>
    
    <g fill-rule="evenodd">
        <path d="M123.859 36.038C105.654 5.74 66.335-4.063 36.038 14.14 5.74 32.346-4.063 71.665 14.14 101.962c18.205 30.298 57.524 40.101 87.821 21.897 30.298-18.205 40.101-57.524 21.897-87.821z" stroke-width="10" stroke-linecap="round" stroke-linejoin="round" stroke-dasharray="322,10003"/>
        <path d="M93.422 55c-7.964-13.255-25.166-17.543-38.421-9.579-13.256 7.965-17.544 25.167-9.58 38.422 7.965 13.255 25.167 17.544 38.422 9.58 13.255-7.965 17.544-25.167 9.58-38.422z" stroke-width="10" stroke-linecap="round" stroke-linejoin="round" stroke-dasharray="150,10003"/>
        <path d="M128.304 93.345c4.78-8.623 1.664-19.488-6.959-24.268-8.623-4.78-19.488-1.664-24.268 6.96-4.78 8.622-1.664 19.487 6.96 24.267 8.622 4.78 19.487 1.664 24.267-6.959z" stroke-width="10" stroke-linecap="round" stroke-linejoin="round" stroke-dasharray="59,10003"/>
        <g transform="translate(-19 -19)">
            <use xlink:href="#a"/>
            <use xlink:href="#a"/>
        </g>
    </g>
</symbol><symbol id="icon-marker" viewBox="0 0 9 11">
    <title>
        marker
    </title>
    <path d="M4.5 0a4 4 0 0 0-4 4C.5 7 4 8 4 10a.5.5 0 0 0 1 0c0-2 3.5-3 3.5-6a4 4 0 0 0-4-4zm0 5a1 1 0 1 1 0-2 1 1 0 0 1 0 2z" fill-rule="nonzero"/>
</symbol></svg>