<?xml version="1.0" encoding="UTF-8"?><!DOCTYPE svg PUBLIC "-//W3C//DTD SVG 1.1//EN" "http://www.w3.org/Graphics/SVG/1.1/DTD/svg11.dtd"><svg xmlns="http://www.w3.org/2000/svg"><defs>
        <style>
            .cls-1{stroke:#000;stroke-miterlimit:10}
        </style>
    </defs><symbol id="icon-arrow-down" viewBox="0 0 567.17 355.09">
    
    <title>
        arrow-down
    </title>
    <path class="cls-1" transform="rotate(45 800.05 -396.078)" d="M565.49 399.8h400v100h-400z"/>
    <path class="cls-1" transform="rotate(-45 355.113 1023.368)" d="M777.69 399.68h400v100h-400z"/>
</symbol><symbol id="icon-check" viewBox="0 0 13.5 10.4">
    <path d="M2.3 4.8c-.5-.5-1.4-.5-1.9 0s-.5 1.4 0 1.9L3.6 10c.5.5 1.4.5 1.9 0l7.6-7.7c.5-.5.5-1.4 0-1.9s-1.4-.5-1.9 0L4.6 7.1 2.3 4.8z"/>
    <title>
        Mask
    </title>
    <path d="M2.3 4.8c-.5-.5-1.4-.5-1.9 0s-.5 1.4 0 1.9L3.6 10c.5.5 1.4.5 1.9 0l7.6-7.7c.5-.5.5-1.4 0-1.9s-1.4-.5-1.9 0L4.6 7.1 2.3 4.8z"/>
</symbol></svg>