<?xml version="1.0" encoding="UTF-8"?><!DOCTYPE svg PUBLIC "-//W3C//DTD SVG 1.1//EN" "http://www.w3.org/Graphics/SVG/1.1/DTD/svg11.dtd"><svg xmlns="http://www.w3.org/2000/svg"><symbol id="icon-build" viewBox="0 0 70.2 62.3">
    <title>
        build
    </title>
    <path d="M34.5 7.7H6.1c-.3 0-.6.3-.6.6v47.9c0 .3.3.6.6.6h9.1c.3 0 .5-.2.5-.5v-10c0-.3.2-.5.5-.5h8.1c.3 0 .5.2.5.5v10.1c0 .3.2.5.5.5h9.1c.3 0 .6-.3.6-.6v-48c.1-.3-.2-.6-.5-.6zm-9.3 8H29c.3 0 .5-.2.5-.5v-3.7c0-.3-.2-.5-.5-.5h-3.8c-.3 0-.5.2-.5.5v3.7c0 .3.2.5.5.5zm0 6.7H29c.3 0 .5-.2.5-.5v-3.7c0-.3-.2-.5-.5-.5h-3.8c-.3 0-.5.2-.5.5v3.7c0 .3.2.5.5.5zm-6.7-6.7h3.8c.3 0 .5-.2.5-.5v-3.7c0-.3-.2-.5-.5-.5h-3.8c-.3 0-.5.2-.5.5v3.7c0 .3.2.5.5.5zm0 6.7h3.8c.3 0 .5-.2.5-.5v-3.7c0-.3-.2-.5-.5-.5h-3.8c-.3 0-.5.2-.5.5v3.7c0 .3.2.5.5.5zm-6.7-6.7h3.8c.3 0 .5-.2.5-.5v-3.7c0-.3-.2-.5-.5-.5h-3.8c-.3 0-.5.2-.5.5v3.7c0 .3.2.5.5.5zm0 6.7h3.8c.3 0 .5-.2.5-.5v-3.7c0-.3-.2-.5-.5-.5h-3.8c-.3 0-.5.2-.5.5v3.7c0 .3.2.5.5.5zm13.4 6.2H29c.3 0 .5-.2.5-.5v-3.7c0-.3-.2-.5-.5-.5h-3.8c-.3 0-.5.2-.5.5v3.7c0 .3.2.5.5.5zm-6.7 0h3.8c.3 0 .5-.2.5-.5v-3.7c0-.3-.2-.5-.5-.5h-3.8c-.3 0-.5.2-.5.5v3.7c0 .3.2.5.5.5zm-6.7 0h3.8c.3 0 .5-.2.5-.5v-3.7c0-.3-.2-.5-.5-.5h-3.8c-.3 0-.5.2-.5.5v3.7c0 .3.2.5.5.5zm13.4 6.2H29c.3 0 .5-.2.5-.5v-3.7c0-.3-.2-.5-.5-.5h-3.8c-.3 0-.5.2-.5.5v3.7c0 .3.2.5.5.5zm-6.7 0h3.8c.3 0 .5-.2.5-.5v-3.7c0-.3-.2-.5-.5-.5h-3.8c-.3 0-.5.2-.5.5v3.7c0 .3.2.5.5.5zm-6.7 0h3.8c.3 0 .5-.2.5-.5v-3.7c0-.3-.2-.5-.5-.5h-3.8c-.3 0-.5.2-.5.5v3.7c0 .3.2.5.5.5zM25.2 41H29c.3 0 .5-.2.5-.5v-3.7c0-.3-.2-.5-.5-.5h-3.8c-.3 0-.5.2-.5.5v3.7c0 .3.2.5.5.5zm-6.7 0h3.8c.3 0 .5-.2.5-.5v-3.7c0-.3-.2-.5-.5-.5h-3.8c-.3 0-.5.2-.5.5v3.7c0 .3.2.5.5.5zm-6.7 0h3.8c.3 0 .5-.2.5-.5v-3.7c0-.3-.2-.5-.5-.5h-3.8c-.3 0-.5.2-.5.5v3.7c0 .3.2.5.5.5z"/>
    <path d="M65.9 20.5c.3 0 .6.3.6.6v35.1c0 .3-.3.6-.6.6h-8.7c-.3 0-.5-.2-.5-.5v-10c0-.3-.2-.5-.5-.5h-8.1c-.3 0-.5.2-.5.5v10.1c0 .3-.2.5-.5.5h-9.6c-.3 0-.6-.3-.6-.6V21.1c0-.3.3-.6.6-.6h28.4zm-9.5 8.6h3.8c.3 0 .5-.2.5-.5v-3.7c0-.3-.2-.5-.5-.5h-3.8c-.3 0-.5.2-.5.5v3.7c0 .3.2.5.5.5zm0 6.7h3.8c.3 0 .5-.2.5-.5v-3.7c0-.3-.2-.5-.5-.5h-3.8c-.3 0-.5.2-.5.5v3.7c0 .3.2.5.5.5zm-6.7-6.7h3.8c.3 0 .5-.2.5-.5v-3.7c0-.3-.2-.5-.5-.5h-3.8c-.3 0-.5.2-.5.5v3.7c0 .3.2.5.5.5zm0 6.7h3.8c.3 0 .5-.2.5-.5v-3.7c0-.3-.2-.5-.5-.5h-3.8c-.3 0-.5.2-.5.5v3.7c0 .3.2.5.5.5zm-6.8-6.7h3.8c.3 0 .5-.2.5-.5v-3.7c0-.3-.2-.5-.5-.5h-3.8c-.3 0-.5.2-.5.5v3.7c.1.3.3.5.5.5zm0 6.7h3.8c.3 0 .5-.2.5-.5v-3.7c0-.3-.2-.5-.5-.5h-3.8c-.3 0-.5.2-.5.5v3.7c.1.3.3.5.5.5zM56.4 42h3.8c.3 0 .5-.2.5-.5v-3.7c0-.3-.2-.5-.5-.5h-3.8c-.3 0-.5.2-.5.5v3.7c0 .3.2.5.5.5zm-6.7 0h3.8c.3 0 .5-.2.5-.5v-3.7c0-.3-.2-.5-.5-.5h-3.8c-.3 0-.5.2-.5.5v3.7c0 .3.2.5.5.5zm-6.8 0h3.8c.3 0 .5-.2.5-.5v-3.7c0-.3-.2-.5-.5-.5h-3.8c-.3 0-.5.2-.5.5v3.7c.1.3.3.5.5.5z"/>
    <path d="M10 7h8.9c.3 0 .6-.3.6-.6V.6c0-.3-.3-.6-.6-.6H10c-.4 0-.6.3-.6.6v5.8c0 .3.2.6.6.6"/>
    <path d="M40 19.8h8.9c.3 0 .6-.3.6-.6v-5.8c0-.3-.3-.6-.6-.6H40c-.3 0-.6.3-.6.6v5.8c0 .3.2.6.6.6"/>
    <path d="M.5 62.3h69.2c.3 0 .5-.2.5-.5v-2.6c0-.3-.2-.5-.5-.5H.5c-.3 0-.5.2-.5.5v2.6c0 .3.2.5.5.5z"/>
</symbol><symbol id="icon-check" viewBox="0 0 13.5 10.4">
    <path d="M2.3 4.8c-.5-.5-1.4-.5-1.9 0s-.5 1.4 0 1.9L3.6 10c.5.5 1.4.5 1.9 0l7.6-7.7c.5-.5.5-1.4 0-1.9s-1.4-.5-1.9 0L4.6 7.1 2.3 4.8z"/>
    <title>
        Mask
    </title>
    <path d="M2.3 4.8c-.5-.5-1.4-.5-1.9 0s-.5 1.4 0 1.9L3.6 10c.5.5 1.4.5 1.9 0l7.6-7.7c.5-.5.5-1.4 0-1.9s-1.4-.5-1.9 0L4.6 7.1 2.3 4.8z"/>
</symbol><symbol id="icon-home" viewBox="0 0 74.6 54.8">
    <title>
        home
    </title>
    <path d="M55.2 19.2H2C.3 19.2-.6 17.3.4 16l6.4-8.5c.4-.5 1-.8 1.6-.8h40.4c.6 0 1.2.3 1.6.8l6.4 8.5c1 1.3 0 3.2-1.6 3.2"/>
    <path d="M19.3 5.6h5.3c.3 0 .5-.2.5-.5V.5c0-.3-.2-.5-.5-.5h-5.3c-.3 0-.5.2-.5.5V5c0 .3.2.6.5.6z"/>
    <path d="M4.9 21.3v33c0 .3.2.5.5.5h14c.3 0 .5-.2.5-.5V44c0-.7.6-1.3 1.3-1.3h15c.7 0 1.3.6 1.3 1.3v10.3c0 .3.2.5.5.5h14c.3 0 .5-.2.5-.5v-33c0-.6-.5-1-1-1H5.9c-.5 0-1 .4-1 1zm7.8 13.1h3.9c.3 0 .5-.2.5-.5V30c0-.3-.2-.5-.5-.5h-3.9c-.3 0-.5.2-.5.5v3.9c0 .2.2.5.5.5zm0-6h3.9c.3 0 .5-.2.5-.5V24c0-.3-.2-.5-.5-.5h-3.9c-.3 0-.5.2-.5.5v3.9c0 .2.2.5.5.5zm6 6h3.9c.3 0 .5-.2.5-.5V30c0-.3-.2-.5-.5-.5h-3.9c-.3 0-.5.2-.5.5v3.9c0 .2.2.5.5.5zm0-6h3.9c.3 0 .5-.2.5-.5V24c0-.3-.2-.5-.5-.5h-3.9c-.3 0-.5.2-.5.5v3.9c0 .2.2.5.5.5zm15.9 6h3.9c.3 0 .5-.2.5-.5V30c0-.3-.2-.5-.5-.5h-3.9c-.3 0-.5.2-.5.5v3.9c0 .2.2.5.5.5zm0-6h3.9c.3 0 .5-.2.5-.5V24c0-.3-.2-.5-.5-.5h-3.9c-.3 0-.5.2-.5.5v3.9c0 .2.2.5.5.5zm6 6h3.9c.3 0 .5-.2.5-.5V30c0-.3-.2-.5-.5-.5h-3.9c-.3 0-.5.2-.5.5v3.9c0 .2.2.5.5.5zm0-6h3.9c.3 0 .5-.2.5-.5V24c0-.3-.2-.5-.5-.5h-3.9c-.3 0-.5.2-.5.5v3.9c0 .2.2.5.5.5z"/>
    <path d="M72.8 33.7l-15-8.1c-1.6-.9-3-.2-3 1.5v6.7c0 .5.4.8.8.8h18.2c-.2-.3-.6-.7-1-.9"/>
    <path d="M54.8 51.7c0 1.7 1.4 3.1 3 3.1h15c1 0 1.8-1 1.8-2.3V37l-.6-.6H56.4c-.9 0-1.6.7-1.6 1.6v13.7zm11.4-8.4H70c.3 0 .5-.2.5-.5V39c0-.3-.2-.5-.5-.5h-3.8c-.3 0-.5.2-.5.5v3.8c0 .2.2.5.5.5zm0 6.7H70c.3 0 .5-.2.5-.5v-3.8c0-.3-.2-.5-.5-.5h-3.8c-.3 0-.5.2-.5.5v3.8c0 .2.2.5.5.5zm-6.7-6.7h3.8c.3 0 .5-.2.5-.5V39c0-.3-.2-.5-.5-.5h-3.8c-.3 0-.5.2-.5.5v3.8c-.1.2.2.5.5.5zm0 6.7h3.8c.3 0 .5-.2.5-.5v-3.8c0-.3-.2-.5-.5-.5h-3.8c-.3 0-.5.2-.5.5v3.8c-.1.2.2.5.5.5z"/>
</symbol></svg>