<?xml version="1.0" encoding="UTF-8"?><!DOCTYPE svg PUBLIC "-//W3C//DTD SVG 1.1//EN" "http://www.w3.org/Graphics/SVG/1.1/DTD/svg11.dtd"><svg xmlns="http://www.w3.org/2000/svg"><symbol id="icon-check" viewBox="0 0 13.5 10.4">
    <path d="M2.3 4.8c-.5-.5-1.4-.5-1.9 0s-.5 1.4 0 1.9L3.6 10c.5.5 1.4.5 1.9 0l7.6-7.7c.5-.5.5-1.4 0-1.9s-1.4-.5-1.9 0L4.6 7.1 2.3 4.8z"/>
    <title>
        Mask
    </title>
    <path d="M2.3 4.8c-.5-.5-1.4-.5-1.9 0s-.5 1.4 0 1.9L3.6 10c.5.5 1.4.5 1.9 0l7.6-7.7c.5-.5.5-1.4 0-1.9s-1.4-.5-1.9 0L4.6 7.1 2.3 4.8z"/>
</symbol></svg>