<?xml version="1.0" encoding="UTF-8"?><!DOCTYPE svg PUBLIC "-//W3C//DTD SVG 1.1//EN" "http://www.w3.org/Graphics/SVG/1.1/DTD/svg11.dtd"><svg xmlns="http://www.w3.org/2000/svg"><defs>
        <style>
            .cls-1{stroke:#000;stroke-miterlimit:10}
        </style>
    </defs><symbol id="icon-arrow-down" viewBox="0 0 567.17 355.09">
    
    <title>
        arrow-down
    </title>
    <path class="cls-1" transform="rotate(45 800.05 -396.078)" d="M565.49 399.8h400v100h-400z"/>
    <path class="cls-1" transform="rotate(-45 355.113 1023.368)" d="M777.69 399.68h400v100h-400z"/>
</symbol><symbol id="icon-check" viewBox="0 0 13.5 10.4">
    <path d="M2.3 4.8c-.5-.5-1.4-.5-1.9 0s-.5 1.4 0 1.9L3.6 10c.5.5 1.4.5 1.9 0l7.6-7.7c.5-.5.5-1.4 0-1.9s-1.4-.5-1.9 0L4.6 7.1 2.3 4.8z"/>
    <title>
        Mask
    </title>
    <path d="M2.3 4.8c-.5-.5-1.4-.5-1.9 0s-.5 1.4 0 1.9L3.6 10c.5.5 1.4.5 1.9 0l7.6-7.7c.5-.5.5-1.4 0-1.9s-1.4-.5-1.9 0L4.6 7.1 2.3 4.8z"/>
</symbol><symbol id="icon-logo" viewBox="0 0 480 138">
    <title>
        logo
    </title>
    <path d="M69.1 138c-24.1 0-46.8-12.8-59.2-33.5C3.4 93.8 0 81.5 0 69 0 44.9 12.8 22.2 33.5 9.8 44.2 3.3 56.5-.1 69-.1c24.1 0 46.8 12.8 59.2 33.5 1.4 2.4.7 5.4-1.7 6.9-2.4 1.4-5.4.7-6.9-1.7C108.8 20.7 89.9 10 68.9 10c-10.7 0-21.1 2.9-30.3 8.4C20.7 29.2 10 48.1 10 69.1c0 10.7 2.9 21.1 8.4 30.3C29.2 117.3 48.1 128 69.1 128c10.7 0 21.1-2.9 30.3-8.4 5.4-3.2 10.2-7.3 14.3-12 1.8-2.1 5-2.3 7.1-.5 2.1 1.8 2.3 5 .5 7.1-4.8 5.5-10.4 10.3-16.7 14.1-10.8 6.3-23.1 9.7-35.5 9.7z"/>
    <path d="M69.4 102.4c-11.5 0-22.4-6.1-28.3-16-3.1-5.1-4.7-11-4.7-17 0-11.5 6.1-22.4 16-28.3 5.1-3.1 11-4.7 17-4.7 11.5 0 22.4 6.1 28.3 16 1.4 2.4.7 5.4-1.7 6.9-2.4 1.4-5.4.7-6.9-1.7-4.2-7-11.6-11.2-19.7-11.2-4.2 0-8.2 1.1-11.8 3.3-7 4.2-11.2 11.6-11.2 19.7 0 4.2 1.1 8.2 3.3 11.8 4.2 7 11.6 11.2 19.7 11.2 4.2 0 8.2-1.1 11.8-3.3 4.3-2.6 7.6-6.4 9.5-11 1-2.6 4-3.8 6.5-2.8 2.6 1 3.8 4 2.8 6.5-2.7 6.7-7.4 12.1-13.6 15.9-5.1 3.1-11 4.7-17 4.7z"/>
    <path d="M128.3 98.3c-.8 0-1.7-.2-2.4-.6-2.4-1.3-3.3-4.4-1.9-6.8 1.1-1.9 1.6-4.1 1.6-6.2 0-4.7-2.5-9-6.6-11.3-1.9-1.1-4.1-1.6-6.2-1.6-4.7 0-9 2.5-11.3 6.6-.3.6-.6 1.3-.9 1.9-.9 2.6-3.8 4-6.4 3-2.6-.9-4-3.8-3-6.4.4-1.2.9-2.3 1.5-3.4 4-7.3 11.7-11.8 20-11.8 3.9 0 7.7 1 11.1 2.9 7.3 4 11.8 11.7 11.8 20 0 3.9-1 7.7-2.9 11.1-.9 1.7-2.6 2.6-4.4 2.6z"/>
    <path d="M224.5 84.5l4 2.8c-3.5 5.1-10 11.8-22.4 11.8-14.9 0-27.1-13.2-27.1-30s12.2-30 27.1-30c12.4 0 19 6 22.4 11l-4 2.8c-2.9-4-8.2-8.8-18.4-8.8C193.8 44 184 55.2 184 69s9.8 25 22.1 25c10.1 0 15.4-5.4 18.4-9.5zm36.7 5L280 40.6l.6-1.6h5.4l-1.2 3.4-21.1 55c-7.5 20.1-13.1 24.9-23.8 24.9h-2.5v-5h2.5c9 0 12.9-5.3 18.7-20.7l-21-54.1-1.2-3.4h5.4l.6 1.6 18.8 48.8zm44.5-39.2c5-7.5 13.5-11.3 23.5-11.3h2.5v5h-2.5c-13.6 0-23.4 8.8-23.5 24.4V99h-5V69 39h5v11.3zm78.5 34.2l4 2.8c-3.5 5.1-10 11.8-22.4 11.8-14.9 0-27.1-13.2-27.1-30s12.2-30 27.1-30c12.4 0 19 6 22.4 11l-4 2.8c-2.9-4-8.2-8.8-18.4-8.8-12.4 0-22.1 11.2-22.1 25s9.8 25 22.1 25c10.2-.1 15.4-5.5 18.4-9.6zM404.6 99V11.5h5V99h-5zm67.2-15l4 3C472 92.2 465 99.1 452 99c-15.1 0-27.5-13.2-27.5-30s12.4-30 27.5-30c15 0 27.5 13.2 27.5 30v2.5h-49.9C430.7 84.1 440.1 94 452 94c10.8.1 16.5-5.5 19.8-10zm-42.2-17.5h44.9c0-11.2-10-22.5-22.5-22.5-11.9 0-21.3 9.9-22.4 22.5z"/>
    <path d="M224.5 84.5l4 2.8c-3.5 5.1-10 11.8-22.4 11.8-14.9 0-27.1-13.2-27.1-30s12.2-30 27.1-30c12.4 0 19 6 22.4 11l-4 2.8c-2.9-4-8.2-8.8-18.4-8.8C193.8 44 184 55.2 184 69s9.8 25 22.1 25c10.1 0 15.4-5.4 18.4-9.5zm36.7 5L280 40.6l.6-1.6h5.4l-1.2 3.4-21.1 55c-7.5 20.1-13.1 24.9-23.8 24.9h-2.5v-5h2.5c9 0 12.9-5.3 18.7-20.7l-21-54.1-1.2-3.4h5.4l.6 1.6 18.8 48.8zm44.5-39.2c5-7.5 13.5-11.3 23.5-11.3h2.5v5h-2.5c-13.6 0-23.4 8.8-23.5 24.4V99h-5V69 39h5v11.3zm78.5 34.2l4 2.8c-3.5 5.1-10 11.8-22.4 11.8-14.9 0-27.1-13.2-27.1-30s12.2-30 27.1-30c12.4 0 19 6 22.4 11l-4 2.8c-2.9-4-8.2-8.8-18.4-8.8-12.4 0-22.1 11.2-22.1 25s9.8 25 22.1 25c10.2-.1 15.4-5.5 18.4-9.6zM404.6 99V11.5h5V99h-5zm67.2-15l4 3C472 92.2 465 99.1 452 99c-15.1 0-27.5-13.2-27.5-30s12.4-30 27.5-30c15 0 27.5 13.2 27.5 30v2.5h-49.9C430.7 84.1 440.1 94 452 94c10.8.1 16.5-5.5 19.8-10zm-42.2-17.5h44.9c0-11.2-10-22.5-22.5-22.5-11.9 0-21.3 9.9-22.4 22.5z"/>
</symbol><symbol id="icon-marker" viewBox="0 0 9 11">
    <title>
        marker
    </title>
    <path d="M4.5 0a4 4 0 0 0-4 4C.5 7 4 8 4 10a.5.5 0 0 0 1 0c0-2 3.5-3 3.5-6a4 4 0 0 0-4-4zm0 5a1 1 0 1 1 0-2 1 1 0 0 1 0 2z" fill-rule="nonzero"/>
</symbol></svg>