<svg width="25" height="25" viewBox="0 0 25 25" xmlns="http://www.w3.org/2000/svg">
    <title>
        tomato
    </title>
    <g fill-rule="nonzero" fill="none">
        <path d="M12.294 4.378c-.22 0-.439-.175-.439-.393 0-.088-.131-2.232 1.932-3.895.176-.132.483-.132.615.087.132.175.132.482-.088.613-1.712 1.356-1.58 3.107-1.58 3.107 0 .263-.176.481-.44.481z" fill="#D17D5A"/>
        <path d="M24.588 12.694c0 6.783-5.488 12.253-12.294 12.253-6.805 0-12.293-5.47-12.293-12.253 0-5.033 3.073-7.44 7.464-8.316l1.317 1.313-1.756 1.75 3.951-1.312 1.317 1.313 1.318-1.313 3.951 1.313-1.756-1.75 1.317-1.314c4.39.876 7.464 3.283 7.464 8.316z" fill="#FFCCA5"/>
        <path fill="#FFA27B" d="M17.563 7.442l-3.951-1.313-1.318 1.313-1.317-1.313-3.951 1.313 3.512-3.501-1.756-1.75 3.512 1.75 3.513-1.75-1.756 1.75z"/>
        <path fill="#D17D5A" d="M10.538 3.94L8.782 5.692l-1.756-1.75z"/>
        <path fill="#D17D5A" d="M17.563 3.94l-1.756 1.751-1.756-1.75z"/>
    </g>
</svg>
