<svg width="25" height="33" viewBox="0 0 25 33" xmlns="http://www.w3.org/2000/svg">
    <title>
        tree
    </title>
    <g fill-rule="nonzero" fill="none">
        <path d="M12.5 33C19.404 33 25 27.112 25 19.848 25 12.584 12.5 0 12.5 0S0 12.584 0 19.848C0 27.112 5.596 33 12.5 33z" fill="#FFCCA5"/>
        <path d="M11.111 24.085V13.752c0-.76.623-1.377 1.389-1.377.767 0 1.389.617 1.389 1.377v6.428l2.517-2.406c.551-.527 1.43-.51 1.962.035a1.364 1.364 0 0 1-.032 1.943l-4.447 4.251v7.62c0 .76-.623 1.377-1.389 1.377a1.384 1.384 0 0 1-1.389-1.377v-3.715l-4.417-4.223a1.364 1.364 0 0 1-.032-1.942 1.399 1.399 0 0 1 1.962-.036l2.487 2.378z" fill="#FFA27B"/>
    </g>
</svg>
