<svg width="32" height="22" viewBox="0 0 32 22" xmlns="http://www.w3.org/2000/svg">
    <title>
        visa
    </title>
    <g fill-rule="nonzero" fill="none">
        <path fill="#F9F9F9" d="M.235 5.606H32v9.965H.235z"/>
        <path d="M1.559 0h29.117C31.404 0 32 .56 32 1.246v4.36H.235v-4.36C.235.56.831 0 1.56 0z" fill="#09599E"/>
        <path d="M.235 15.57H32v4.36c0 .686-.596 1.246-1.324 1.246H1.56c-.728 0-1.324-.56-1.324-1.245v-4.36z" fill="#E59703"/>
        <path d="M1.559 21.145c-.728 0-1.324-.56-1.324-1.245V1.246C.235.56.831 0 1.56 0h29.117C31.404 0 32 .56 32 1.246" fill="#FFF" opacity=".05"/>
        <path fill="#00589F" d="M12.511 13.204l.96-5.263h1.522l-.96 5.263z"/>
        <path d="M19.559 8.097a4.434 4.434 0 0 0-1.357-.218c-1.522 0-2.58.716-2.58 1.744 0 .747.76 1.183 1.323 1.432.595.25.794.436.794.654 0 .343-.463.53-.927.53-.595 0-.926-.094-1.422-.28l-.199-.125-.198 1.183c.364.156 1.025.28 1.687.28 1.588 0 2.647-.716 2.647-1.806 0-.591-.397-1.058-1.29-1.432-.53-.25-.86-.405-.86-.654 0-.218.264-.467.86-.467.496 0 .86.093 1.125.187l.132.062.265-1.09" fill="#00589F"/>
        <path d="M23.463 7.972h-1.19c-.365 0-.63.094-.795.436l-2.25 4.827h1.588s.265-.654.331-.778H23.1c.033.187.199.778.199.778h1.423l-1.258-5.263zm-1.886 3.364c.133-.312.596-1.464.596-1.464s.132-.311.198-.498l.1.467.364 1.526h-1.258v-.031z" fill="#00589F"/>
        <path d="M11.22 7.972l-1.488 3.582-.166-.717c-.265-.84-1.158-1.744-2.117-2.21l1.39 4.577h1.62l2.416-5.263h-1.654" fill="#00589F"/>
        <path d="M8.342 7.941H5.893l-.033.125c1.92.436 3.177 1.495 3.706 2.74l-.53-2.398c-.065-.342-.363-.436-.694-.467" fill="#F9A51A"/>
    </g>
</svg>
